<?xml version="1.0" encoding="UTF-8" standalone="no"?>
<!DOCTYPE svg PUBLIC "-//W3C//DTD SVG 1.1//EN"
 "http://www.w3.org/Graphics/SVG/1.1/DTD/svg11.dtd">
<!-- Generated by graphviz version 2.43.0 (0)
 -->
<!-- Title: %3 Pages: 1 -->
<svg width="1317pt" height="841pt"
 viewBox="0.00 0.00 1317.00 841.00" xmlns="http://www.w3.org/2000/svg" xmlns:xlink="http://www.w3.org/1999/xlink">
<g id="graph0" class="graph" transform="scale(1 1) rotate(0) translate(4 837)">
<title>%3</title>
<polygon fill="white" stroke="transparent" points="-4,4 -4,-837 1313,-837 1313,4 -4,4"/>
<g id="clust1" class="cluster">
<title>cluster_eav</title>
<polygon fill="none" stroke="turquoise" stroke-dasharray="1,5" points="8,-168 8,-825 658,-825 658,-168 8,-168"/>
</g>
<g id="clust3" class="cluster">
<title>cluster_prop</title>
<polygon fill="none" stroke="lightgrey" stroke-dasharray="1,5" points="16,-728 16,-817 650,-817 650,-728 16,-728"/>
</g>
<g id="clust4" class="cluster">
<title>cluster_nlp</title>
<polygon fill="none" stroke="violet" stroke-dasharray="1,5" points="667,-8 667,-693 1301,-693 1301,-8 667,-8"/>
</g>
<!-- classe -->
<g id="node1" class="node">
<title>classe</title>
<polygon fill="none" stroke="orange" points="260,-350.5 260,-408.5 418,-408.5 418,-350.5 260,-350.5"/>
<text text-anchor="start" x="311.5" y="-390.6" font-family="arial" font-weight="bold" font-size="18.00" fill="orange">classe</text>
<polyline fill="none" stroke="orange" points="260,-379.5 418,-379.5 "/>
<text text-anchor="start" x="336" y="-360.6" font-family="arial" font-size="18.00" fill="orange"> </text>
</g>
<!-- concept -->
<g id="node7" class="node">
<title>concept</title>
<polygon fill="none" stroke="orange" points="260,-176.5 260,-262.5 418,-262.5 418,-176.5 260,-176.5"/>
<text text-anchor="start" x="304" y="-246.1" font-family="arial" font-weight="bold" font-size="18.00" fill="orange">concept</text>
<polyline fill="none" stroke="orange" points="260,-236.5 418,-236.5 "/>
<text text-anchor="start" x="278" y="-220.1" font-family="arial" font-size="18.00" fill="orange">+ </text>
<text text-anchor="start" x="294" y="-220.1" font-family="arial" text-decoration="underline" font-size="18.00" fill="orange">id</text>
<text text-anchor="start" x="308" y="-220.1" font-family="arial" font-size="18.00" fill="orange"> </text>
<text text-anchor="start" x="314" y="-220.1" font-family="arial" font-style="italic" font-size="18.00" fill="grey">smallint</text>
<text text-anchor="start" x="278" y="-202.1" font-family="arial" font-size="18.00" fill="orange">+ nom </text>
<text text-anchor="start" x="334" y="-202.1" font-family="arial" font-style="italic" font-size="18.00" fill="grey">text</text>
<text text-anchor="start" x="278" y="-184.1" font-family="arial" font-size="18.00" fill="orange">+ définition </text>
<text text-anchor="start" x="370" y="-184.1" font-family="arial" font-style="italic" font-size="18.00" fill="grey">text</text>
</g>
<!-- classe&#45;&gt;concept -->
<g id="edge1" class="edge">
<title>classe&#45;&gt;concept</title>
<path fill="none" stroke="orange" stroke-dasharray="5,2" d="M339,-350.25C339,-328.78 339,-298.64 339,-272.81"/>
<polygon fill="none" stroke="orange" points="342.5,-272.78 339,-262.78 335.5,-272.78 342.5,-272.78"/>
</g>
<!-- type_relation -->
<g id="node2" class="node">
<title>type_relation</title>
<polygon fill="none" stroke="orange" points="490,-350.5 490,-408.5 648,-408.5 648,-350.5 490,-350.5"/>
<text text-anchor="start" x="513" y="-390.6" font-family="arial" font-weight="bold" font-size="18.00" fill="orange">type_relation</text>
<polyline fill="none" stroke="orange" points="490,-379.5 648,-379.5 "/>
<text text-anchor="start" x="566" y="-360.6" font-family="arial" font-size="18.00" fill="orange"> </text>
</g>
<!-- type_relation&#45;&gt;concept -->
<g id="edge3" class="edge">
<title>type_relation&#45;&gt;concept</title>
<path fill="none" stroke="orange" stroke-dasharray="5,2" d="M528.15,-350.43C495.14,-327.76 447.94,-295.33 408.94,-268.55"/>
<polygon fill="none" stroke="orange" points="410.47,-265.35 400.24,-262.57 406.51,-271.12 410.47,-265.35"/>
</g>
<!-- type_propriete -->
<g id="node3" class="node">
<title>type_propriete</title>
<polygon fill="none" stroke="orange" points="30,-350.5 30,-408.5 188,-408.5 188,-350.5 30,-350.5"/>
<text text-anchor="start" x="46.5" y="-390.6" font-family="arial" font-weight="bold" font-size="18.00" fill="orange">type_propriete</text>
<polyline fill="none" stroke="orange" points="30,-379.5 188,-379.5 "/>
<text text-anchor="start" x="106" y="-360.6" font-family="arial" font-size="18.00" fill="orange"> </text>
</g>
<!-- type_propriete&#45;&gt;concept -->
<g id="edge2" class="edge">
<title>type_propriete&#45;&gt;concept</title>
<path fill="none" stroke="orange" stroke-dasharray="5,2" d="M149.85,-350.43C182.86,-327.76 230.06,-295.33 269.06,-268.55"/>
<polygon fill="none" stroke="orange" points="271.49,-271.12 277.76,-262.57 267.53,-265.35 271.49,-271.12"/>
</g>
<!-- entite -->
<g id="node4" class="node">
<title>entite</title>
<polygon fill="none" stroke="black" stroke-width="2" points="260,-474.5 260,-546.5 418,-546.5 418,-474.5 260,-474.5"/>
<text text-anchor="start" x="314.5" y="-529.1" font-family="arial" font-weight="bold" font-size="18.00">entite</text>
<polyline fill="none" stroke="black" stroke-width="2" points="260,-518.5 418,-518.5 "/>
<text text-anchor="start" x="272" y="-501.1" font-family="arial" font-size="18.00">+ </text>
<text text-anchor="start" x="288" y="-501.1" font-family="arial" text-decoration="underline" font-size="18.00">id</text>
<text text-anchor="start" x="302" y="-501.1" font-family="arial" font-size="18.00"> </text>
<text text-anchor="start" x="308" y="-501.1" font-family="arial" font-style="italic" font-size="18.00" fill="grey">int</text>
<text text-anchor="start" x="272" y="-483.1" font-family="arial" font-size="18.00">_ </text>
<text text-anchor="start" x="288" y="-483.1" font-family="arial" font-size="18.00" fill="orange">classe</text>
<text text-anchor="start" x="339" y="-483.1" font-family="arial" font-size="18.00"> </text>
<text text-anchor="start" x="345" y="-483.1" font-family="arial" font-style="italic" font-size="18.00" fill="grey">smallint</text>
</g>
<!-- entite&#45;&gt;classe -->
<g id="edge5" class="edge">
<title>entite&#45;&gt;classe</title>
<path fill="none" stroke="orange" d="M339,-474.25C339,-457.2 339,-436.69 339,-419.21"/>
<polygon fill="orange" stroke="orange" points="342.5,-418.77 339,-408.77 335.5,-418.77 342.5,-418.77"/>
<text text-anchor="middle" x="388.5" y="-444.8" font-family="arial" font-size="14.00" fill="orange">est_instance_de</text>
</g>
<!-- relation -->
<g id="node5" class="node">
<title>relation</title>
<polygon fill="none" stroke="black" stroke-width="2" points="407,-598.5 407,-684.5 565,-684.5 565,-598.5 407,-598.5"/>
<text text-anchor="start" x="453" y="-668.1" font-family="arial" font-weight="bold" font-size="18.00">relation</text>
<polyline fill="none" stroke="black" stroke-width="2" points="407,-658.5 565,-658.5 "/>
<text text-anchor="start" x="427.5" y="-642.1" font-family="arial" font-size="18.00">_ </text>
<text text-anchor="start" x="443.5" y="-642.1" font-family="arial" font-size="18.00" fill="orange">type</text>
<text text-anchor="start" x="477.5" y="-642.1" font-family="arial" font-size="18.00"> </text>
<text text-anchor="start" x="483.5" y="-642.1" font-family="arial" font-style="italic" font-size="18.00" fill="grey">smallint</text>
<text text-anchor="start" x="427.5" y="-624.1" font-family="arial" font-size="18.00">_ sujet </text>
<text text-anchor="start" x="485.5" y="-624.1" font-family="arial" font-style="italic" font-size="18.00" fill="grey">int</text>
<text text-anchor="start" x="427.5" y="-606.1" font-family="arial" font-size="18.00">_ objet </text>
<text text-anchor="start" x="486.5" y="-606.1" font-family="arial" font-style="italic" font-size="18.00" fill="grey">int</text>
</g>
<!-- relation&#45;&gt;type_relation -->
<g id="edge4" class="edge">
<title>relation&#45;&gt;type_relation</title>
<path fill="none" stroke="orange" d="M499.43,-598.44C515.32,-548.66 541.55,-466.49 556.86,-418.54"/>
<polygon fill="orange" stroke="orange" points="560.24,-419.44 559.95,-408.85 553.57,-417.31 560.24,-419.44"/>
<text text-anchor="middle" x="558.5" y="-506.8" font-family="arial" font-size="14.00" fill="orange">a_type</text>
</g>
<!-- relation&#45;&gt;entite -->
<g id="edge7" class="edge">
<title>relation&#45;&gt;entite</title>
<path fill="none" stroke="black" d="M445.57,-598.3C434.34,-587.15 421.95,-575.35 410,-565 405.33,-560.95 400.38,-556.87 395.36,-552.85"/>
<polygon fill="black" stroke="black" points="397.46,-550.04 387.44,-546.6 393.13,-555.54 397.46,-550.04"/>
<text text-anchor="middle" x="447.5" y="-568.8" font-family="arial" font-size="14.00">a_objet</text>
</g>
<!-- relation&#45;&gt;entite -->
<g id="edge8" class="edge">
<title>relation&#45;&gt;entite</title>
<path fill="none" stroke="black" d="M406.81,-621.67C384.58,-612.61 362.53,-599.35 348,-580 342.98,-573.32 340.03,-565.2 338.39,-556.92"/>
<polygon fill="black" stroke="black" points="341.83,-556.25 336.99,-546.83 334.9,-557.22 341.83,-556.25"/>
<text text-anchor="middle" x="370" y="-568.8" font-family="arial" font-size="14.00">a_sujet</text>
</g>
<!-- propriete -->
<g id="node6" class="node">
<title>propriete</title>
<polygon fill="none" stroke="black" stroke-width="2" points="166,-605.5 166,-677.5 324,-677.5 324,-605.5 166,-605.5"/>
<text text-anchor="start" x="205.5" y="-660.1" font-family="arial" font-weight="bold" font-size="18.00">propriété</text>
<polyline fill="none" stroke="black" stroke-width="2" points="166,-649.5 324,-649.5 "/>
<text text-anchor="start" x="186.5" y="-632.1" font-family="arial" font-size="18.00">_ </text>
<text text-anchor="start" x="202.5" y="-632.1" font-family="arial" font-size="18.00" fill="orange">type</text>
<text text-anchor="start" x="236.5" y="-632.1" font-family="arial" font-size="18.00"> </text>
<text text-anchor="start" x="242.5" y="-632.1" font-family="arial" font-style="italic" font-size="18.00" fill="grey">smallint</text>
<text text-anchor="start" x="186.5" y="-614.1" font-family="arial" font-size="18.00">_ entite </text>
<text text-anchor="start" x="250.5" y="-614.1" font-family="arial" font-style="italic" font-size="18.00" fill="grey">int</text>
</g>
<!-- propriete&#45;&gt;type_propriete -->
<g id="edge6" class="edge">
<title>propriete&#45;&gt;type_propriete</title>
<path fill="none" stroke="orange" d="M219.71,-605.41C207.86,-588.22 193.96,-566.98 183,-547 159.52,-504.22 137.47,-452.53 123.65,-418.21"/>
<polygon fill="orange" stroke="orange" points="126.76,-416.57 119.8,-408.58 120.26,-419.17 126.76,-416.57"/>
<text text-anchor="middle" x="203.5" y="-506.8" font-family="arial" font-size="14.00" fill="orange">a_type</text>
</g>
<!-- propriete&#45;&gt;entite -->
<g id="edge9" class="edge">
<title>propriete&#45;&gt;entite</title>
<path fill="none" stroke="black" d="M229.21,-605.47C225.54,-592 224.59,-576.99 232,-565 237.05,-556.83 243.77,-549.86 251.39,-543.93"/>
<polygon fill="black" stroke="black" points="253.81,-546.51 259.98,-537.9 249.79,-540.78 253.81,-546.51"/>
<text text-anchor="middle" x="253.5" y="-568.8" font-family="arial" font-size="14.00">qualifie</text>
</g>
<!-- texte -->
<g id="node8" class="node">
<title>texte</title>
<polygon fill="none" stroke="turquoise" stroke-width="2" points="484,-736.5 484,-808.5 642,-808.5 642,-736.5 484,-736.5"/>
<text text-anchor="start" x="542" y="-791.1" font-family="arial" font-weight="bold" font-size="18.00" fill="turquoise">texte</text>
<polyline fill="none" stroke="turquoise" stroke-width="2" points="484,-780.5 642,-780.5 "/>
<text text-anchor="start" x="526" y="-763.1" font-family="arial" font-size="18.00" fill="turquoise">+id </text>
<text text-anchor="start" x="556" y="-763.1" font-family="arial" font-size="18.00" fill="turquoise">id</text>
<text text-anchor="start" x="570" y="-763.1" font-family="arial" font-size="18.00" fill="turquoise"> </text>
<text text-anchor="start" x="576" y="-763.1" font-family="arial" font-style="italic" font-size="18.00" fill="grey">int</text>
<text text-anchor="start" x="526" y="-745.1" font-family="arial" font-size="18.00" fill="turquoise">+ val </text>
<text text-anchor="start" x="570" y="-745.1" font-family="arial" font-style="italic" font-size="18.00" fill="grey">text</text>
</g>
<!-- texte&#45;&gt;propriete -->
<g id="edge10" class="edge">
<title>texte&#45;&gt;propriete</title>
<path fill="none" stroke="turquoise" stroke-dasharray="5,2" d="M483.98,-739.45C438.29,-720.91 380.67,-697.53 333.46,-678.38"/>
<polygon fill="none" stroke="turquoise" points="334.74,-675.13 324.16,-674.61 332.11,-681.61 334.74,-675.13"/>
</g>
<!-- segment -->
<g id="node11" class="node">
<title>segment</title>
<polygon fill="none" stroke="blue" stroke-width="2" points="790,-598.5 790,-684.5 948,-684.5 948,-598.5 790,-598.5"/>
<text text-anchor="start" x="832" y="-668.1" font-family="arial" font-weight="bold" font-size="18.00" fill="blue">segment</text>
<polyline fill="none" stroke="blue" stroke-width="2" points="790,-658.5 948,-658.5 "/>
<text text-anchor="start" x="808.5" y="-642.1" font-family="arial" font-size="18.00" fill="blue">_ </text>
<text text-anchor="start" x="824.5" y="-642.1" font-family="arial" font-size="18.00" fill="turquoise">texte</text>
<text text-anchor="start" x="864.5" y="-642.1" font-family="arial" font-size="18.00" fill="blue"> </text>
<text text-anchor="start" x="870.5" y="-642.1" font-family="arial" font-style="italic" font-size="18.00" fill="grey">int</text>
<text text-anchor="start" x="808.5" y="-624.1" font-family="arial" font-size="18.00" fill="blue">+ début </text>
<text text-anchor="start" x="874.5" y="-624.1" font-family="arial" font-style="italic" font-size="18.00" fill="grey">integer</text>
<text text-anchor="start" x="808.5" y="-606.1" font-family="arial" font-size="18.00" fill="blue">+ fin </text>
<text text-anchor="start" x="848.5" y="-606.1" font-family="arial" font-style="italic" font-size="18.00" fill="grey">integer</text>
</g>
<!-- texte&#45;&gt;segment -->
<g id="edge13" class="edge">
<title>texte&#45;&gt;segment</title>
<path fill="none" stroke="turquoise" d="M651.67,-734.12C695.34,-715.71 747.56,-693.7 789.87,-675.86"/>
<polygon fill="turquoise" stroke="turquoise" points="650.06,-731 642.2,-738.11 652.77,-737.45 650.06,-731"/>
<text text-anchor="middle" x="752.5" y="-706.8" font-family="arial" font-size="14.00" fill="turquoise">est_dans</text>
</g>
<!-- prop_date -->
<g id="node9" class="node">
<title>prop_date</title>
<polygon fill="none" stroke="turquoise" stroke-width="2" points="254,-743.5 254,-801.5 412,-801.5 412,-743.5 254,-743.5"/>
<text text-anchor="start" x="289" y="-783.6" font-family="arial" font-weight="bold" font-size="18.00" fill="turquoise">prop_date</text>
<polyline fill="none" stroke="turquoise" stroke-width="2" points="254,-772.5 412,-772.5 "/>
<text text-anchor="start" x="269.5" y="-754.6" font-family="arial" font-size="18.00" fill="turquoise">+ val </text>
<text text-anchor="start" x="313.5" y="-754.6" font-family="arial" font-style="italic" font-size="18.00" fill="grey">timestamp</text>
</g>
<!-- prop_date&#45;&gt;propriete -->
<g id="edge11" class="edge">
<title>prop_date&#45;&gt;propriete</title>
<path fill="none" stroke="turquoise" stroke-dasharray="5,2" d="M313.69,-743.19C302.28,-726.47 287.6,-704.95 274.74,-686.1"/>
<polygon fill="none" stroke="turquoise" points="277.51,-683.94 268.98,-677.65 271.72,-687.88 277.51,-683.94"/>
</g>
<!-- prop_float -->
<g id="node10" class="node">
<title>prop_float</title>
<polygon fill="none" stroke="turquoise" stroke-width="2" points="24,-743.5 24,-801.5 182,-801.5 182,-743.5 24,-743.5"/>
<text text-anchor="start" x="58.5" y="-783.6" font-family="arial" font-weight="bold" font-size="18.00" fill="turquoise">prop_float</text>
<polyline fill="none" stroke="turquoise" stroke-width="2" points="24,-772.5 182,-772.5 "/>
<text text-anchor="start" x="64" y="-754.6" font-family="arial" font-size="18.00" fill="turquoise">+ val </text>
<text text-anchor="start" x="108" y="-754.6" font-family="arial" font-style="italic" font-size="18.00" fill="grey">float</text>
</g>
<!-- prop_float&#45;&gt;propriete -->
<g id="edge12" class="edge">
<title>prop_float&#45;&gt;propriete</title>
<path fill="none" stroke="turquoise" stroke-dasharray="5,2" d="M134.16,-743.19C153.07,-726.02 177.54,-703.78 198.68,-684.57"/>
<polygon fill="none" stroke="turquoise" points="201.26,-686.97 206.31,-677.65 196.55,-681.78 201.26,-686.97"/>
</g>
<!-- phrase -->
<g id="node12" class="node">
<title>phrase</title>
<polygon fill="none" stroke="blue" stroke-width="2" points="1135,-481.5 1135,-539.5 1293,-539.5 1293,-481.5 1135,-481.5"/>
<text text-anchor="start" x="1184.5" y="-521.6" font-family="arial" font-weight="bold" font-size="18.00" fill="blue">phrase</text>
<polyline fill="none" stroke="blue" stroke-width="2" points="1135,-510.5 1293,-510.5 "/>
<text text-anchor="start" x="1211" y="-491.6" font-family="arial" font-size="18.00" fill="blue"> </text>
</g>
<!-- segment&#45;&gt;phrase -->
<g id="edge14" class="edge">
<title>segment&#45;&gt;phrase</title>
<path fill="none" stroke="blue" stroke-dasharray="5,2" d="M957.74,-607.32C1013.92,-586.31 1085.75,-559.45 1139.06,-539.52"/>
<polygon fill="blue" stroke="blue" points="956.29,-604.12 948.15,-610.9 958.74,-610.68 956.29,-604.12"/>
</g>
<!-- span -->
<g id="node13" class="node">
<title>span</title>
<polygon fill="none" stroke="blue" stroke-width="2" points="675,-481.5 675,-539.5 833,-539.5 833,-481.5 675,-481.5"/>
<text text-anchor="start" x="732.5" y="-521.6" font-family="arial" font-weight="bold" font-size="18.00" fill="blue">span</text>
<polyline fill="none" stroke="blue" stroke-width="2" points="675,-510.5 833,-510.5 "/>
<text text-anchor="start" x="704" y="-492.6" font-family="arial" font-size="18.00" fill="blue">+ attrs </text>
<text text-anchor="start" x="761" y="-492.6" font-family="arial" font-style="italic" font-size="18.00" fill="grey">jsonb</text>
</g>
<!-- segment&#45;&gt;span -->
<g id="edge15" class="edge">
<title>segment&#45;&gt;span</title>
<path fill="none" stroke="blue" stroke-dasharray="5,2" d="M824.38,-590.45C808.99,-573.18 792.3,-554.46 779.04,-539.59"/>
<polygon fill="blue" stroke="blue" points="822.08,-593.13 831.34,-598.26 827.3,-588.47 822.08,-593.13"/>
</g>
<!-- token -->
<g id="node14" class="node">
<title>token</title>
<polygon fill="none" stroke="blue" stroke-width="2" points="905,-481.5 905,-539.5 1063,-539.5 1063,-481.5 905,-481.5"/>
<text text-anchor="start" x="959.5" y="-521.6" font-family="arial" font-weight="bold" font-size="18.00" fill="blue">token</text>
<polyline fill="none" stroke="blue" stroke-width="2" points="905,-510.5 1063,-510.5 "/>
<text text-anchor="start" x="928.5" y="-492.6" font-family="arial" font-size="18.00" fill="blue">+ num </text>
<text text-anchor="start" x="984.5" y="-492.6" font-family="arial" font-style="italic" font-size="18.00" fill="grey">integer</text>
</g>
<!-- segment&#45;&gt;token -->
<g id="edge16" class="edge">
<title>segment&#45;&gt;token</title>
<path fill="none" stroke="blue" stroke-dasharray="5,2" d="M913.62,-590.45C929.01,-573.18 945.7,-554.46 958.96,-539.59"/>
<polygon fill="blue" stroke="blue" points="910.7,-588.47 906.66,-598.26 915.92,-593.13 910.7,-588.47"/>
</g>
<!-- mot -->
<g id="node15" class="node">
<title>mot</title>
<polygon fill="none" stroke="blue" stroke-width="2" points="905,-336.5 905,-422.5 1063,-422.5 1063,-336.5 905,-336.5"/>
<text text-anchor="start" x="967" y="-406.1" font-family="arial" font-weight="bold" font-size="18.00" fill="blue">mot</text>
<polyline fill="none" stroke="blue" stroke-width="2" points="905,-396.5 1063,-396.5 "/>
<text text-anchor="start" x="911" y="-380.1" font-family="arial" font-size="18.00" fill="blue">_ </text>
<text text-anchor="start" x="927" y="-380.1" font-family="arial" font-size="18.00" fill="skyblue">lexeme</text>
<text text-anchor="start" x="985" y="-380.1" font-family="arial" font-size="18.00" fill="blue"> </text>
<text text-anchor="start" x="991" y="-380.1" font-family="arial" font-style="italic" font-size="18.00" fill="grey">int</text>
<text text-anchor="start" x="911" y="-362.1" font-family="arial" font-size="18.00" fill="blue">_ </text>
<text text-anchor="start" x="927" y="-362.1" font-family="arial" font-size="18.00" fill="violet">fonction</text>
<text text-anchor="start" x="990" y="-362.1" font-family="arial" font-size="18.00" fill="blue"> </text>
<text text-anchor="start" x="996" y="-362.1" font-family="arial" font-style="italic" font-size="18.00" fill="grey">smallint</text>
<text text-anchor="start" x="911" y="-344.1" font-family="arial" font-size="18.00" fill="blue">+ noyau </text>
<text text-anchor="start" x="981" y="-344.1" font-family="arial" font-style="italic" font-size="18.00" fill="grey">integer</text>
</g>
<!-- token&#45;&gt;mot -->
<g id="edge17" class="edge">
<title>token&#45;&gt;mot</title>
<path fill="none" stroke="blue" stroke-dasharray="5,2" d="M984,-471.12C984,-455.97 984,-438.5 984,-422.96"/>
<polygon fill="blue" stroke="blue" points="980.5,-471.19 984,-481.19 987.5,-471.19 980.5,-471.19"/>
</g>
<!-- lexeme -->
<g id="node17" class="node">
<title>lexeme</title>
<polygon fill="none" stroke="skyblue" stroke-width="2" points="905,-154.5 905,-284.5 1063,-284.5 1063,-154.5 905,-154.5"/>
<text text-anchor="start" x="953.5" y="-266.1" font-family="arial" font-weight="bold" font-size="18.00" fill="skyblue">lexeme</text>
<polyline fill="none" stroke="skyblue" stroke-width="2" points="905,-254.5 1063,-254.5 "/>
<text text-anchor="start" x="917" y="-236.1" font-family="arial" font-size="18.00" fill="skyblue">+ </text>
<text text-anchor="start" x="933" y="-236.1" font-family="arial" text-decoration="underline" font-size="18.00" fill="skyblue">id</text>
<text text-anchor="start" x="947" y="-236.1" font-family="arial" font-size="18.00" fill="skyblue"> </text>
<text text-anchor="start" x="953" y="-236.1" font-family="arial" font-style="italic" font-size="18.00" fill="grey">int</text>
<text text-anchor="start" x="917" y="-218.1" font-family="arial" font-size="18.00" fill="skyblue">+ </text>
<text text-anchor="start" x="933" y="-218.1" font-family="arial" font-size="18.00" fill="skyblue">norme</text>
<text text-anchor="start" x="984" y="-218.1" font-family="arial" font-size="18.00" fill="skyblue"> </text>
<text text-anchor="start" x="990" y="-218.1" font-family="arial" font-style="italic" font-size="18.00" fill="grey">text</text>
<text text-anchor="start" x="917" y="-200.1" font-family="arial" font-size="18.00" fill="skyblue">_ </text>
<text text-anchor="start" x="933" y="-200.1" font-family="arial" font-size="18.00" fill="violet">lemme</text>
<text text-anchor="start" x="987" y="-200.1" font-family="arial" font-size="18.00" fill="skyblue"> </text>
<text text-anchor="start" x="993" y="-200.1" font-family="arial" font-style="italic" font-size="18.00" fill="grey">int</text>
<text text-anchor="start" x="917" y="-182.1" font-family="arial" font-size="18.00" fill="skyblue">_ </text>
<text text-anchor="start" x="933" y="-182.1" font-family="arial" font-size="18.00" fill="violet">nature</text>
<text text-anchor="start" x="984" y="-182.1" font-family="arial" font-size="18.00" fill="skyblue"> </text>
<text text-anchor="start" x="990" y="-182.1" font-family="arial" font-style="italic" font-size="18.00" fill="grey">smallint</text>
<text text-anchor="start" x="917" y="-164.1" font-family="arial" font-size="18.00" fill="skyblue">_ </text>
<text text-anchor="start" x="933" y="-164.1" font-family="arial" font-size="18.00" fill="violet">morph</text>
<text text-anchor="start" x="984" y="-164.1" font-family="arial" font-size="18.00" fill="skyblue"> </text>
<text text-anchor="start" x="990" y="-164.1" font-family="arial" font-style="italic" font-size="18.00" fill="grey">smallint</text>
</g>
<!-- mot&#45;&gt;lexeme -->
<g id="edge18" class="edge">
<title>mot&#45;&gt;lexeme</title>
<path fill="none" stroke="skyblue" d="M984,-336.16C984,-323.43 984,-309.08 984,-294.92"/>
<polygon fill="skyblue" stroke="skyblue" points="987.5,-294.67 984,-284.67 980.5,-294.67 987.5,-294.67"/>
<text text-anchor="middle" x="1014" y="-306.8" font-family="arial" font-size="14.00" fill="skyblue">a_lexeme</text>
</g>
<!-- fonction -->
<g id="node19" class="node">
<title>fonction</title>
<polygon fill="none" stroke="violet" stroke-width="2" points="1135,-183.5 1135,-255.5 1293,-255.5 1293,-183.5 1135,-183.5"/>
<text text-anchor="start" x="1177.5" y="-238.1" font-family="arial" font-weight="bold" font-size="18.00" fill="violet">fonction</text>
<polyline fill="none" stroke="violet" stroke-width="2" points="1135,-227.5 1293,-227.5 "/>
<text text-anchor="start" x="1165.5" y="-210.1" font-family="arial" font-size="18.00" fill="violet">+ </text>
<text text-anchor="start" x="1181.5" y="-210.1" font-family="arial" text-decoration="underline" font-size="18.00" fill="violet">id</text>
<text text-anchor="start" x="1195.5" y="-210.1" font-family="arial" font-size="18.00" fill="violet"> </text>
<text text-anchor="start" x="1201.5" y="-210.1" font-family="arial" font-style="italic" font-size="18.00" fill="grey">smallint</text>
<text text-anchor="start" x="1165.5" y="-192.1" font-family="arial" font-size="18.00" fill="violet">+ </text>
<text text-anchor="start" x="1181.5" y="-192.1" font-family="arial" font-size="18.00" fill="violet">nom</text>
<text text-anchor="start" x="1216.5" y="-192.1" font-family="arial" font-size="18.00" fill="violet"> </text>
<text text-anchor="start" x="1222.5" y="-192.1" font-family="arial" font-style="italic" font-size="18.00" fill="grey">text</text>
</g>
<!-- mot&#45;&gt;fonction -->
<g id="edge19" class="edge">
<title>mot&#45;&gt;fonction</title>
<path fill="none" stroke="violet" d="M1045.33,-336.37C1079.19,-313.11 1121.05,-284.35 1154.6,-261.31"/>
<polygon fill="violet" stroke="violet" points="1156.68,-264.12 1162.94,-255.58 1152.72,-258.35 1156.68,-264.12"/>
<text text-anchor="middle" x="1123.5" y="-306.8" font-family="arial" font-size="14.00" fill="violet">a_fonction</text>
</g>
<!-- lemme -->
<g id="node16" class="node">
<title>lemme</title>
<polygon fill="none" stroke="violet" stroke-width="2" points="675,-16.5 675,-102.5 833,-102.5 833,-16.5 675,-16.5"/>
<text text-anchor="start" x="725.5" y="-86.1" font-family="arial" font-weight="bold" font-size="18.00" fill="violet">lemme</text>
<polyline fill="none" stroke="violet" stroke-width="2" points="675,-76.5 833,-76.5 "/>
<text text-anchor="start" x="693.5" y="-60.1" font-family="arial" font-size="18.00" fill="violet">+ </text>
<text text-anchor="start" x="709.5" y="-60.1" font-family="arial" text-decoration="underline" font-size="18.00" fill="violet">id</text>
<text text-anchor="start" x="723.5" y="-60.1" font-family="arial" font-size="18.00" fill="violet"> </text>
<text text-anchor="start" x="729.5" y="-60.1" font-family="arial" font-style="italic" font-size="18.00" fill="grey">int</text>
<text text-anchor="start" x="693.5" y="-42.1" font-family="arial" font-size="18.00" fill="violet">+ </text>
<text text-anchor="start" x="709.5" y="-42.1" font-family="arial" font-size="18.00" fill="violet">graphie</text>
<text text-anchor="start" x="768.5" y="-42.1" font-family="arial" font-size="18.00" fill="violet"> </text>
<text text-anchor="start" x="774.5" y="-42.1" font-family="arial" font-style="italic" font-size="18.00" fill="grey">texte</text>
<text text-anchor="start" x="693.5" y="-24.1" font-family="arial" font-size="18.00" fill="violet">+ </text>
<text text-anchor="start" x="709.5" y="-24.1" font-family="arial" font-size="18.00" fill="violet">vec</text>
<text text-anchor="start" x="737.5" y="-24.1" font-family="arial" font-size="18.00" fill="violet"> </text>
<text text-anchor="start" x="743.5" y="-24.1" font-family="arial" font-style="italic" font-size="18.00" fill="grey">pgvector</text>
</g>
<!-- lexeme&#45;&gt;lemme -->
<g id="edge20" class="edge">
<title>lexeme&#45;&gt;lemme</title>
<path fill="none" stroke="violet" d="M904.85,-164.13C878.58,-146.08 849.54,-126.13 824.01,-108.59"/>
<polygon fill="violet" stroke="violet" points="825.72,-105.52 815.5,-102.75 821.76,-111.29 825.72,-105.52"/>
<text text-anchor="middle" x="891" y="-124.8" font-family="arial" font-size="14.00" fill="violet">a_lemme</text>
</g>
<!-- nature -->
<g id="node18" class="node">
<title>nature</title>
<polygon fill="none" stroke="violet" stroke-width="2" points="905,-23.5 905,-95.5 1063,-95.5 1063,-23.5 905,-23.5"/>
<text text-anchor="start" x="956.5" y="-78.1" font-family="arial" font-weight="bold" font-size="18.00" fill="violet">nature</text>
<polyline fill="none" stroke="violet" stroke-width="2" points="905,-67.5 1063,-67.5 "/>
<text text-anchor="start" x="935.5" y="-50.1" font-family="arial" font-size="18.00" fill="violet">+ </text>
<text text-anchor="start" x="951.5" y="-50.1" font-family="arial" text-decoration="underline" font-size="18.00" fill="violet">id</text>
<text text-anchor="start" x="965.5" y="-50.1" font-family="arial" font-size="18.00" fill="violet"> </text>
<text text-anchor="start" x="971.5" y="-50.1" font-family="arial" font-style="italic" font-size="18.00" fill="grey">smallint</text>
<text text-anchor="start" x="935.5" y="-32.1" font-family="arial" font-size="18.00" fill="violet">+ </text>
<text text-anchor="start" x="951.5" y="-32.1" font-family="arial" font-size="18.00" fill="violet">nom</text>
<text text-anchor="start" x="986.5" y="-32.1" font-family="arial" font-size="18.00" fill="violet"> </text>
<text text-anchor="start" x="992.5" y="-32.1" font-family="arial" font-style="italic" font-size="18.00" fill="grey">text</text>
</g>
<!-- lexeme&#45;&gt;nature -->
<g id="edge21" class="edge">
<title>lexeme&#45;&gt;nature</title>
<path fill="none" stroke="violet" d="M984,-154.24C984,-137.99 984,-120.89 984,-105.8"/>
<polygon fill="violet" stroke="violet" points="987.5,-105.71 984,-95.71 980.5,-105.71 987.5,-105.71"/>
<text text-anchor="middle" x="1011" y="-124.8" font-family="arial" font-size="14.00" fill="violet">a_nature</text>
</g>
<!-- morph -->
<g id="node20" class="node">
<title>morph</title>
<polygon fill="none" stroke="violet" stroke-width="2" points="1135,-23.5 1135,-95.5 1293,-95.5 1293,-23.5 1135,-23.5"/>
<text text-anchor="start" x="1185.5" y="-78.1" font-family="arial" font-weight="bold" font-size="18.00" fill="violet">morph</text>
<polyline fill="none" stroke="violet" stroke-width="2" points="1135,-67.5 1293,-67.5 "/>
<text text-anchor="start" x="1165.5" y="-50.1" font-family="arial" font-size="18.00" fill="violet">+ </text>
<text text-anchor="start" x="1181.5" y="-50.1" font-family="arial" text-decoration="underline" font-size="18.00" fill="violet">id</text>
<text text-anchor="start" x="1195.5" y="-50.1" font-family="arial" font-size="18.00" fill="violet"> </text>
<text text-anchor="start" x="1201.5" y="-50.1" font-family="arial" font-style="italic" font-size="18.00" fill="grey">smallint</text>
<text text-anchor="start" x="1165.5" y="-32.1" font-family="arial" font-size="18.00" fill="violet">+ </text>
<text text-anchor="start" x="1181.5" y="-32.1" font-family="arial" font-size="18.00" fill="violet">feats</text>
<text text-anchor="start" x="1221.5" y="-32.1" font-family="arial" font-size="18.00" fill="violet"> </text>
<text text-anchor="start" x="1227.5" y="-32.1" font-family="arial" font-style="italic" font-size="18.00" fill="grey">text</text>
</g>
<!-- lexeme&#45;&gt;morph -->
<g id="edge22" class="edge">
<title>lexeme&#45;&gt;morph</title>
<path fill="none" stroke="violet" d="M1063.15,-164.13C1093.06,-143.58 1126.57,-120.56 1154.39,-101.45"/>
<polygon fill="violet" stroke="violet" points="1156.57,-104.2 1162.84,-95.65 1152.61,-98.43 1156.57,-104.2"/>
<text text-anchor="middle" x="1146.5" y="-124.8" font-family="arial" font-size="14.00" fill="violet">a_morph</text>
</g>
</g>
</svg>
