<?xml version="1.0" encoding="UTF-8" standalone="no"?>
<!DOCTYPE svg PUBLIC "-//W3C//DTD SVG 1.1//EN"
 "http://www.w3.org/Graphics/SVG/1.1/DTD/svg11.dtd">
<!-- Generated by graphviz version 2.43.0 (0)
 -->
<!-- Title: %3 Pages: 1 -->
<svg width="1316pt" height="980pt"
 viewBox="0.00 0.00 1316.00 980.00" xmlns="http://www.w3.org/2000/svg" xmlns:xlink="http://www.w3.org/1999/xlink">
<g id="graph0" class="graph" transform="scale(1 1) rotate(0) translate(4 976)">
<title>%3</title>
<polygon fill="white" stroke="transparent" points="-4,4 -4,-976 1312,-976 1312,4 -4,4"/>
<g id="clust1" class="cluster">
<title>cluster_eav</title>
<polygon fill="none" stroke="turquoise" stroke-dasharray="1,5" points="8,-328 8,-964 658,-964 658,-328 8,-328"/>
</g>
<g id="clust3" class="cluster">
<title>cluster_prop</title>
<polygon fill="none" stroke="lightgrey" stroke-dasharray="1,5" points="16,-867 16,-956 650,-956 650,-867 16,-867"/>
</g>
<g id="clust4" class="cluster">
<title>cluster_nlp</title>
<polygon fill="none" stroke="violet" stroke-dasharray="1,5" points="666,-8 666,-832 1300,-832 1300,-8 666,-8"/>
</g>
<!-- classe -->
<g id="node1" class="node">
<title>classe</title>
<polygon fill="none" stroke="orange" points="246,-482 246,-540 404,-540 404,-482 246,-482"/>
<text text-anchor="start" x="297.5" y="-522.1" font-family="arial" font-weight="bold" font-size="18.00" fill="orange">classe</text>
<polyline fill="none" stroke="orange" points="246,-511 404,-511 "/>
<text text-anchor="start" x="276.5" y="-493.1" font-family="arial" font-size="18.00" fill="orange">+ </text>
<text text-anchor="start" x="292.5" y="-493.1" font-family="arial" text-decoration="underline" font-size="18.00" fill="orange">id</text>
<text text-anchor="start" x="306.5" y="-493.1" font-family="arial" font-size="18.00" fill="orange"> </text>
<text text-anchor="start" x="312.5" y="-493.1" font-family="arial" font-style="italic" font-size="18.00" fill="grey">smallint</text>
</g>
<!-- concept -->
<g id="node7" class="node">
<title>concept</title>
<polygon fill="none" stroke="orange" points="253,-336.5 253,-422.5 397,-422.5 397,-336.5 253,-336.5"/>
<text text-anchor="start" x="290" y="-401.6" font-family="arial" font-weight="bold" font-size="18.00" fill="orange">concept</text>
<polyline fill="none" stroke="orange" points="253,-387.5 397,-387.5 "/>
<text text-anchor="start" x="264" y="-366.6" font-family="arial" font-size="18.00" fill="orange">+ nom </text>
<text text-anchor="start" x="320" y="-366.6" font-family="arial" font-style="italic" font-size="18.00" fill="grey">text</text>
<text text-anchor="start" x="264" y="-348.6" font-family="arial" font-size="18.00" fill="orange">+ définition </text>
<text text-anchor="start" x="356" y="-348.6" font-family="arial" font-style="italic" font-size="18.00" fill="grey">text</text>
</g>
<!-- classe&#45;&gt;concept -->
<g id="edge1" class="edge">
<title>classe&#45;&gt;concept</title>
<path fill="none" stroke="orange" stroke-dasharray="5,2" d="M325,-481.9C325,-467.61 325,-449.76 325,-433.05"/>
<polygon fill="none" stroke="orange" points="328.5,-432.82 325,-422.82 321.5,-432.82 328.5,-432.82"/>
</g>
<!-- type_relation -->
<g id="node2" class="node">
<title>type_relation</title>
<polygon fill="none" stroke="orange" points="16,-482 16,-540 174,-540 174,-482 16,-482"/>
<text text-anchor="start" x="39" y="-522.1" font-family="arial" font-weight="bold" font-size="18.00" fill="orange">type_relation</text>
<polyline fill="none" stroke="orange" points="16,-511 174,-511 "/>
<text text-anchor="start" x="46.5" y="-493.1" font-family="arial" font-size="18.00" fill="orange">+ </text>
<text text-anchor="start" x="62.5" y="-493.1" font-family="arial" text-decoration="underline" font-size="18.00" fill="orange">id</text>
<text text-anchor="start" x="76.5" y="-493.1" font-family="arial" font-size="18.00" fill="orange"> </text>
<text text-anchor="start" x="82.5" y="-493.1" font-family="arial" font-style="italic" font-size="18.00" fill="grey">smallint</text>
</g>
<!-- type_relation&#45;&gt;concept -->
<g id="edge3" class="edge">
<title>type_relation&#45;&gt;concept</title>
<path fill="none" stroke="orange" stroke-dasharray="5,2" d="M144.91,-481.9C173.89,-465.58 211.11,-444.63 244.17,-426.01"/>
<polygon fill="none" stroke="orange" points="245.93,-429.04 252.93,-421.08 242.5,-422.94 245.93,-429.04"/>
</g>
<!-- type_propriete -->
<g id="node3" class="node">
<title>type_propriete</title>
<polygon fill="none" stroke="orange" points="476,-482 476,-540 634,-540 634,-482 476,-482"/>
<text text-anchor="start" x="492.5" y="-522.1" font-family="arial" font-weight="bold" font-size="18.00" fill="orange">type_propriete</text>
<polyline fill="none" stroke="orange" points="476,-511 634,-511 "/>
<text text-anchor="start" x="506.5" y="-493.1" font-family="arial" font-size="18.00" fill="orange">+ </text>
<text text-anchor="start" x="522.5" y="-493.1" font-family="arial" text-decoration="underline" font-size="18.00" fill="orange">id</text>
<text text-anchor="start" x="536.5" y="-493.1" font-family="arial" font-size="18.00" fill="orange"> </text>
<text text-anchor="start" x="542.5" y="-493.1" font-family="arial" font-style="italic" font-size="18.00" fill="grey">smallint</text>
</g>
<!-- type_propriete&#45;&gt;concept -->
<g id="edge2" class="edge">
<title>type_propriete&#45;&gt;concept</title>
<path fill="none" stroke="orange" stroke-dasharray="5,2" d="M505.09,-481.9C476.11,-465.58 438.89,-444.63 405.83,-426.01"/>
<polygon fill="none" stroke="orange" points="407.5,-422.94 397.07,-421.08 404.07,-429.04 407.5,-422.94"/>
</g>
<!-- entite -->
<g id="node4" class="node">
<title>entite</title>
<polygon fill="none" stroke="black" stroke-width="2" points="242,-613.5 242,-685.5 400,-685.5 400,-613.5 242,-613.5"/>
<text text-anchor="start" x="296.5" y="-668.1" font-family="arial" font-weight="bold" font-size="18.00">entite</text>
<polyline fill="none" stroke="black" stroke-width="2" points="242,-657.5 400,-657.5 "/>
<text text-anchor="start" x="254" y="-640.1" font-family="arial" font-size="18.00">+ </text>
<text text-anchor="start" x="270" y="-640.1" font-family="arial" text-decoration="underline" font-size="18.00">id</text>
<text text-anchor="start" x="284" y="-640.1" font-family="arial" font-size="18.00"> </text>
<text text-anchor="start" x="290" y="-640.1" font-family="arial" font-style="italic" font-size="18.00" fill="grey">int</text>
<text text-anchor="start" x="254" y="-622.1" font-family="arial" font-size="18.00">_ </text>
<text text-anchor="start" x="270" y="-622.1" font-family="arial" font-size="18.00" fill="orange">classe</text>
<text text-anchor="start" x="321" y="-622.1" font-family="arial" font-size="18.00"> </text>
<text text-anchor="start" x="327" y="-622.1" font-family="arial" font-style="italic" font-size="18.00" fill="grey">smallint</text>
</g>
<!-- entite&#45;&gt;classe -->
<g id="edge5" class="edge">
<title>entite&#45;&gt;classe</title>
<path fill="none" stroke="orange" d="M322.03,-613.35C322.6,-594.06 323.3,-570.13 323.88,-550.36"/>
<polygon fill="orange" stroke="orange" points="327.38,-550.26 324.17,-540.16 320.38,-550.05 327.38,-550.26"/>
<text text-anchor="middle" x="372.5" y="-583.8" font-family="arial" font-size="14.00" fill="orange">est_instance_de</text>
</g>
<!-- relation -->
<g id="node5" class="node">
<title>relation</title>
<polygon fill="none" stroke="black" stroke-width="2" points="106,-737.5 106,-823.5 264,-823.5 264,-737.5 106,-737.5"/>
<text text-anchor="start" x="152" y="-807.1" font-family="arial" font-weight="bold" font-size="18.00">relation</text>
<polyline fill="none" stroke="black" stroke-width="2" points="106,-797.5 264,-797.5 "/>
<text text-anchor="start" x="126.5" y="-781.1" font-family="arial" font-size="18.00">_ </text>
<text text-anchor="start" x="142.5" y="-781.1" font-family="arial" font-size="18.00" fill="orange">type</text>
<text text-anchor="start" x="176.5" y="-781.1" font-family="arial" font-size="18.00"> </text>
<text text-anchor="start" x="182.5" y="-781.1" font-family="arial" font-style="italic" font-size="18.00" fill="grey">smallint</text>
<text text-anchor="start" x="126.5" y="-763.1" font-family="arial" font-size="18.00">_ sujet </text>
<text text-anchor="start" x="184.5" y="-763.1" font-family="arial" font-style="italic" font-size="18.00" fill="grey">int</text>
<text text-anchor="start" x="126.5" y="-745.1" font-family="arial" font-size="18.00">_ objet </text>
<text text-anchor="start" x="185.5" y="-745.1" font-family="arial" font-style="italic" font-size="18.00" fill="grey">int</text>
</g>
<!-- relation&#45;&gt;type_relation -->
<g id="edge4" class="edge">
<title>relation&#45;&gt;type_relation</title>
<path fill="none" stroke="orange" d="M167.84,-737.33C165.48,-731.21 163.13,-724.96 161,-719 140.13,-660.59 118.84,-591.81 106.28,-550.08"/>
<polygon fill="orange" stroke="orange" points="109.58,-548.9 103.36,-540.33 102.88,-550.91 109.58,-548.9"/>
<text text-anchor="middle" x="169.5" y="-645.8" font-family="arial" font-size="14.00" fill="orange">a_type</text>
</g>
<!-- relation&#45;&gt;entite -->
<g id="edge7" class="edge">
<title>relation&#45;&gt;entite</title>
<path fill="none" stroke="black" d="M229.53,-737.26C244.71,-722.86 261.67,-706.78 276.82,-692.41"/>
<polygon fill="black" stroke="black" points="279.25,-694.93 284.1,-685.5 274.43,-689.85 279.25,-694.93"/>
<text text-anchor="middle" x="283.5" y="-707.8" font-family="arial" font-size="14.00">a_objet</text>
</g>
<!-- relation&#45;&gt;entite -->
<g id="edge8" class="edge">
<title>relation&#45;&gt;entite</title>
<path fill="none" stroke="black" d="M177.27,-737.3C177.24,-725.66 179.38,-713.61 186,-704 197.26,-687.66 214.35,-676.31 232.63,-668.43"/>
<polygon fill="black" stroke="black" points="233.97,-671.66 241.98,-664.72 231.39,-665.16 233.97,-671.66"/>
<text text-anchor="middle" x="208" y="-707.8" font-family="arial" font-size="14.00">a_sujet</text>
</g>
<!-- propriete -->
<g id="node6" class="node">
<title>propriete</title>
<polygon fill="none" stroke="black" stroke-width="2" points="349,-744.5 349,-816.5 507,-816.5 507,-744.5 349,-744.5"/>
<text text-anchor="start" x="388.5" y="-799.1" font-family="arial" font-weight="bold" font-size="18.00">propriété</text>
<polyline fill="none" stroke="black" stroke-width="2" points="349,-788.5 507,-788.5 "/>
<text text-anchor="start" x="369.5" y="-771.1" font-family="arial" font-size="18.00">_ </text>
<text text-anchor="start" x="385.5" y="-771.1" font-family="arial" font-size="18.00" fill="orange">type</text>
<text text-anchor="start" x="419.5" y="-771.1" font-family="arial" font-size="18.00"> </text>
<text text-anchor="start" x="425.5" y="-771.1" font-family="arial" font-style="italic" font-size="18.00" fill="grey">smallint</text>
<text text-anchor="start" x="369.5" y="-753.1" font-family="arial" font-size="18.00">_ entite </text>
<text text-anchor="start" x="433.5" y="-753.1" font-family="arial" font-style="italic" font-size="18.00" fill="grey">int</text>
</g>
<!-- propriete&#45;&gt;type_propriete -->
<g id="edge6" class="edge">
<title>propriete&#45;&gt;type_propriete</title>
<path fill="none" stroke="orange" d="M444.73,-744.25C468.7,-693.77 512.62,-601.27 537.18,-549.54"/>
<polygon fill="orange" stroke="orange" points="540.4,-550.91 541.53,-540.38 534.08,-547.91 540.4,-550.91"/>
<text text-anchor="middle" x="526.5" y="-645.8" font-family="arial" font-size="14.00" fill="orange">a_type</text>
</g>
<!-- propriete&#45;&gt;entite -->
<g id="edge9" class="edge">
<title>propriete&#45;&gt;entite</title>
<path fill="none" stroke="black" d="M398.76,-744.25C385.79,-728.61 370.4,-710.05 356.75,-693.6"/>
<polygon fill="black" stroke="black" points="359.28,-691.17 350.2,-685.71 353.89,-695.64 359.28,-691.17"/>
<text text-anchor="middle" x="398.5" y="-707.8" font-family="arial" font-size="14.00">qualifie</text>
</g>
<!-- texte -->
<g id="node8" class="node">
<title>texte</title>
<polygon fill="none" stroke="turquoise" stroke-width="2" points="484,-875.5 484,-947.5 642,-947.5 642,-875.5 484,-875.5"/>
<text text-anchor="start" x="542" y="-930.1" font-family="arial" font-weight="bold" font-size="18.00" fill="turquoise">texte</text>
<polyline fill="none" stroke="turquoise" stroke-width="2" points="484,-919.5 642,-919.5 "/>
<text text-anchor="start" x="526" y="-902.1" font-family="arial" font-size="18.00" fill="turquoise">+id </text>
<text text-anchor="start" x="556" y="-902.1" font-family="arial" font-size="18.00" fill="turquoise">id</text>
<text text-anchor="start" x="570" y="-902.1" font-family="arial" font-size="18.00" fill="turquoise"> </text>
<text text-anchor="start" x="576" y="-902.1" font-family="arial" font-style="italic" font-size="18.00" fill="grey">int</text>
<text text-anchor="start" x="526" y="-884.1" font-family="arial" font-size="18.00" fill="turquoise">+ val </text>
<text text-anchor="start" x="570" y="-884.1" font-family="arial" font-style="italic" font-size="18.00" fill="grey">text</text>
</g>
<!-- texte&#45;&gt;propriete -->
<g id="edge10" class="edge">
<title>texte&#45;&gt;propriete</title>
<path fill="none" stroke="turquoise" stroke-dasharray="5,2" d="M526.11,-875.25C509.44,-859.32 489.62,-840.38 472.16,-823.7"/>
<polygon fill="none" stroke="turquoise" points="474.49,-821.09 464.84,-816.71 469.66,-826.15 474.49,-821.09"/>
</g>
<!-- segment -->
<g id="node11" class="node">
<title>segment</title>
<polygon fill="none" stroke="mediumvioletred" stroke-width="2" points="674,-737.5 674,-823.5 832,-823.5 832,-737.5 674,-737.5"/>
<text text-anchor="start" x="716" y="-807.1" font-family="arial" font-weight="bold" font-size="18.00" fill="mediumvioletred">segment</text>
<polyline fill="none" stroke="mediumvioletred" stroke-width="2" points="674,-797.5 832,-797.5 "/>
<text text-anchor="start" x="698.5" y="-781.1" font-family="arial" font-size="18.00" fill="mediumvioletred">_ </text>
<text text-anchor="start" x="714.5" y="-781.1" font-family="arial" font-size="18.00" fill="turquoise">texte</text>
<text text-anchor="start" x="754.5" y="-781.1" font-family="arial" font-size="18.00" fill="mediumvioletred"> </text>
<text text-anchor="start" x="760.5" y="-781.1" font-family="arial" font-style="italic" font-size="18.00" fill="grey">int</text>
<text text-anchor="start" x="698.5" y="-763.1" font-family="arial" font-size="18.00" fill="mediumvioletred">+ debut </text>
<text text-anchor="start" x="764.5" y="-763.1" font-family="arial" font-style="italic" font-size="18.00" fill="grey">int</text>
<text text-anchor="start" x="698.5" y="-745.1" font-family="arial" font-size="18.00" fill="mediumvioletred">+ longueur </text>
<text text-anchor="start" x="788.5" y="-745.1" font-family="arial" font-style="italic" font-size="18.00" fill="grey">int</text>
</g>
<!-- texte&#45;&gt;segment -->
<g id="edge13" class="edge">
<title>texte&#45;&gt;segment</title>
<path fill="none" stroke="turquoise" d="M623.11,-869.69C644.71,-855.03 669.1,-838.47 690.86,-823.69"/>
<polygon fill="turquoise" stroke="turquoise" points="620.97,-866.91 614.67,-875.42 624.91,-872.7 620.97,-866.91"/>
<text text-anchor="middle" x="690.5" y="-845.8" font-family="arial" font-size="14.00" fill="turquoise">est_dans</text>
</g>
<!-- prop_date -->
<g id="node9" class="node">
<title>prop_date</title>
<polygon fill="none" stroke="turquoise" stroke-width="2" points="254,-882.5 254,-940.5 412,-940.5 412,-882.5 254,-882.5"/>
<text text-anchor="start" x="289" y="-922.6" font-family="arial" font-weight="bold" font-size="18.00" fill="turquoise">prop_date</text>
<polyline fill="none" stroke="turquoise" stroke-width="2" points="254,-911.5 412,-911.5 "/>
<text text-anchor="start" x="269.5" y="-893.6" font-family="arial" font-size="18.00" fill="turquoise">+ val </text>
<text text-anchor="start" x="313.5" y="-893.6" font-family="arial" font-style="italic" font-size="18.00" fill="grey">timestamp</text>
</g>
<!-- prop_date&#45;&gt;propriete -->
<g id="edge11" class="edge">
<title>prop_date&#45;&gt;propriete</title>
<path fill="none" stroke="turquoise" stroke-dasharray="5,2" d="M353.85,-882.19C366.22,-865.39 382.15,-843.75 396.08,-824.84"/>
<polygon fill="none" stroke="turquoise" points="399,-826.78 402.11,-816.65 393.37,-822.63 399,-826.78"/>
</g>
<!-- prop_float -->
<g id="node10" class="node">
<title>prop_float</title>
<polygon fill="none" stroke="turquoise" stroke-width="2" points="24,-882.5 24,-940.5 182,-940.5 182,-882.5 24,-882.5"/>
<text text-anchor="start" x="58.5" y="-922.6" font-family="arial" font-weight="bold" font-size="18.00" fill="turquoise">prop_float</text>
<polyline fill="none" stroke="turquoise" stroke-width="2" points="24,-911.5 182,-911.5 "/>
<text text-anchor="start" x="64" y="-893.6" font-family="arial" font-size="18.00" fill="turquoise">+ val </text>
<text text-anchor="start" x="108" y="-893.6" font-family="arial" font-style="italic" font-size="18.00" fill="grey">float</text>
</g>
<!-- prop_float&#45;&gt;propriete -->
<g id="edge12" class="edge">
<title>prop_float&#45;&gt;propriete</title>
<path fill="none" stroke="turquoise" stroke-dasharray="5,2" d="M173.92,-882.35C222.54,-863.05 287.39,-837.31 339.41,-816.66"/>
<polygon fill="none" stroke="turquoise" points="340.96,-819.81 348.96,-812.87 338.38,-813.31 340.96,-819.81"/>
</g>
<!-- span -->
<g id="node12" class="node">
<title>span</title>
<polygon fill="none" stroke="mediumvioletred" stroke-width="2" points="674,-620.5 674,-678.5 832,-678.5 832,-620.5 674,-620.5"/>
<text text-anchor="start" x="731.5" y="-660.6" font-family="arial" font-weight="bold" font-size="18.00" fill="mediumvioletred">span</text>
<polyline fill="none" stroke="mediumvioletred" stroke-width="2" points="674,-649.5 832,-649.5 "/>
<text text-anchor="start" x="703" y="-631.6" font-family="arial" font-size="18.00" fill="mediumvioletred">+ attrs </text>
<text text-anchor="start" x="760" y="-631.6" font-family="arial" font-style="italic" font-size="18.00" fill="grey">jsonb</text>
</g>
<!-- segment&#45;&gt;span -->
<g id="edge15" class="edge">
<title>segment&#45;&gt;span</title>
<path fill="none" stroke="mediumvioletred" stroke-dasharray="5,2" d="M753,-727.11C753,-710.51 753,-692.79 753,-678.59"/>
<polygon fill="mediumvioletred" stroke="mediumvioletred" points="749.5,-727.26 753,-737.26 756.5,-727.26 749.5,-727.26"/>
</g>
<!-- phrase -->
<g id="node13" class="node">
<title>phrase</title>
<polygon fill="none" stroke="mediumvioletred" stroke-width="2" points="904,-613.5 904,-685.5 1062,-685.5 1062,-613.5 904,-613.5"/>
<text text-anchor="start" x="953.5" y="-668.1" font-family="arial" font-weight="bold" font-size="18.00" fill="mediumvioletred">phrase</text>
<polyline fill="none" stroke="mediumvioletred" stroke-width="2" points="904,-657.5 1062,-657.5 "/>
<text text-anchor="start" x="955.5" y="-640.1" font-family="arial" font-size="18.00" fill="mediumvioletred">+ </text>
<text text-anchor="start" x="971.5" y="-640.1" font-family="arial" text-decoration="underline" font-size="18.00" fill="mediumvioletred">id</text>
<text text-anchor="start" x="985.5" y="-640.1" font-family="arial" font-size="18.00" fill="mediumvioletred"> </text>
<text text-anchor="start" x="991.5" y="-640.1" font-family="arial" font-style="italic" font-size="18.00" fill="grey">int</text>
<text text-anchor="start" x="955.5" y="-622.1" font-family="arial" font-size="18.00" fill="mediumvioletred">+ n </text>
<text text-anchor="start" x="986.5" y="-622.1" font-family="arial" font-style="italic" font-size="18.00" fill="grey">int</text>
</g>
<!-- segment&#45;&gt;phrase -->
<g id="edge14" class="edge">
<title>segment&#45;&gt;phrase</title>
<path fill="none" stroke="mediumvioletred" stroke-dasharray="5,2" d="M836.86,-732.47C864.47,-716.98 894.67,-700.04 920.42,-685.6"/>
<polygon fill="mediumvioletred" stroke="mediumvioletred" points="835,-729.49 827.99,-737.44 838.43,-735.6 835,-729.49"/>
</g>
<!-- token -->
<g id="node14" class="node">
<title>token</title>
<polygon fill="none" stroke="blue" stroke-width="2" points="904,-460.5 904,-561.5 1062,-561.5 1062,-460.5 904,-460.5"/>
<text text-anchor="start" x="958.5" y="-545.6" font-family="arial" font-weight="bold" font-size="18.00" fill="blue">token</text>
<polyline fill="none" stroke="blue" stroke-width="2" points="904,-536.5 1062,-536.5 "/>
<text text-anchor="start" x="907.5" y="-521.1" font-family="arial" font-size="18.00" fill="blue">_ </text>
<text text-anchor="start" x="923.5" y="-521.1" font-family="arial" font-size="18.00" fill="mediumvioletred">phrase</text>
<text text-anchor="start" x="978.5" y="-521.1" font-family="arial" font-size="18.00" fill="blue"> </text>
<text text-anchor="start" x="984.5" y="-521.1" font-family="arial" font-style="italic" font-size="18.00" fill="grey">int</text>
<text text-anchor="start" x="907.5" y="-503.1" font-family="arial" font-size="18.00" fill="blue">+ n </text>
<text text-anchor="start" x="938.5" y="-503.1" font-family="arial" font-style="italic" font-size="18.00" fill="grey">smallint</text>
<text text-anchor="start" x="907.5" y="-485.1" font-family="arial" font-size="18.00" fill="blue">+ debut </text>
<text text-anchor="start" x="973.5" y="-485.1" font-family="arial" font-style="italic" font-size="18.00" fill="grey">int</text>
<text text-anchor="start" x="907.5" y="-467.1" font-family="arial" font-size="18.00" fill="blue">+ longueur </text>
<text text-anchor="start" x="997.5" y="-467.1" font-family="arial" font-style="italic" font-size="18.00" fill="grey">smallint</text>
</g>
<!-- phrase&#45;&gt;token -->
<g id="edge16" class="edge">
<title>phrase&#45;&gt;token</title>
<path fill="none" stroke="mediumvioletred" d="M983,-603.03C983,-589.77 983,-575.21 983,-561.69"/>
<polygon fill="mediumvioletred" stroke="mediumvioletred" points="979.5,-603.35 983,-613.35 986.5,-603.35 979.5,-603.35"/>
<text text-anchor="middle" x="1010.5" y="-583.8" font-family="arial" font-size="14.00" fill="mediumvioletred">est_dans</text>
</g>
<!-- ponctuation -->
<g id="node15" class="node">
<title>ponctuation</title>
<polygon fill="none" stroke="blue" stroke-width="2" points="674,-350.5 674,-408.5 832,-408.5 832,-350.5 674,-350.5"/>
<text text-anchor="start" x="700.5" y="-390.6" font-family="arial" font-weight="bold" font-size="18.00" fill="blue">ponctuation</text>
<polyline fill="none" stroke="blue" stroke-width="2" points="674,-379.5 832,-379.5 "/>
<text text-anchor="start" x="750" y="-360.6" font-family="arial" font-size="18.00" fill="blue"> </text>
</g>
<!-- token&#45;&gt;ponctuation -->
<g id="edge18" class="edge">
<title>token&#45;&gt;ponctuation</title>
<path fill="none" stroke="blue" stroke-dasharray="5,2" d="M895.11,-460.52C863.85,-442.91 829.75,-423.71 802.79,-408.53"/>
<polygon fill="blue" stroke="blue" points="893.42,-463.58 903.85,-465.43 896.85,-457.48 893.42,-463.58"/>
</g>
<!-- mot -->
<g id="node16" class="node">
<title>mot</title>
<polygon fill="none" stroke="blue" stroke-width="2" points="904,-336.5 904,-422.5 1062,-422.5 1062,-336.5 904,-336.5"/>
<text text-anchor="start" x="966" y="-406.1" font-family="arial" font-weight="bold" font-size="18.00" fill="blue">mot</text>
<polyline fill="none" stroke="blue" stroke-width="2" points="904,-396.5 1062,-396.5 "/>
<text text-anchor="start" x="910" y="-380.1" font-family="arial" font-size="18.00" fill="blue">_ </text>
<text text-anchor="start" x="926" y="-380.1" font-family="arial" font-size="18.00" fill="skyblue">lexeme</text>
<text text-anchor="start" x="984" y="-380.1" font-family="arial" font-size="18.00" fill="blue"> </text>
<text text-anchor="start" x="990" y="-380.1" font-family="arial" font-style="italic" font-size="18.00" fill="grey">int</text>
<text text-anchor="start" x="910" y="-362.1" font-family="arial" font-size="18.00" fill="blue">_ </text>
<text text-anchor="start" x="926" y="-362.1" font-family="arial" font-size="18.00" fill="violet">fonction</text>
<text text-anchor="start" x="989" y="-362.1" font-family="arial" font-size="18.00" fill="blue"> </text>
<text text-anchor="start" x="995" y="-362.1" font-family="arial" font-style="italic" font-size="18.00" fill="grey">smallint</text>
<text text-anchor="start" x="910" y="-344.1" font-family="arial" font-size="18.00" fill="blue">+ noyau </text>
<text text-anchor="start" x="980" y="-344.1" font-family="arial" font-style="italic" font-size="18.00" fill="grey">int</text>
</g>
<!-- token&#45;&gt;mot -->
<g id="edge17" class="edge">
<title>token&#45;&gt;mot</title>
<path fill="none" stroke="blue" stroke-dasharray="5,2" d="M983,-450.28C983,-440.97 983,-431.51 983,-422.69"/>
<polygon fill="blue" stroke="blue" points="979.5,-450.3 983,-460.3 986.5,-450.3 979.5,-450.3"/>
</g>
<!-- nombre -->
<g id="node17" class="node">
<title>nombre</title>
<polygon fill="none" stroke="blue" stroke-width="2" points="1134,-350.5 1134,-408.5 1292,-408.5 1292,-350.5 1134,-350.5"/>
<text text-anchor="start" x="1179.5" y="-390.6" font-family="arial" font-weight="bold" font-size="18.00" fill="blue">nombre</text>
<polyline fill="none" stroke="blue" stroke-width="2" points="1134,-379.5 1292,-379.5 "/>
<text text-anchor="start" x="1210" y="-360.6" font-family="arial" font-size="18.00" fill="blue"> </text>
</g>
<!-- token&#45;&gt;nombre -->
<g id="edge19" class="edge">
<title>token&#45;&gt;nombre</title>
<path fill="none" stroke="blue" stroke-dasharray="5,2" d="M1070.89,-460.52C1102.15,-442.91 1136.25,-423.71 1163.21,-408.53"/>
<polygon fill="blue" stroke="blue" points="1069.15,-457.48 1062.15,-465.43 1072.58,-463.58 1069.15,-457.48"/>
</g>
<!-- lexeme -->
<g id="node19" class="node">
<title>lexeme</title>
<polygon fill="none" stroke="skyblue" stroke-width="2" points="904,-154.5 904,-284.5 1062,-284.5 1062,-154.5 904,-154.5"/>
<text text-anchor="start" x="952.5" y="-266.1" font-family="arial" font-weight="bold" font-size="18.00" fill="skyblue">lexeme</text>
<polyline fill="none" stroke="skyblue" stroke-width="2" points="904,-254.5 1062,-254.5 "/>
<text text-anchor="start" x="916" y="-236.1" font-family="arial" font-size="18.00" fill="skyblue">+ </text>
<text text-anchor="start" x="932" y="-236.1" font-family="arial" text-decoration="underline" font-size="18.00" fill="skyblue">id</text>
<text text-anchor="start" x="946" y="-236.1" font-family="arial" font-size="18.00" fill="skyblue"> </text>
<text text-anchor="start" x="952" y="-236.1" font-family="arial" font-style="italic" font-size="18.00" fill="grey">int</text>
<text text-anchor="start" x="916" y="-218.1" font-family="arial" font-size="18.00" fill="skyblue">+ </text>
<text text-anchor="start" x="932" y="-218.1" font-family="arial" font-size="18.00" fill="skyblue">norme</text>
<text text-anchor="start" x="983" y="-218.1" font-family="arial" font-size="18.00" fill="skyblue"> </text>
<text text-anchor="start" x="989" y="-218.1" font-family="arial" font-style="italic" font-size="18.00" fill="grey">text</text>
<text text-anchor="start" x="916" y="-200.1" font-family="arial" font-size="18.00" fill="skyblue">_ </text>
<text text-anchor="start" x="932" y="-200.1" font-family="arial" font-size="18.00" fill="violet">lemme</text>
<text text-anchor="start" x="986" y="-200.1" font-family="arial" font-size="18.00" fill="skyblue"> </text>
<text text-anchor="start" x="992" y="-200.1" font-family="arial" font-style="italic" font-size="18.00" fill="grey">int</text>
<text text-anchor="start" x="916" y="-182.1" font-family="arial" font-size="18.00" fill="skyblue">_ </text>
<text text-anchor="start" x="932" y="-182.1" font-family="arial" font-size="18.00" fill="violet">nature</text>
<text text-anchor="start" x="983" y="-182.1" font-family="arial" font-size="18.00" fill="skyblue"> </text>
<text text-anchor="start" x="989" y="-182.1" font-family="arial" font-style="italic" font-size="18.00" fill="grey">smallint</text>
<text text-anchor="start" x="916" y="-164.1" font-family="arial" font-size="18.00" fill="skyblue">_ </text>
<text text-anchor="start" x="932" y="-164.1" font-family="arial" font-size="18.00" fill="violet">morph</text>
<text text-anchor="start" x="983" y="-164.1" font-family="arial" font-size="18.00" fill="skyblue"> </text>
<text text-anchor="start" x="989" y="-164.1" font-family="arial" font-style="italic" font-size="18.00" fill="grey">smallint</text>
</g>
<!-- mot&#45;&gt;lexeme -->
<g id="edge20" class="edge">
<title>mot&#45;&gt;lexeme</title>
<path fill="none" stroke="skyblue" d="M983,-336.16C983,-323.43 983,-309.08 983,-294.92"/>
<polygon fill="skyblue" stroke="skyblue" points="986.5,-294.67 983,-284.67 979.5,-294.67 986.5,-294.67"/>
<text text-anchor="middle" x="1013" y="-306.8" font-family="arial" font-size="14.00" fill="skyblue">a_lexeme</text>
</g>
<!-- fonction -->
<g id="node21" class="node">
<title>fonction</title>
<polygon fill="none" stroke="violet" stroke-width="2" points="1134,-183.5 1134,-255.5 1292,-255.5 1292,-183.5 1134,-183.5"/>
<text text-anchor="start" x="1176.5" y="-238.1" font-family="arial" font-weight="bold" font-size="18.00" fill="violet">fonction</text>
<polyline fill="none" stroke="violet" stroke-width="2" points="1134,-227.5 1292,-227.5 "/>
<text text-anchor="start" x="1164.5" y="-210.1" font-family="arial" font-size="18.00" fill="violet">+ </text>
<text text-anchor="start" x="1180.5" y="-210.1" font-family="arial" text-decoration="underline" font-size="18.00" fill="violet">id</text>
<text text-anchor="start" x="1194.5" y="-210.1" font-family="arial" font-size="18.00" fill="violet"> </text>
<text text-anchor="start" x="1200.5" y="-210.1" font-family="arial" font-style="italic" font-size="18.00" fill="grey">smallint</text>
<text text-anchor="start" x="1164.5" y="-192.1" font-family="arial" font-size="18.00" fill="violet">+ </text>
<text text-anchor="start" x="1180.5" y="-192.1" font-family="arial" font-size="18.00" fill="violet">nom</text>
<text text-anchor="start" x="1215.5" y="-192.1" font-family="arial" font-size="18.00" fill="violet"> </text>
<text text-anchor="start" x="1221.5" y="-192.1" font-family="arial" font-style="italic" font-size="18.00" fill="grey">text</text>
</g>
<!-- mot&#45;&gt;fonction -->
<g id="edge21" class="edge">
<title>mot&#45;&gt;fonction</title>
<path fill="none" stroke="violet" d="M1044.33,-336.37C1078.19,-313.11 1120.05,-284.35 1153.6,-261.31"/>
<polygon fill="violet" stroke="violet" points="1155.68,-264.12 1161.94,-255.58 1151.72,-258.35 1155.68,-264.12"/>
<text text-anchor="middle" x="1122.5" y="-306.8" font-family="arial" font-size="14.00" fill="violet">a_fonction</text>
</g>
<!-- lemme -->
<g id="node18" class="node">
<title>lemme</title>
<polygon fill="none" stroke="violet" stroke-width="2" points="674,-16.5 674,-102.5 832,-102.5 832,-16.5 674,-16.5"/>
<text text-anchor="start" x="724.5" y="-86.1" font-family="arial" font-weight="bold" font-size="18.00" fill="violet">lemme</text>
<polyline fill="none" stroke="violet" stroke-width="2" points="674,-76.5 832,-76.5 "/>
<text text-anchor="start" x="692.5" y="-60.1" font-family="arial" font-size="18.00" fill="violet">+ </text>
<text text-anchor="start" x="708.5" y="-60.1" font-family="arial" text-decoration="underline" font-size="18.00" fill="violet">id</text>
<text text-anchor="start" x="722.5" y="-60.1" font-family="arial" font-size="18.00" fill="violet"> </text>
<text text-anchor="start" x="728.5" y="-60.1" font-family="arial" font-style="italic" font-size="18.00" fill="grey">int</text>
<text text-anchor="start" x="692.5" y="-42.1" font-family="arial" font-size="18.00" fill="violet">+ </text>
<text text-anchor="start" x="708.5" y="-42.1" font-family="arial" font-size="18.00" fill="violet">graphie</text>
<text text-anchor="start" x="767.5" y="-42.1" font-family="arial" font-size="18.00" fill="violet"> </text>
<text text-anchor="start" x="773.5" y="-42.1" font-family="arial" font-style="italic" font-size="18.00" fill="grey">texte</text>
<text text-anchor="start" x="692.5" y="-24.1" font-family="arial" font-size="18.00" fill="violet">+ </text>
<text text-anchor="start" x="708.5" y="-24.1" font-family="arial" font-size="18.00" fill="violet">vec</text>
<text text-anchor="start" x="736.5" y="-24.1" font-family="arial" font-size="18.00" fill="violet"> </text>
<text text-anchor="start" x="742.5" y="-24.1" font-family="arial" font-style="italic" font-size="18.00" fill="grey">pgvector</text>
</g>
<!-- lexeme&#45;&gt;lemme -->
<g id="edge22" class="edge">
<title>lexeme&#45;&gt;lemme</title>
<path fill="none" stroke="violet" d="M903.85,-164.13C877.58,-146.08 848.54,-126.13 823.01,-108.59"/>
<polygon fill="violet" stroke="violet" points="824.72,-105.52 814.5,-102.75 820.76,-111.29 824.72,-105.52"/>
<text text-anchor="middle" x="890" y="-124.8" font-family="arial" font-size="14.00" fill="violet">a_lemme</text>
</g>
<!-- nature -->
<g id="node20" class="node">
<title>nature</title>
<polygon fill="none" stroke="violet" stroke-width="2" points="904,-23.5 904,-95.5 1062,-95.5 1062,-23.5 904,-23.5"/>
<text text-anchor="start" x="955.5" y="-78.1" font-family="arial" font-weight="bold" font-size="18.00" fill="violet">nature</text>
<polyline fill="none" stroke="violet" stroke-width="2" points="904,-67.5 1062,-67.5 "/>
<text text-anchor="start" x="934.5" y="-50.1" font-family="arial" font-size="18.00" fill="violet">+ </text>
<text text-anchor="start" x="950.5" y="-50.1" font-family="arial" text-decoration="underline" font-size="18.00" fill="violet">id</text>
<text text-anchor="start" x="964.5" y="-50.1" font-family="arial" font-size="18.00" fill="violet"> </text>
<text text-anchor="start" x="970.5" y="-50.1" font-family="arial" font-style="italic" font-size="18.00" fill="grey">smallint</text>
<text text-anchor="start" x="934.5" y="-32.1" font-family="arial" font-size="18.00" fill="violet">+ </text>
<text text-anchor="start" x="950.5" y="-32.1" font-family="arial" font-size="18.00" fill="violet">nom</text>
<text text-anchor="start" x="985.5" y="-32.1" font-family="arial" font-size="18.00" fill="violet"> </text>
<text text-anchor="start" x="991.5" y="-32.1" font-family="arial" font-style="italic" font-size="18.00" fill="grey">text</text>
</g>
<!-- lexeme&#45;&gt;nature -->
<g id="edge23" class="edge">
<title>lexeme&#45;&gt;nature</title>
<path fill="none" stroke="violet" d="M983,-154.24C983,-137.99 983,-120.89 983,-105.8"/>
<polygon fill="violet" stroke="violet" points="986.5,-105.71 983,-95.71 979.5,-105.71 986.5,-105.71"/>
<text text-anchor="middle" x="1010" y="-124.8" font-family="arial" font-size="14.00" fill="violet">a_nature</text>
</g>
<!-- morph -->
<g id="node22" class="node">
<title>morph</title>
<polygon fill="none" stroke="violet" stroke-width="2" points="1134,-23.5 1134,-95.5 1292,-95.5 1292,-23.5 1134,-23.5"/>
<text text-anchor="start" x="1184.5" y="-78.1" font-family="arial" font-weight="bold" font-size="18.00" fill="violet">morph</text>
<polyline fill="none" stroke="violet" stroke-width="2" points="1134,-67.5 1292,-67.5 "/>
<text text-anchor="start" x="1164.5" y="-50.1" font-family="arial" font-size="18.00" fill="violet">+ </text>
<text text-anchor="start" x="1180.5" y="-50.1" font-family="arial" text-decoration="underline" font-size="18.00" fill="violet">id</text>
<text text-anchor="start" x="1194.5" y="-50.1" font-family="arial" font-size="18.00" fill="violet"> </text>
<text text-anchor="start" x="1200.5" y="-50.1" font-family="arial" font-style="italic" font-size="18.00" fill="grey">smallint</text>
<text text-anchor="start" x="1164.5" y="-32.1" font-family="arial" font-size="18.00" fill="violet">+ </text>
<text text-anchor="start" x="1180.5" y="-32.1" font-family="arial" font-size="18.00" fill="violet">feats</text>
<text text-anchor="start" x="1220.5" y="-32.1" font-family="arial" font-size="18.00" fill="violet"> </text>
<text text-anchor="start" x="1226.5" y="-32.1" font-family="arial" font-style="italic" font-size="18.00" fill="grey">text</text>
</g>
<!-- lexeme&#45;&gt;morph -->
<g id="edge24" class="edge">
<title>lexeme&#45;&gt;morph</title>
<path fill="none" stroke="violet" d="M1062.15,-164.13C1092.06,-143.58 1125.57,-120.56 1153.39,-101.45"/>
<polygon fill="violet" stroke="violet" points="1155.57,-104.2 1161.84,-95.65 1151.61,-98.43 1155.57,-104.2"/>
<text text-anchor="middle" x="1145.5" y="-124.8" font-family="arial" font-size="14.00" fill="violet">a_morph</text>
</g>
</g>
</svg>
