<?xml version="1.0" encoding="UTF-8" standalone="no"?>
<!DOCTYPE svg PUBLIC "-//W3C//DTD SVG 1.1//EN"
 "http://www.w3.org/Graphics/SVG/1.1/DTD/svg11.dtd">
<!-- Generated by graphviz version 2.43.0 (0)
 -->
<!-- Title: %3 Pages: 1 -->
<svg width="1317pt" height="856pt"
 viewBox="0.00 0.00 1317.00 856.00" xmlns="http://www.w3.org/2000/svg" xmlns:xlink="http://www.w3.org/1999/xlink">
<g id="graph0" class="graph" transform="scale(1 1) rotate(0) translate(4 852)">
<title>%3</title>
<polygon fill="white" stroke="transparent" points="-4,4 -4,-852 1313,-852 1313,4 -4,4"/>
<g id="clust1" class="cluster">
<title>cluster_eav</title>
<polygon fill="none" stroke="turquoise" stroke-dasharray="1,5" points="8,-183 8,-840 658,-840 658,-183 8,-183"/>
</g>
<g id="clust3" class="cluster">
<title>cluster_prop</title>
<polygon fill="none" stroke="lightgrey" stroke-dasharray="1,5" points="16,-743 16,-832 650,-832 650,-743 16,-743"/>
</g>
<g id="clust4" class="cluster">
<title>cluster_nlp</title>
<polygon fill="none" stroke="violet" stroke-dasharray="1,5" points="667,-8 667,-708 1301,-708 1301,-8 667,-8"/>
</g>
<!-- classe -->
<g id="node1" class="node">
<title>classe</title>
<polygon fill="none" stroke="orange" points="260,-365.5 260,-423.5 418,-423.5 418,-365.5 260,-365.5"/>
<text text-anchor="start" x="311.5" y="-405.6" font-family="arial" font-weight="bold" font-size="18.00" fill="orange">classe</text>
<polyline fill="none" stroke="orange" points="260,-394.5 418,-394.5 "/>
<text text-anchor="start" x="336" y="-375.6" font-family="arial" font-size="18.00" fill="orange"> </text>
</g>
<!-- concept -->
<g id="node7" class="node">
<title>concept</title>
<polygon fill="none" stroke="orange" points="260,-191.5 260,-277.5 418,-277.5 418,-191.5 260,-191.5"/>
<text text-anchor="start" x="304" y="-261.1" font-family="arial" font-weight="bold" font-size="18.00" fill="orange">concept</text>
<polyline fill="none" stroke="orange" points="260,-251.5 418,-251.5 "/>
<text text-anchor="start" x="278" y="-235.1" font-family="arial" font-size="18.00" fill="orange">+ </text>
<text text-anchor="start" x="294" y="-235.1" font-family="arial" text-decoration="underline" font-size="18.00" fill="orange">id</text>
<text text-anchor="start" x="308" y="-235.1" font-family="arial" font-size="18.00" fill="orange"> </text>
<text text-anchor="start" x="314" y="-235.1" font-family="arial" font-style="italic" font-size="18.00" fill="grey">smallint</text>
<text text-anchor="start" x="278" y="-217.1" font-family="arial" font-size="18.00" fill="orange">+ nom </text>
<text text-anchor="start" x="334" y="-217.1" font-family="arial" font-style="italic" font-size="18.00" fill="grey">text</text>
<text text-anchor="start" x="278" y="-199.1" font-family="arial" font-size="18.00" fill="orange">+ définition </text>
<text text-anchor="start" x="370" y="-199.1" font-family="arial" font-style="italic" font-size="18.00" fill="grey">text</text>
</g>
<!-- classe&#45;&gt;concept -->
<g id="edge1" class="edge">
<title>classe&#45;&gt;concept</title>
<path fill="none" stroke="orange" stroke-dasharray="5,2" d="M339,-365.25C339,-343.78 339,-313.64 339,-287.81"/>
<polygon fill="none" stroke="orange" points="342.5,-287.78 339,-277.78 335.5,-287.78 342.5,-287.78"/>
</g>
<!-- type_relation -->
<g id="node2" class="node">
<title>type_relation</title>
<polygon fill="none" stroke="orange" points="490,-365.5 490,-423.5 648,-423.5 648,-365.5 490,-365.5"/>
<text text-anchor="start" x="513" y="-405.6" font-family="arial" font-weight="bold" font-size="18.00" fill="orange">type_relation</text>
<polyline fill="none" stroke="orange" points="490,-394.5 648,-394.5 "/>
<text text-anchor="start" x="566" y="-375.6" font-family="arial" font-size="18.00" fill="orange"> </text>
</g>
<!-- type_relation&#45;&gt;concept -->
<g id="edge3" class="edge">
<title>type_relation&#45;&gt;concept</title>
<path fill="none" stroke="orange" stroke-dasharray="5,2" d="M528.15,-365.43C495.14,-342.76 447.94,-310.33 408.94,-283.55"/>
<polygon fill="none" stroke="orange" points="410.47,-280.35 400.24,-277.57 406.51,-286.12 410.47,-280.35"/>
</g>
<!-- type_propriete -->
<g id="node3" class="node">
<title>type_propriete</title>
<polygon fill="none" stroke="orange" points="30,-365.5 30,-423.5 188,-423.5 188,-365.5 30,-365.5"/>
<text text-anchor="start" x="46.5" y="-405.6" font-family="arial" font-weight="bold" font-size="18.00" fill="orange">type_propriete</text>
<polyline fill="none" stroke="orange" points="30,-394.5 188,-394.5 "/>
<text text-anchor="start" x="106" y="-375.6" font-family="arial" font-size="18.00" fill="orange"> </text>
</g>
<!-- type_propriete&#45;&gt;concept -->
<g id="edge2" class="edge">
<title>type_propriete&#45;&gt;concept</title>
<path fill="none" stroke="orange" stroke-dasharray="5,2" d="M149.85,-365.43C182.86,-342.76 230.06,-310.33 269.06,-283.55"/>
<polygon fill="none" stroke="orange" points="271.49,-286.12 277.76,-277.57 267.53,-280.35 271.49,-286.12"/>
</g>
<!-- entite -->
<g id="node4" class="node">
<title>entite</title>
<polygon fill="none" stroke="black" stroke-width="2" points="260,-489.5 260,-561.5 418,-561.5 418,-489.5 260,-489.5"/>
<text text-anchor="start" x="314.5" y="-544.1" font-family="arial" font-weight="bold" font-size="18.00">entite</text>
<polyline fill="none" stroke="black" stroke-width="2" points="260,-533.5 418,-533.5 "/>
<text text-anchor="start" x="272" y="-516.1" font-family="arial" font-size="18.00">+ </text>
<text text-anchor="start" x="288" y="-516.1" font-family="arial" text-decoration="underline" font-size="18.00">id</text>
<text text-anchor="start" x="302" y="-516.1" font-family="arial" font-size="18.00"> </text>
<text text-anchor="start" x="308" y="-516.1" font-family="arial" font-style="italic" font-size="18.00" fill="grey">int</text>
<text text-anchor="start" x="272" y="-498.1" font-family="arial" font-size="18.00">_ </text>
<text text-anchor="start" x="288" y="-498.1" font-family="arial" font-size="18.00" fill="orange">classe</text>
<text text-anchor="start" x="339" y="-498.1" font-family="arial" font-size="18.00"> </text>
<text text-anchor="start" x="345" y="-498.1" font-family="arial" font-style="italic" font-size="18.00" fill="grey">smallint</text>
</g>
<!-- entite&#45;&gt;classe -->
<g id="edge5" class="edge">
<title>entite&#45;&gt;classe</title>
<path fill="none" stroke="orange" d="M339,-489.25C339,-472.2 339,-451.69 339,-434.21"/>
<polygon fill="orange" stroke="orange" points="342.5,-433.77 339,-423.77 335.5,-433.77 342.5,-433.77"/>
<text text-anchor="middle" x="388.5" y="-459.8" font-family="arial" font-size="14.00" fill="orange">est_instance_de</text>
</g>
<!-- relation -->
<g id="node5" class="node">
<title>relation</title>
<polygon fill="none" stroke="black" stroke-width="2" points="407,-613.5 407,-699.5 565,-699.5 565,-613.5 407,-613.5"/>
<text text-anchor="start" x="453" y="-683.1" font-family="arial" font-weight="bold" font-size="18.00">relation</text>
<polyline fill="none" stroke="black" stroke-width="2" points="407,-673.5 565,-673.5 "/>
<text text-anchor="start" x="427.5" y="-657.1" font-family="arial" font-size="18.00">_ </text>
<text text-anchor="start" x="443.5" y="-657.1" font-family="arial" font-size="18.00" fill="orange">type</text>
<text text-anchor="start" x="477.5" y="-657.1" font-family="arial" font-size="18.00"> </text>
<text text-anchor="start" x="483.5" y="-657.1" font-family="arial" font-style="italic" font-size="18.00" fill="grey">smallint</text>
<text text-anchor="start" x="427.5" y="-639.1" font-family="arial" font-size="18.00">_ sujet </text>
<text text-anchor="start" x="485.5" y="-639.1" font-family="arial" font-style="italic" font-size="18.00" fill="grey">int</text>
<text text-anchor="start" x="427.5" y="-621.1" font-family="arial" font-size="18.00">_ objet </text>
<text text-anchor="start" x="486.5" y="-621.1" font-family="arial" font-style="italic" font-size="18.00" fill="grey">int</text>
</g>
<!-- relation&#45;&gt;type_relation -->
<g id="edge4" class="edge">
<title>relation&#45;&gt;type_relation</title>
<path fill="none" stroke="orange" d="M499.43,-613.44C515.32,-563.66 541.55,-481.49 556.86,-433.54"/>
<polygon fill="orange" stroke="orange" points="560.24,-434.44 559.95,-423.85 553.57,-432.31 560.24,-434.44"/>
<text text-anchor="middle" x="558.5" y="-521.8" font-family="arial" font-size="14.00" fill="orange">a_type</text>
</g>
<!-- relation&#45;&gt;entite -->
<g id="edge7" class="edge">
<title>relation&#45;&gt;entite</title>
<path fill="none" stroke="black" d="M445.57,-613.3C434.34,-602.15 421.95,-590.35 410,-580 405.33,-575.95 400.38,-571.87 395.36,-567.85"/>
<polygon fill="black" stroke="black" points="397.46,-565.04 387.44,-561.6 393.13,-570.54 397.46,-565.04"/>
<text text-anchor="middle" x="447.5" y="-583.8" font-family="arial" font-size="14.00">a_objet</text>
</g>
<!-- relation&#45;&gt;entite -->
<g id="edge8" class="edge">
<title>relation&#45;&gt;entite</title>
<path fill="none" stroke="black" d="M406.81,-636.67C384.58,-627.61 362.53,-614.35 348,-595 342.98,-588.32 340.03,-580.2 338.39,-571.92"/>
<polygon fill="black" stroke="black" points="341.83,-571.25 336.99,-561.83 334.9,-572.22 341.83,-571.25"/>
<text text-anchor="middle" x="370" y="-583.8" font-family="arial" font-size="14.00">a_sujet</text>
</g>
<!-- propriete -->
<g id="node6" class="node">
<title>propriete</title>
<polygon fill="none" stroke="black" stroke-width="2" points="166,-620.5 166,-692.5 324,-692.5 324,-620.5 166,-620.5"/>
<text text-anchor="start" x="205.5" y="-675.1" font-family="arial" font-weight="bold" font-size="18.00">propriété</text>
<polyline fill="none" stroke="black" stroke-width="2" points="166,-664.5 324,-664.5 "/>
<text text-anchor="start" x="186.5" y="-647.1" font-family="arial" font-size="18.00">_ </text>
<text text-anchor="start" x="202.5" y="-647.1" font-family="arial" font-size="18.00" fill="orange">type</text>
<text text-anchor="start" x="236.5" y="-647.1" font-family="arial" font-size="18.00"> </text>
<text text-anchor="start" x="242.5" y="-647.1" font-family="arial" font-style="italic" font-size="18.00" fill="grey">smallint</text>
<text text-anchor="start" x="186.5" y="-629.1" font-family="arial" font-size="18.00">_ entite </text>
<text text-anchor="start" x="250.5" y="-629.1" font-family="arial" font-style="italic" font-size="18.00" fill="grey">int</text>
</g>
<!-- propriete&#45;&gt;type_propriete -->
<g id="edge6" class="edge">
<title>propriete&#45;&gt;type_propriete</title>
<path fill="none" stroke="orange" d="M219.71,-620.41C207.86,-603.22 193.96,-581.98 183,-562 159.52,-519.22 137.47,-467.53 123.65,-433.21"/>
<polygon fill="orange" stroke="orange" points="126.76,-431.57 119.8,-423.58 120.26,-434.17 126.76,-431.57"/>
<text text-anchor="middle" x="203.5" y="-521.8" font-family="arial" font-size="14.00" fill="orange">a_type</text>
</g>
<!-- propriete&#45;&gt;entite -->
<g id="edge9" class="edge">
<title>propriete&#45;&gt;entite</title>
<path fill="none" stroke="black" d="M229.21,-620.47C225.54,-607 224.59,-591.99 232,-580 237.05,-571.83 243.77,-564.86 251.39,-558.93"/>
<polygon fill="black" stroke="black" points="253.81,-561.51 259.98,-552.9 249.79,-555.78 253.81,-561.51"/>
<text text-anchor="middle" x="253.5" y="-583.8" font-family="arial" font-size="14.00">qualifie</text>
</g>
<!-- texte -->
<g id="node8" class="node">
<title>texte</title>
<polygon fill="none" stroke="turquoise" stroke-width="2" points="484,-751.5 484,-823.5 642,-823.5 642,-751.5 484,-751.5"/>
<text text-anchor="start" x="542" y="-806.1" font-family="arial" font-weight="bold" font-size="18.00" fill="turquoise">texte</text>
<polyline fill="none" stroke="turquoise" stroke-width="2" points="484,-795.5 642,-795.5 "/>
<text text-anchor="start" x="526" y="-778.1" font-family="arial" font-size="18.00" fill="turquoise">+id </text>
<text text-anchor="start" x="556" y="-778.1" font-family="arial" font-size="18.00" fill="turquoise">id</text>
<text text-anchor="start" x="570" y="-778.1" font-family="arial" font-size="18.00" fill="turquoise"> </text>
<text text-anchor="start" x="576" y="-778.1" font-family="arial" font-style="italic" font-size="18.00" fill="grey">int</text>
<text text-anchor="start" x="526" y="-760.1" font-family="arial" font-size="18.00" fill="turquoise">+ val </text>
<text text-anchor="start" x="570" y="-760.1" font-family="arial" font-style="italic" font-size="18.00" fill="grey">text</text>
</g>
<!-- texte&#45;&gt;propriete -->
<g id="edge10" class="edge">
<title>texte&#45;&gt;propriete</title>
<path fill="none" stroke="turquoise" stroke-dasharray="5,2" d="M483.98,-754.45C438.29,-735.91 380.67,-712.53 333.46,-693.38"/>
<polygon fill="none" stroke="turquoise" points="334.74,-690.13 324.16,-689.61 332.11,-696.61 334.74,-690.13"/>
</g>
<!-- segment -->
<g id="node11" class="node">
<title>segment</title>
<polygon fill="none" stroke="blue" stroke-width="2" points="790,-613.5 790,-699.5 948,-699.5 948,-613.5 790,-613.5"/>
<text text-anchor="start" x="832" y="-683.1" font-family="arial" font-weight="bold" font-size="18.00" fill="blue">segment</text>
<polyline fill="none" stroke="blue" stroke-width="2" points="790,-673.5 948,-673.5 "/>
<text text-anchor="start" x="808.5" y="-657.1" font-family="arial" font-size="18.00" fill="blue">_ </text>
<text text-anchor="start" x="824.5" y="-657.1" font-family="arial" font-size="18.00" fill="turquoise">texte</text>
<text text-anchor="start" x="864.5" y="-657.1" font-family="arial" font-size="18.00" fill="blue"> </text>
<text text-anchor="start" x="870.5" y="-657.1" font-family="arial" font-style="italic" font-size="18.00" fill="grey">int</text>
<text text-anchor="start" x="808.5" y="-639.1" font-family="arial" font-size="18.00" fill="blue">+ début </text>
<text text-anchor="start" x="874.5" y="-639.1" font-family="arial" font-style="italic" font-size="18.00" fill="grey">integer</text>
<text text-anchor="start" x="808.5" y="-621.1" font-family="arial" font-size="18.00" fill="blue">+ fin </text>
<text text-anchor="start" x="848.5" y="-621.1" font-family="arial" font-style="italic" font-size="18.00" fill="grey">integer</text>
</g>
<!-- texte&#45;&gt;segment -->
<g id="edge13" class="edge">
<title>texte&#45;&gt;segment</title>
<path fill="none" stroke="turquoise" d="M651.67,-749.12C695.34,-730.71 747.56,-708.7 789.87,-690.86"/>
<polygon fill="turquoise" stroke="turquoise" points="650.06,-746 642.2,-753.11 652.77,-752.45 650.06,-746"/>
<text text-anchor="middle" x="752.5" y="-721.8" font-family="arial" font-size="14.00" fill="turquoise">est_dans</text>
</g>
<!-- prop_date -->
<g id="node9" class="node">
<title>prop_date</title>
<polygon fill="none" stroke="turquoise" stroke-width="2" points="254,-758.5 254,-816.5 412,-816.5 412,-758.5 254,-758.5"/>
<text text-anchor="start" x="289" y="-798.6" font-family="arial" font-weight="bold" font-size="18.00" fill="turquoise">prop_date</text>
<polyline fill="none" stroke="turquoise" stroke-width="2" points="254,-787.5 412,-787.5 "/>
<text text-anchor="start" x="269.5" y="-769.6" font-family="arial" font-size="18.00" fill="turquoise">+ val </text>
<text text-anchor="start" x="313.5" y="-769.6" font-family="arial" font-style="italic" font-size="18.00" fill="grey">timestamp</text>
</g>
<!-- prop_date&#45;&gt;propriete -->
<g id="edge11" class="edge">
<title>prop_date&#45;&gt;propriete</title>
<path fill="none" stroke="turquoise" stroke-dasharray="5,2" d="M313.69,-758.19C302.28,-741.47 287.6,-719.95 274.74,-701.1"/>
<polygon fill="none" stroke="turquoise" points="277.51,-698.94 268.98,-692.65 271.72,-702.88 277.51,-698.94"/>
</g>
<!-- prop_float -->
<g id="node10" class="node">
<title>prop_float</title>
<polygon fill="none" stroke="turquoise" stroke-width="2" points="24,-758.5 24,-816.5 182,-816.5 182,-758.5 24,-758.5"/>
<text text-anchor="start" x="58.5" y="-798.6" font-family="arial" font-weight="bold" font-size="18.00" fill="turquoise">prop_float</text>
<polyline fill="none" stroke="turquoise" stroke-width="2" points="24,-787.5 182,-787.5 "/>
<text text-anchor="start" x="64" y="-769.6" font-family="arial" font-size="18.00" fill="turquoise">+ val </text>
<text text-anchor="start" x="108" y="-769.6" font-family="arial" font-style="italic" font-size="18.00" fill="grey">float</text>
</g>
<!-- prop_float&#45;&gt;propriete -->
<g id="edge12" class="edge">
<title>prop_float&#45;&gt;propriete</title>
<path fill="none" stroke="turquoise" stroke-dasharray="5,2" d="M134.16,-758.19C153.07,-741.02 177.54,-718.78 198.68,-699.57"/>
<polygon fill="none" stroke="turquoise" points="201.26,-701.97 206.31,-692.65 196.55,-696.78 201.26,-701.97"/>
</g>
<!-- phrase -->
<g id="node12" class="node">
<title>phrase</title>
<polygon fill="none" stroke="blue" stroke-width="2" points="1135,-496.5 1135,-554.5 1293,-554.5 1293,-496.5 1135,-496.5"/>
<text text-anchor="start" x="1184.5" y="-536.6" font-family="arial" font-weight="bold" font-size="18.00" fill="blue">phrase</text>
<polyline fill="none" stroke="blue" stroke-width="2" points="1135,-525.5 1293,-525.5 "/>
<text text-anchor="start" x="1211" y="-506.6" font-family="arial" font-size="18.00" fill="blue"> </text>
</g>
<!-- segment&#45;&gt;phrase -->
<g id="edge14" class="edge">
<title>segment&#45;&gt;phrase</title>
<path fill="none" stroke="blue" stroke-dasharray="5,2" d="M957.74,-622.32C1013.92,-601.31 1085.75,-574.45 1139.06,-554.52"/>
<polygon fill="blue" stroke="blue" points="956.29,-619.12 948.15,-625.9 958.74,-625.68 956.29,-619.12"/>
</g>
<!-- span -->
<g id="node13" class="node">
<title>span</title>
<polygon fill="none" stroke="blue" stroke-width="2" points="675,-496.5 675,-554.5 833,-554.5 833,-496.5 675,-496.5"/>
<text text-anchor="start" x="732.5" y="-536.6" font-family="arial" font-weight="bold" font-size="18.00" fill="blue">span</text>
<polyline fill="none" stroke="blue" stroke-width="2" points="675,-525.5 833,-525.5 "/>
<text text-anchor="start" x="704" y="-507.6" font-family="arial" font-size="18.00" fill="blue">+ attrs </text>
<text text-anchor="start" x="761" y="-507.6" font-family="arial" font-style="italic" font-size="18.00" fill="grey">jsonb</text>
</g>
<!-- segment&#45;&gt;span -->
<g id="edge15" class="edge">
<title>segment&#45;&gt;span</title>
<path fill="none" stroke="blue" stroke-dasharray="5,2" d="M824.38,-605.45C808.99,-588.18 792.3,-569.46 779.04,-554.59"/>
<polygon fill="blue" stroke="blue" points="822.08,-608.13 831.34,-613.26 827.3,-603.47 822.08,-608.13"/>
</g>
<!-- token -->
<g id="node14" class="node">
<title>token</title>
<polygon fill="none" stroke="blue" stroke-width="2" points="905,-496.5 905,-554.5 1063,-554.5 1063,-496.5 905,-496.5"/>
<text text-anchor="start" x="959.5" y="-536.6" font-family="arial" font-weight="bold" font-size="18.00" fill="blue">token</text>
<polyline fill="none" stroke="blue" stroke-width="2" points="905,-525.5 1063,-525.5 "/>
<text text-anchor="start" x="928.5" y="-507.6" font-family="arial" font-size="18.00" fill="blue">+ num </text>
<text text-anchor="start" x="984.5" y="-507.6" font-family="arial" font-style="italic" font-size="18.00" fill="grey">integer</text>
</g>
<!-- segment&#45;&gt;token -->
<g id="edge16" class="edge">
<title>segment&#45;&gt;token</title>
<path fill="none" stroke="blue" stroke-dasharray="5,2" d="M913.62,-605.45C929.01,-588.18 945.7,-569.46 958.96,-554.59"/>
<polygon fill="blue" stroke="blue" points="910.7,-603.47 906.66,-613.26 915.92,-608.13 910.7,-603.47"/>
</g>
<!-- mot -->
<g id="node15" class="node">
<title>mot</title>
<polygon fill="none" stroke="blue" stroke-width="2" points="905,-351.5 905,-437.5 1063,-437.5 1063,-351.5 905,-351.5"/>
<text text-anchor="start" x="967" y="-421.1" font-family="arial" font-weight="bold" font-size="18.00" fill="blue">mot</text>
<polyline fill="none" stroke="blue" stroke-width="2" points="905,-411.5 1063,-411.5 "/>
<text text-anchor="start" x="911" y="-395.1" font-family="arial" font-size="18.00" fill="blue">_ </text>
<text text-anchor="start" x="927" y="-395.1" font-family="arial" font-size="18.00" fill="skyblue">lexeme</text>
<text text-anchor="start" x="985" y="-395.1" font-family="arial" font-size="18.00" fill="blue"> </text>
<text text-anchor="start" x="991" y="-395.1" font-family="arial" font-style="italic" font-size="18.00" fill="grey">int</text>
<text text-anchor="start" x="911" y="-377.1" font-family="arial" font-size="18.00" fill="blue">_ </text>
<text text-anchor="start" x="927" y="-377.1" font-family="arial" font-size="18.00" fill="violet">fonction</text>
<text text-anchor="start" x="990" y="-377.1" font-family="arial" font-size="18.00" fill="blue"> </text>
<text text-anchor="start" x="996" y="-377.1" font-family="arial" font-style="italic" font-size="18.00" fill="grey">smallint</text>
<text text-anchor="start" x="911" y="-359.1" font-family="arial" font-size="18.00" fill="blue">+ noyau </text>
<text text-anchor="start" x="981" y="-359.1" font-family="arial" font-style="italic" font-size="18.00" fill="grey">integer</text>
</g>
<!-- token&#45;&gt;mot -->
<g id="edge17" class="edge">
<title>token&#45;&gt;mot</title>
<path fill="none" stroke="blue" stroke-dasharray="5,2" d="M984,-486.12C984,-470.97 984,-453.5 984,-437.96"/>
<polygon fill="blue" stroke="blue" points="980.5,-486.19 984,-496.19 987.5,-486.19 980.5,-486.19"/>
</g>
<!-- lexeme -->
<g id="node17" class="node">
<title>lexeme</title>
<polygon fill="none" stroke="skyblue" stroke-width="2" points="905,-169.5 905,-299.5 1063,-299.5 1063,-169.5 905,-169.5"/>
<text text-anchor="start" x="953.5" y="-281.1" font-family="arial" font-weight="bold" font-size="18.00" fill="skyblue">lexeme</text>
<polyline fill="none" stroke="skyblue" stroke-width="2" points="905,-269.5 1063,-269.5 "/>
<text text-anchor="start" x="917" y="-251.1" font-family="arial" font-size="18.00" fill="skyblue">+ </text>
<text text-anchor="start" x="933" y="-251.1" font-family="arial" text-decoration="underline" font-size="18.00" fill="skyblue">id</text>
<text text-anchor="start" x="947" y="-251.1" font-family="arial" font-size="18.00" fill="skyblue"> </text>
<text text-anchor="start" x="953" y="-251.1" font-family="arial" font-style="italic" font-size="18.00" fill="grey">int</text>
<text text-anchor="start" x="917" y="-233.1" font-family="arial" font-size="18.00" fill="skyblue">+ </text>
<text text-anchor="start" x="933" y="-233.1" font-family="arial" font-size="18.00" fill="skyblue">norme</text>
<text text-anchor="start" x="984" y="-233.1" font-family="arial" font-size="18.00" fill="skyblue"> </text>
<text text-anchor="start" x="990" y="-233.1" font-family="arial" font-style="italic" font-size="18.00" fill="grey">text</text>
<text text-anchor="start" x="917" y="-215.1" font-family="arial" font-size="18.00" fill="skyblue">_ </text>
<text text-anchor="start" x="933" y="-215.1" font-family="arial" font-size="18.00" fill="violet">lemme</text>
<text text-anchor="start" x="987" y="-215.1" font-family="arial" font-size="18.00" fill="skyblue"> </text>
<text text-anchor="start" x="993" y="-215.1" font-family="arial" font-style="italic" font-size="18.00" fill="grey">int</text>
<text text-anchor="start" x="917" y="-197.1" font-family="arial" font-size="18.00" fill="skyblue">_ </text>
<text text-anchor="start" x="933" y="-197.1" font-family="arial" font-size="18.00" fill="violet">nature</text>
<text text-anchor="start" x="984" y="-197.1" font-family="arial" font-size="18.00" fill="skyblue"> </text>
<text text-anchor="start" x="990" y="-197.1" font-family="arial" font-style="italic" font-size="18.00" fill="grey">smallint</text>
<text text-anchor="start" x="917" y="-179.1" font-family="arial" font-size="18.00" fill="skyblue">_ </text>
<text text-anchor="start" x="933" y="-179.1" font-family="arial" font-size="18.00" fill="violet">morph</text>
<text text-anchor="start" x="984" y="-179.1" font-family="arial" font-size="18.00" fill="skyblue"> </text>
<text text-anchor="start" x="990" y="-179.1" font-family="arial" font-style="italic" font-size="18.00" fill="grey">smallint</text>
</g>
<!-- mot&#45;&gt;lexeme -->
<g id="edge18" class="edge">
<title>mot&#45;&gt;lexeme</title>
<path fill="none" stroke="skyblue" d="M984,-351.16C984,-338.43 984,-324.08 984,-309.92"/>
<polygon fill="skyblue" stroke="skyblue" points="987.5,-309.67 984,-299.67 980.5,-309.67 987.5,-309.67"/>
<text text-anchor="middle" x="1014" y="-321.8" font-family="arial" font-size="14.00" fill="skyblue">a_lexeme</text>
</g>
<!-- fonction -->
<g id="node19" class="node">
<title>fonction</title>
<polygon fill="none" stroke="violet" stroke-width="2" points="1135,-184 1135,-285 1293,-285 1293,-184 1135,-184"/>
<text text-anchor="start" x="1177.5" y="-260.6" font-family="arial" font-weight="bold" font-size="18.00" fill="violet">fonction</text>
<polyline fill="none" stroke="violet" stroke-width="2" points="1135,-243 1293,-243 "/>
<text text-anchor="start" x="1165.5" y="-218.1" font-family="arial" font-size="18.00" fill="violet">+ </text>
<text text-anchor="start" x="1181.5" y="-218.1" font-family="arial" text-decoration="underline" font-size="18.00" fill="violet">id</text>
<text text-anchor="start" x="1195.5" y="-218.1" font-family="arial" font-size="18.00" fill="violet"> </text>
<text text-anchor="start" x="1201.5" y="-218.1" font-family="arial" font-style="italic" font-size="18.00" fill="grey">smallint</text>
<text text-anchor="start" x="1165.5" y="-200.1" font-family="arial" font-size="18.00" fill="violet">+ </text>
<text text-anchor="start" x="1181.5" y="-200.1" font-family="arial" font-size="18.00" fill="violet">nom</text>
<text text-anchor="start" x="1216.5" y="-200.1" font-family="arial" font-size="18.00" fill="violet"> </text>
<text text-anchor="start" x="1222.5" y="-200.1" font-family="arial" font-style="italic" font-size="18.00" fill="grey">text</text>
</g>
<!-- mot&#45;&gt;fonction -->
<g id="edge19" class="edge">
<title>mot&#45;&gt;fonction</title>
<path fill="none" stroke="violet" d="M1045.33,-351.37C1072.34,-332.81 1104.44,-310.76 1133.35,-290.9"/>
<polygon fill="violet" stroke="violet" points="1135.55,-293.64 1141.82,-285.09 1131.59,-287.87 1135.55,-293.64"/>
<text text-anchor="middle" x="1123.5" y="-321.8" font-family="arial" font-size="14.00" fill="violet">a_fonction</text>
</g>
<!-- lemme -->
<g id="node16" class="node">
<title>lemme</title>
<polygon fill="none" stroke="violet" stroke-width="2" points="675,-24 675,-110 833,-110 833,-24 675,-24"/>
<text text-anchor="start" x="725.5" y="-93.6" font-family="arial" font-weight="bold" font-size="18.00" fill="violet">lemme</text>
<polyline fill="none" stroke="violet" stroke-width="2" points="675,-84 833,-84 "/>
<text text-anchor="start" x="693.5" y="-67.6" font-family="arial" font-size="18.00" fill="violet">+ </text>
<text text-anchor="start" x="709.5" y="-67.6" font-family="arial" text-decoration="underline" font-size="18.00" fill="violet">id</text>
<text text-anchor="start" x="723.5" y="-67.6" font-family="arial" font-size="18.00" fill="violet"> </text>
<text text-anchor="start" x="729.5" y="-67.6" font-family="arial" font-style="italic" font-size="18.00" fill="grey">int</text>
<text text-anchor="start" x="693.5" y="-49.6" font-family="arial" font-size="18.00" fill="violet">+ </text>
<text text-anchor="start" x="709.5" y="-49.6" font-family="arial" font-size="18.00" fill="violet">graphie</text>
<text text-anchor="start" x="768.5" y="-49.6" font-family="arial" font-size="18.00" fill="violet"> </text>
<text text-anchor="start" x="774.5" y="-49.6" font-family="arial" font-style="italic" font-size="18.00" fill="grey">texte</text>
<text text-anchor="start" x="693.5" y="-31.6" font-family="arial" font-size="18.00" fill="violet">+ </text>
<text text-anchor="start" x="709.5" y="-31.6" font-family="arial" font-size="18.00" fill="violet">vec</text>
<text text-anchor="start" x="737.5" y="-31.6" font-family="arial" font-size="18.00" fill="violet"> </text>
<text text-anchor="start" x="743.5" y="-31.6" font-family="arial" font-style="italic" font-size="18.00" fill="grey">pgvector</text>
</g>
<!-- lexeme&#45;&gt;lemme -->
<g id="edge20" class="edge">
<title>lexeme&#45;&gt;lemme</title>
<path fill="none" stroke="violet" d="M904.85,-176.54C877.53,-156.89 847.21,-135.07 820.96,-116.18"/>
<polygon fill="violet" stroke="violet" points="822.75,-113.16 812.59,-110.16 818.66,-118.84 822.75,-113.16"/>
<text text-anchor="middle" x="898" y="-139.8" font-family="arial" font-size="14.00" fill="violet">a_lemme</text>
</g>
<!-- nature -->
<g id="node18" class="node">
<title>nature</title>
<polygon fill="none" stroke="violet" stroke-width="2" points="905,-16.5 905,-117.5 1063,-117.5 1063,-16.5 905,-16.5"/>
<text text-anchor="start" x="956.5" y="-93.1" font-family="arial" font-weight="bold" font-size="18.00" fill="violet">nature</text>
<polyline fill="none" stroke="violet" stroke-width="2" points="905,-75.5 1063,-75.5 "/>
<text text-anchor="start" x="935.5" y="-50.6" font-family="arial" font-size="18.00" fill="violet">+ </text>
<text text-anchor="start" x="951.5" y="-50.6" font-family="arial" text-decoration="underline" font-size="18.00" fill="violet">id</text>
<text text-anchor="start" x="965.5" y="-50.6" font-family="arial" font-size="18.00" fill="violet"> </text>
<text text-anchor="start" x="971.5" y="-50.6" font-family="arial" font-style="italic" font-size="18.00" fill="grey">smallint</text>
<text text-anchor="start" x="935.5" y="-32.6" font-family="arial" font-size="18.00" fill="violet">+ </text>
<text text-anchor="start" x="951.5" y="-32.6" font-family="arial" font-size="18.00" fill="violet">nom</text>
<text text-anchor="start" x="986.5" y="-32.6" font-family="arial" font-size="18.00" fill="violet"> </text>
<text text-anchor="start" x="992.5" y="-32.6" font-family="arial" font-style="italic" font-size="18.00" fill="grey">text</text>
</g>
<!-- lexeme&#45;&gt;nature -->
<g id="edge21" class="edge">
<title>lexeme&#45;&gt;nature</title>
<path fill="none" stroke="violet" d="M984,-169.04C984,-155.44 984,-141.15 984,-127.74"/>
<polygon fill="violet" stroke="violet" points="987.5,-127.68 984,-117.68 980.5,-127.68 987.5,-127.68"/>
<text text-anchor="middle" x="1011" y="-139.8" font-family="arial" font-size="14.00" fill="violet">a_nature</text>
</g>
<!-- morph -->
<g id="node20" class="node">
<title>morph</title>
<polygon fill="none" stroke="violet" stroke-width="2" points="1135,-16.5 1135,-117.5 1293,-117.5 1293,-16.5 1135,-16.5"/>
<text text-anchor="start" x="1185.5" y="-93.1" font-family="arial" font-weight="bold" font-size="18.00" fill="violet">morph</text>
<polyline fill="none" stroke="violet" stroke-width="2" points="1135,-75.5 1293,-75.5 "/>
<text text-anchor="start" x="1165.5" y="-50.6" font-family="arial" font-size="18.00" fill="violet">+ </text>
<text text-anchor="start" x="1181.5" y="-50.6" font-family="arial" text-decoration="underline" font-size="18.00" fill="violet">id</text>
<text text-anchor="start" x="1195.5" y="-50.6" font-family="arial" font-size="18.00" fill="violet"> </text>
<text text-anchor="start" x="1201.5" y="-50.6" font-family="arial" font-style="italic" font-size="18.00" fill="grey">smallint</text>
<text text-anchor="start" x="1165.5" y="-32.6" font-family="arial" font-size="18.00" fill="violet">+ </text>
<text text-anchor="start" x="1181.5" y="-32.6" font-family="arial" font-size="18.00" fill="violet">feats</text>
<text text-anchor="start" x="1221.5" y="-32.6" font-family="arial" font-size="18.00" fill="violet"> </text>
<text text-anchor="start" x="1227.5" y="-32.6" font-family="arial" font-style="italic" font-size="18.00" fill="grey">text</text>
</g>
<!-- lexeme&#45;&gt;morph -->
<g id="edge22" class="edge">
<title>lexeme&#45;&gt;morph</title>
<path fill="none" stroke="violet" d="M1063.15,-176.54C1086.98,-159.4 1113.09,-140.61 1136.79,-123.56"/>
<polygon fill="violet" stroke="violet" points="1139,-126.28 1145.07,-117.6 1134.91,-120.6 1139,-126.28"/>
<text text-anchor="middle" x="1139.5" y="-139.8" font-family="arial" font-size="14.00" fill="violet">a_morph</text>
</g>
</g>
</svg>
