<?xml version="1.0" encoding="UTF-8" standalone="no"?>
<!DOCTYPE svg PUBLIC "-//W3C//DTD SVG 1.1//EN"
 "http://www.w3.org/Graphics/SVG/1.1/DTD/svg11.dtd">
<!-- Generated by graphviz version 2.43.0 (0)
 -->
<!-- Title: %3 Pages: 1 -->
<svg width="958pt" height="688pt"
 viewBox="0.00 0.00 958.00 688.31" xmlns="http://www.w3.org/2000/svg" xmlns:xlink="http://www.w3.org/1999/xlink">
<g id="graph0" class="graph" transform="scale(1 1) rotate(0) translate(72 616.31)">
<title>%3</title>
<polygon fill="white" stroke="transparent" points="-72,72 -72,-616.31 886,-616.31 886,72 -72,72"/>
<g id="clust1" class="cluster">
<title>cluster_eav</title>
<polygon fill="none" stroke="black" points="8,-8 8,-536.31 368,-536.31 368,-8 8,-8"/>
</g>
<g id="clust2" class="cluster">
<title>cluster_onto</title>
<polygon fill="none" stroke="orange" points="16,-16 16,-210.87 360,-210.87 360,-16 16,-16"/>
</g>
<g id="clust4" class="cluster">
<title>cluster_prop</title>
<polygon fill="none" stroke="grey" points="78,-397.87 78,-528.31 360,-528.31 360,-397.87 78,-397.87"/>
</g>
<g id="clust6" class="cluster">
<title>cluster_nlp</title>
<polygon fill="none" stroke="turquoise" points="376,-150.87 376,-532.87 806,-532.87 806,-150.87 376,-150.87"/>
</g>
<g id="clust8" class="cluster">
<title>cluster_mot</title>
<polygon fill="none" stroke="violet" points="384,-158.87 384,-376.87 798,-376.87 798,-158.87 384,-158.87"/>
</g>
<!-- concept -->
<g id="node1" class="node">
<title>concept</title>
<polygon fill="none" stroke="orange" points="218,-123.87 146,-123.87 146,-87.87 218,-87.87 218,-123.87"/>
<text text-anchor="middle" x="182" y="-102.17" font-family="Times,serif" font-size="14.00" fill="orange">concept</text>
</g>
<!-- concept_nom -->
<g id="node5" class="node">
<title>concept_nom</title>
<ellipse fill="none" stroke="grey" cx="90" cy="-37.44" rx="27.65" ry="13.37"/>
<text text-anchor="middle" x="90" y="-34.94" font-family="Times,serif" font-size="10.00" fill="grey">nom</text>
</g>
<!-- concept&#45;&gt;concept_nom -->
<g id="edge4" class="edge">
<title>concept&#45;&gt;concept_nom</title>
<path fill="none" stroke="grey" d="M158.31,-87.76C141.38,-75.54 119.13,-59.47 104.7,-49.05"/>
</g>
<!-- concept_definition -->
<g id="node6" class="node">
<title>concept_definition</title>
<ellipse fill="none" stroke="grey" cx="182" cy="-37.44" rx="45.92" ry="13.37"/>
<text text-anchor="middle" x="182" y="-34.94" font-family="Times,serif" font-size="10.00" fill="grey">definition</text>
</g>
<!-- concept&#45;&gt;concept_definition -->
<g id="edge5" class="edge">
<title>concept&#45;&gt;concept_definition</title>
<path fill="none" stroke="grey" d="M182,-87.76C182,-76.38 182,-61.67 182,-51.29"/>
</g>
<!-- concept_id -->
<g id="node7" class="node">
<title>concept_id</title>
<ellipse fill="none" stroke="grey" cx="264" cy="-37.44" rx="18.27" ry="13.37"/>
<text text-anchor="middle" x="264" y="-34.94" font-family="Times,serif" font-size="10.00" fill="grey">id</text>
</g>
<!-- concept&#45;&gt;concept_id -->
<g id="edge6" class="edge">
<title>concept&#45;&gt;concept_id</title>
<path fill="none" stroke="grey" d="M203.12,-87.76C218.68,-75.15 239.29,-58.45 252.09,-48.08"/>
</g>
<!-- type_propriete -->
<g id="node2" class="node">
<title>type_propriete</title>
<polygon fill="none" stroke="orange" points="352,-202.87 230,-202.87 230,-166.87 352,-166.87 352,-202.87"/>
<text text-anchor="middle" x="291" y="-181.17" font-family="Times,serif" font-size="14.00" fill="orange">type_propriete</text>
</g>
<!-- type_propriete&#45;&gt;concept -->
<g id="edge2" class="edge">
<title>type_propriete&#45;&gt;concept</title>
<path fill="none" stroke="orange" stroke-dasharray="1,5" d="M266.81,-166.78C251.43,-155.92 231.32,-141.71 214.55,-129.86"/>
<polygon fill="none" stroke="orange" points="216.31,-126.82 206.12,-123.91 212.27,-132.54 216.31,-126.82"/>
</g>
<!-- type_relation -->
<g id="node3" class="node">
<title>type_relation</title>
<polygon fill="none" stroke="orange" points="134,-202.87 24,-202.87 24,-166.87 134,-166.87 134,-202.87"/>
<text text-anchor="middle" x="79" y="-181.17" font-family="Times,serif" font-size="14.00" fill="orange">type_relation</text>
</g>
<!-- type_relation&#45;&gt;concept -->
<g id="edge1" class="edge">
<title>type_relation&#45;&gt;concept</title>
<path fill="none" stroke="orange" stroke-dasharray="1,5" d="M101.86,-166.78C116.26,-156.01 135.04,-141.97 150.81,-130.19"/>
<polygon fill="none" stroke="orange" points="153.29,-132.7 159.2,-123.91 149.1,-127.1 153.29,-132.7"/>
</g>
<!-- classe -->
<g id="node4" class="node">
<title>classe</title>
<polygon fill="none" stroke="orange" points="212,-202.87 152,-202.87 152,-166.87 212,-166.87 212,-202.87"/>
<text text-anchor="middle" x="182" y="-181.17" font-family="Times,serif" font-size="14.00" fill="orange">classe</text>
</g>
<!-- classe&#45;&gt;concept -->
<g id="edge3" class="edge">
<title>classe&#45;&gt;concept</title>
<path fill="none" stroke="orange" stroke-dasharray="1,5" d="M182,-166.78C182,-157.21 182,-145.05 182,-134.19"/>
<polygon fill="none" stroke="orange" points="185.5,-133.91 182,-123.91 178.5,-133.91 185.5,-133.91"/>
</g>
<!-- entite -->
<g id="node8" class="node">
<title>entite</title>
<polygon fill="none" stroke="black" points="183.5,-285.87 124.5,-285.87 124.5,-249.87 183.5,-249.87 183.5,-285.87"/>
<text text-anchor="middle" x="154" y="-264.17" font-family="Times,serif" font-size="14.00">entite</text>
</g>
<!-- entite&#45;&gt;classe -->
<g id="edge7" class="edge">
<title>entite&#45;&gt;classe</title>
<path fill="none" stroke="orange" d="M159.94,-249.69C163.65,-238.95 168.51,-224.9 172.72,-212.71"/>
<polygon fill="orange" stroke="orange" points="176.11,-213.62 176.07,-203.02 169.5,-211.33 176.11,-213.62"/>
<text text-anchor="middle" x="210" y="-223.87" font-family="Times,serif" font-size="10.00" fill="orange">est_instance_de</text>
</g>
<!-- entite_id -->
<g id="node14" class="node">
<title>entite_id</title>
<ellipse fill="none" stroke="grey" cx="237" cy="-267.87" rx="18.27" ry="13.37"/>
<text text-anchor="middle" x="237" y="-265.37" font-family="Times,serif" font-size="10.00" fill="grey">id</text>
</g>
<!-- entite&#45;&gt;entite_id -->
<g id="edge16" class="edge">
<title>entite&#45;&gt;entite_id</title>
<path fill="none" stroke="grey" d="M183.5,-267.87C195.21,-267.87 206.91,-267.87 218.61,-267.87"/>
</g>
<!-- propriete -->
<g id="node9" class="node">
<title>propriete</title>
<polygon fill="none" stroke="black" points="277.5,-368.87 194.5,-368.87 194.5,-332.87 277.5,-332.87 277.5,-368.87"/>
<text text-anchor="middle" x="236" y="-347.17" font-family="Times,serif" font-size="14.00">propriete</text>
</g>
<!-- propriete&#45;&gt;type_propriete -->
<g id="edge9" class="edge">
<title>propriete&#45;&gt;type_propriete</title>
<path fill="none" stroke="orange" d="M244.31,-332.76C250.3,-320.03 258.29,-302.12 264,-285.87 272.53,-261.6 279.96,-233.23 284.85,-212.91"/>
<polygon fill="orange" stroke="orange" points="288.28,-213.63 287.17,-203.09 281.47,-212.02 288.28,-213.63"/>
<text text-anchor="middle" x="277.5" y="-265.37" font-family="Times,serif" font-size="10.00" fill="orange">a</text>
</g>
<!-- propriete&#45;&gt;entite -->
<g id="edge12" class="edge">
<title>propriete&#45;&gt;entite</title>
<path fill="none" stroke="black" d="M218.61,-332.69C206.98,-321.2 191.5,-305.91 178.61,-293.18"/>
<polygon fill="black" stroke="black" points="180.94,-290.56 171.37,-286.02 176.02,-295.54 180.94,-290.56"/>
<text text-anchor="middle" x="218.5" y="-306.87" font-family="Times,serif" font-size="10.00">qualifie</text>
</g>
<!-- relation -->
<g id="node10" class="node">
<title>relation</title>
<polygon fill="none" stroke="black" points="141,-368.87 69,-368.87 69,-332.87 141,-332.87 141,-368.87"/>
<text text-anchor="middle" x="105" y="-347.17" font-family="Times,serif" font-size="14.00">relation</text>
</g>
<!-- relation&#45;&gt;type_relation -->
<g id="edge8" class="edge">
<title>relation&#45;&gt;type_relation</title>
<path fill="none" stroke="orange" d="M98.86,-332.6C97.06,-327 95.25,-320.73 94,-314.87 86.6,-280.18 82.63,-239.41 80.67,-213.13"/>
<polygon fill="orange" stroke="orange" points="84.16,-212.88 79.97,-203.15 77.18,-213.37 84.16,-212.88"/>
<text text-anchor="middle" x="91.5" y="-265.37" font-family="Times,serif" font-size="10.00" fill="orange">a</text>
</g>
<!-- relation&#45;&gt;entite -->
<g id="edge10" class="edge">
<title>relation&#45;&gt;entite</title>
<path fill="none" stroke="black" d="M119.49,-332.59C123.77,-327.09 128.3,-320.88 132,-314.87 135.8,-308.69 139.43,-301.75 142.59,-295.17"/>
<polygon fill="black" stroke="black" points="145.85,-296.47 146.88,-285.93 139.5,-293.53 145.85,-296.47"/>
<text text-anchor="middle" x="150.5" y="-306.87" font-family="Times,serif" font-size="10.00">sujet</text>
</g>
<!-- relation&#45;&gt;entite -->
<g id="edge11" class="edge">
<title>relation&#45;&gt;entite</title>
<path fill="none" stroke="black" d="M99.71,-332.78C97.89,-323.7 97.34,-312.63 102,-303.87 105.33,-297.61 110.34,-292.27 115.95,-287.78"/>
<polygon fill="black" stroke="black" points="118.29,-290.42 124.48,-281.82 114.28,-284.68 118.29,-290.42"/>
<text text-anchor="middle" x="115" y="-306.87" font-family="Times,serif" font-size="10.00">objet</text>
</g>
<!-- texte -->
<g id="node11" class="node">
<title>texte</title>
<polygon fill="none" stroke="black" points="352,-441.87 298,-441.87 298,-405.87 352,-405.87 352,-441.87"/>
<text text-anchor="middle" x="325" y="-420.17" font-family="Times,serif" font-size="14.00">texte</text>
</g>
<!-- texte&#45;&gt;propriete -->
<g id="edge13" class="edge">
<title>texte&#45;&gt;propriete</title>
<path fill="none" stroke="black" stroke-dasharray="5,2" d="M303.46,-405.68C291.98,-396.53 277.69,-385.13 265.23,-375.19"/>
<polygon fill="none" stroke="black" points="267.35,-372.4 257.35,-368.9 262.98,-377.87 267.35,-372.4"/>
</g>
<!-- prop_float -->
<g id="node12" class="node">
<title>prop_float</title>
<polygon fill="none" stroke="black" points="174,-441.87 86,-441.87 86,-405.87 174,-405.87 174,-441.87"/>
<text text-anchor="middle" x="130" y="-420.17" font-family="Times,serif" font-size="14.00">prop_float</text>
</g>
<!-- prop_float&#45;&gt;propriete -->
<g id="edge14" class="edge">
<title>prop_float&#45;&gt;propriete</title>
<path fill="none" stroke="black" stroke-dasharray="5,2" d="M155.39,-405.86C169.32,-396.54 186.77,-384.84 201.87,-374.73"/>
<polygon fill="none" stroke="black" points="204.09,-377.46 210.45,-368.98 200.19,-371.64 204.09,-377.46"/>
</g>
<!-- prop_date -->
<g id="node13" class="node">
<title>prop_date</title>
<polygon fill="none" stroke="black" points="280,-441.87 192,-441.87 192,-405.87 280,-405.87 280,-441.87"/>
<text text-anchor="middle" x="236" y="-420.17" font-family="Times,serif" font-size="14.00">prop_date</text>
</g>
<!-- prop_date&#45;&gt;propriete -->
<g id="edge15" class="edge">
<title>prop_date&#45;&gt;propriete</title>
<path fill="none" stroke="black" stroke-dasharray="5,2" d="M236,-405.68C236,-397.66 236,-387.92 236,-378.94"/>
<polygon fill="none" stroke="black" points="239.5,-378.9 236,-368.9 232.5,-378.9 239.5,-378.9"/>
</g>
<!-- prop_float_val -->
<g id="node15" class="node">
<title>prop_float_val</title>
<ellipse fill="none" stroke="grey" cx="130" cy="-506.87" rx="22.76" ry="13.37"/>
<text text-anchor="middle" x="130" y="-504.37" font-family="Times,serif" font-size="10.00" fill="grey">val</text>
</g>
<!-- prop_float_val&#45;&gt;prop_float -->
<g id="edge17" class="edge">
<title>prop_float_val&#45;&gt;prop_float</title>
<path fill="none" stroke="grey" d="M130,-493.21C130,-479.42 130,-457.28 130,-441.95"/>
</g>
<!-- prop_date_val -->
<g id="node16" class="node">
<title>prop_date_val</title>
<ellipse fill="none" stroke="grey" cx="212" cy="-506.87" rx="22.76" ry="13.37"/>
<text text-anchor="middle" x="212" y="-504.37" font-family="Times,serif" font-size="10.00" fill="grey">val</text>
</g>
<!-- prop_date_val&#45;&gt;prop_date -->
<g id="edge18" class="edge">
<title>prop_date_val&#45;&gt;prop_date</title>
<path fill="none" stroke="grey" d="M215.65,-493.57C219.71,-479.85 226.31,-457.56 230.89,-442.11"/>
</g>
<!-- texte_val -->
<g id="node17" class="node">
<title>texte_val</title>
<ellipse fill="none" stroke="grey" cx="275" cy="-506.87" rx="22.76" ry="13.37"/>
<text text-anchor="middle" x="275" y="-504.37" font-family="Times,serif" font-size="10.00" fill="grey">val</text>
</g>
<!-- texte_val&#45;&gt;texte -->
<g id="edge19" class="edge">
<title>texte_val&#45;&gt;texte</title>
<path fill="none" stroke="grey" d="M282.38,-493.92C290.85,-480.19 304.83,-457.55 314.45,-441.96"/>
</g>
<!-- texte_id -->
<g id="node18" class="node">
<title>texte_id</title>
<ellipse fill="none" stroke="grey" cx="334" cy="-506.87" rx="18.27" ry="13.37"/>
<text text-anchor="middle" x="334" y="-504.37" font-family="Times,serif" font-size="10.00" fill="grey">id</text>
</g>
<!-- texte_id&#45;&gt;texte -->
<g id="edge20" class="edge">
<title>texte_id&#45;&gt;texte</title>
<path fill="none" stroke="grey" d="M332.59,-493.21C331.06,-479.42 328.6,-457.28 326.9,-441.95"/>
</g>
<!-- token -->
<g id="node19" class="node">
<title>token</title>
<polygon fill="none" stroke="turquoise" points="683,-441.87 627,-441.87 627,-405.87 683,-405.87 683,-441.87"/>
<text text-anchor="middle" x="655" y="-420.17" font-family="Times,serif" font-size="14.00" fill="turquoise">token</text>
</g>
<!-- token_num -->
<g id="node24" class="node">
<title>token_num</title>
<ellipse fill="none" stroke="grey" cx="747" cy="-423.87" rx="28.07" ry="13.37"/>
<text text-anchor="middle" x="747" y="-421.37" font-family="Times,serif" font-size="10.00" fill="grey">num</text>
</g>
<!-- token&#45;&gt;token_num -->
<g id="edge24" class="edge">
<title>token&#45;&gt;token_num</title>
<path fill="none" stroke="grey" d="M683.03,-423.87C694.86,-423.87 706.69,-423.87 718.51,-423.87"/>
</g>
<!-- mot -->
<g id="node25" class="node">
<title>mot</title>
<polygon fill="none" stroke="turquoise" points="687,-368.87 633,-368.87 633,-332.87 687,-332.87 687,-368.87"/>
<text text-anchor="middle" x="660" y="-347.17" font-family="Times,serif" font-size="14.00" fill="turquoise">mot</text>
</g>
<!-- token&#45;&gt;mot -->
<g id="edge27" class="edge">
<title>token&#45;&gt;mot</title>
<path fill="none" stroke="turquoise" stroke-dasharray="5,2" d="M656.92,-395.62C657.55,-386.64 658.24,-376.9 658.8,-368.9"/>
<polygon fill="turquoise" stroke="turquoise" points="653.42,-395.46 656.21,-405.68 660.4,-395.95 653.42,-395.46"/>
</g>
<!-- segment -->
<g id="node20" class="node">
<title>segment</title>
<polygon fill="none" stroke="turquoise" points="550,-524.87 472,-524.87 472,-488.87 550,-488.87 550,-524.87"/>
<text text-anchor="middle" x="511" y="-503.17" font-family="Times,serif" font-size="14.00" fill="turquoise">segment</text>
</g>
<!-- segment&#45;&gt;texte -->
<g id="edge21" class="edge">
<title>segment&#45;&gt;texte</title>
<path fill="none" stroke="turquoise" d="M471.55,-488.69C438.99,-474.51 393.13,-454.54 361.42,-440.73"/>
<polygon fill="turquoise" stroke="turquoise" points="362.63,-437.44 352.06,-436.66 359.84,-443.86 362.63,-437.44"/>
<text text-anchor="middle" x="441.5" y="-462.87" font-family="Times,serif" font-size="10.00" fill="turquoise">dans</text>
</g>
<!-- segment&#45;&gt;token -->
<g id="edge26" class="edge">
<title>segment&#45;&gt;token</title>
<path fill="none" stroke="turquoise" stroke-dasharray="5,2" d="M550.49,-483.66C574.72,-470.03 605.18,-452.9 626.95,-440.65"/>
<polygon fill="turquoise" stroke="turquoise" points="548.54,-480.74 541.54,-488.69 551.97,-486.84 548.54,-480.74"/>
</g>
<!-- phrase -->
<g id="node21" class="node">
<title>phrase</title>
<polygon fill="none" stroke="turquoise" points="459.5,-441.87 394.5,-441.87 394.5,-405.87 459.5,-405.87 459.5,-441.87"/>
<text text-anchor="middle" x="427" y="-420.17" font-family="Times,serif" font-size="14.00" fill="turquoise">phrase</text>
</g>
<!-- segment&#45;&gt;phrase -->
<g id="edge25" class="edge">
<title>segment&#45;&gt;phrase</title>
<path fill="none" stroke="turquoise" stroke-dasharray="5,2" d="M485.76,-481.54C472.55,-468.8 456.7,-453.51 444.79,-442.02"/>
<polygon fill="turquoise" stroke="turquoise" points="483.56,-484.27 493.19,-488.69 488.42,-479.23 483.56,-484.27"/>
</g>
<!-- segment_debut -->
<g id="node22" class="node">
<title>segment_debut</title>
<ellipse fill="none" stroke="grey" cx="511" cy="-423.87" rx="33.47" ry="13.37"/>
<text text-anchor="middle" x="511" y="-421.37" font-family="Times,serif" font-size="10.00" fill="grey">debut</text>
</g>
<!-- segment&#45;&gt;segment_debut -->
<g id="edge23" class="edge">
<title>segment&#45;&gt;segment_debut</title>
<path fill="none" stroke="grey" d="M511,-488.69C511,-473.37 511,-451.28 511,-437.52"/>
</g>
<!-- segment_fin -->
<g id="node23" class="node">
<title>segment_fin</title>
<ellipse fill="none" stroke="grey" cx="583" cy="-423.87" rx="21.43" ry="13.37"/>
<text text-anchor="middle" x="583" y="-421.37" font-family="Times,serif" font-size="10.00" fill="grey">fin</text>
</g>
<!-- segment&#45;&gt;segment_fin -->
<g id="edge22" class="edge">
<title>segment&#45;&gt;segment_fin</title>
<path fill="none" stroke="grey" d="M526.27,-488.69C540.47,-472.72 561.2,-449.4 573.27,-435.82"/>
</g>
<!-- mot_noyau -->
<g id="node26" class="node">
<title>mot_noyau</title>
<ellipse fill="none" stroke="grey" cx="756" cy="-350.87" rx="33.88" ry="13.37"/>
<text text-anchor="middle" x="756" y="-348.37" font-family="Times,serif" font-size="10.00" fill="grey">noyau</text>
</g>
<!-- mot&#45;&gt;mot_noyau -->
<g id="edge28" class="edge">
<title>mot&#45;&gt;mot_noyau</title>
<path fill="none" stroke="grey" d="M687.38,-350.87C698.9,-350.87 710.43,-350.87 721.96,-350.87"/>
</g>
<!-- lexeme -->
<g id="node27" class="node">
<title>lexeme</title>
<polygon fill="none" stroke="violet" points="698,-285.87 630,-285.87 630,-249.87 698,-249.87 698,-285.87"/>
<text text-anchor="middle" x="664" y="-264.17" font-family="Times,serif" font-size="14.00" fill="violet">lexeme</text>
</g>
<!-- mot&#45;&gt;lexeme -->
<g id="edge29" class="edge">
<title>mot&#45;&gt;lexeme</title>
<path fill="none" stroke="violet" d="M656.24,-332.81C654.81,-324.14 653.79,-313.43 655,-303.87 655.32,-301.31 655.78,-298.67 656.31,-296.04"/>
<polygon fill="violet" stroke="violet" points="659.75,-296.69 658.64,-286.15 652.94,-295.08 659.75,-296.69"/>
<text text-anchor="middle" x="696" y="-306.87" font-family="Times,serif" font-size="10.00" fill="violet">est_instance_de</text>
</g>
<!-- fonction -->
<g id="node28" class="node">
<title>fonction</title>
<polygon fill="none" stroke="violet" points="790,-285.87 716,-285.87 716,-249.87 790,-249.87 790,-285.87"/>
<text text-anchor="middle" x="753" y="-264.17" font-family="Times,serif" font-size="14.00" fill="violet">fonction</text>
</g>
<!-- mot&#45;&gt;fonction -->
<g id="edge30" class="edge">
<title>mot&#45;&gt;fonction</title>
<path fill="none" stroke="violet" d="M687.13,-343.39C703.57,-338.18 723.84,-329.3 737,-314.87 741.9,-309.5 745.31,-302.54 747.69,-295.68"/>
<polygon fill="violet" stroke="violet" points="751.11,-296.45 750.47,-285.87 744.37,-294.54 751.11,-296.45"/>
<text text-anchor="middle" x="747.5" y="-306.87" font-family="Times,serif" font-size="10.00" fill="violet">a</text>
</g>
<!-- lemme -->
<g id="node29" class="node">
<title>lemme</title>
<polygon fill="none" stroke="violet" points="554.5,-202.87 489.5,-202.87 489.5,-166.87 554.5,-166.87 554.5,-202.87"/>
<text text-anchor="middle" x="522" y="-181.17" font-family="Times,serif" font-size="14.00" fill="violet">lemme</text>
</g>
<!-- lexeme&#45;&gt;lemme -->
<g id="edge38" class="edge">
<title>lexeme&#45;&gt;lemme</title>
<path fill="none" stroke="violet" d="M633.89,-249.69C612.61,-237.56 583.91,-221.18 560.9,-208.06"/>
<polygon fill="violet" stroke="violet" points="562.49,-204.94 552.07,-203.02 559.02,-211.02 562.49,-204.94"/>
<text text-anchor="middle" x="604.5" y="-223.87" font-family="Times,serif" font-size="10.00" fill="violet">a</text>
</g>
<!-- nature -->
<g id="node30" class="node">
<title>nature</title>
<polygon fill="none" stroke="violet" points="657,-202.87 593,-202.87 593,-166.87 657,-166.87 657,-202.87"/>
<text text-anchor="middle" x="625" y="-181.17" font-family="Times,serif" font-size="14.00" fill="violet">nature</text>
</g>
<!-- lexeme&#45;&gt;nature -->
<g id="edge36" class="edge">
<title>lexeme&#45;&gt;nature</title>
<path fill="none" stroke="violet" d="M655.73,-249.69C650.51,-238.85 643.65,-224.61 637.75,-212.34"/>
<polygon fill="violet" stroke="violet" points="640.75,-210.51 633.26,-203.02 634.44,-213.55 640.75,-210.51"/>
<text text-anchor="middle" x="649.5" y="-223.87" font-family="Times,serif" font-size="10.00" fill="violet">a</text>
</g>
<!-- morph -->
<g id="node31" class="node">
<title>morph</title>
<polygon fill="none" stroke="violet" points="738.5,-202.87 675.5,-202.87 675.5,-166.87 738.5,-166.87 738.5,-202.87"/>
<text text-anchor="middle" x="707" y="-181.17" font-family="Times,serif" font-size="14.00" fill="violet">morph</text>
</g>
<!-- lexeme&#45;&gt;morph -->
<g id="edge37" class="edge">
<title>lexeme&#45;&gt;morph</title>
<path fill="none" stroke="violet" d="M673.12,-249.69C678.93,-238.74 686.58,-224.33 693.14,-211.98"/>
<polygon fill="violet" stroke="violet" points="696.3,-213.5 697.89,-203.02 690.11,-210.21 696.3,-213.5"/>
<text text-anchor="middle" x="691.5" y="-223.87" font-family="Times,serif" font-size="10.00" fill="violet">a</text>
</g>
<!-- lexeme_id -->
<g id="node32" class="node">
<title>lexeme_id</title>
<ellipse fill="none" stroke="grey" cx="597" cy="-350.87" rx="18.27" ry="13.37"/>
<text text-anchor="middle" x="597" y="-348.37" font-family="Times,serif" font-size="10.00" fill="grey">id</text>
</g>
<!-- lexeme_id&#45;&gt;lexeme -->
<g id="edge31" class="edge">
<title>lexeme_id&#45;&gt;lexeme</title>
<path fill="none" stroke="grey" d="M606.04,-338.95C617.25,-325.39 636.51,-302.1 649.73,-286.12"/>
</g>
<!-- lexeme_norme -->
<g id="node33" class="node">
<title>lexeme_norme</title>
<ellipse fill="none" stroke="grey" cx="525" cy="-350.87" rx="35.21" ry="13.37"/>
<text text-anchor="middle" x="525" y="-348.37" font-family="Times,serif" font-size="10.00" fill="grey">norme</text>
</g>
<!-- lexeme_norme&#45;&gt;lexeme -->
<g id="edge32" class="edge">
<title>lexeme_norme&#45;&gt;lexeme</title>
<path fill="none" stroke="grey" d="M543.17,-339.28C566.43,-325.73 607,-302.08 634.66,-285.97"/>
</g>
<!-- lemme_id -->
<g id="node34" class="node">
<title>lemme_id</title>
<ellipse fill="none" stroke="grey" cx="410" cy="-267.87" rx="18.27" ry="13.37"/>
<text text-anchor="middle" x="410" y="-265.37" font-family="Times,serif" font-size="10.00" fill="grey">id</text>
</g>
<!-- lemme_id&#45;&gt;lemme -->
<g id="edge33" class="edge">
<title>lemme_id&#45;&gt;lemme</title>
<path fill="none" stroke="grey" d="M422.41,-257.89C440.64,-244.71 474.98,-219.87 498.18,-203.1"/>
</g>
<!-- lemme_graphie -->
<g id="node35" class="node">
<title>lemme_graphie</title>
<ellipse fill="none" stroke="grey" cx="572" cy="-267.87" rx="39.7" ry="13.37"/>
<text text-anchor="middle" x="572" y="-265.37" font-family="Times,serif" font-size="10.00" fill="grey">graphie</text>
</g>
<!-- lemme_graphie&#45;&gt;lemme -->
<g id="edge34" class="edge">
<title>lemme_graphie&#45;&gt;lemme</title>
<path fill="none" stroke="grey" d="M564.41,-254.57C555.94,-240.85 542.18,-218.56 532.64,-203.11"/>
</g>
<!-- lemme_vec -->
<g id="node36" class="node">
<title>lemme_vec</title>
<ellipse fill="none" stroke="grey" cx="480" cy="-267.87" rx="33.88" ry="13.37"/>
<text text-anchor="middle" x="480" y="-265.37" font-family="Times,serif" font-size="10.00" fill="grey">vector</text>
</g>
<!-- lemme_vec&#45;&gt;lemme -->
<g id="edge35" class="edge">
<title>lemme_vec&#45;&gt;lemme</title>
<path fill="none" stroke="grey" d="M486.38,-254.57C493.49,-240.85 505.05,-218.56 513.06,-203.11"/>
</g>
</g>
</svg>
