<?xml version="1.0" encoding="UTF-8" standalone="no"?>
<!DOCTYPE svg PUBLIC "-//W3C//DTD SVG 1.1//EN"
 "http://www.w3.org/Graphics/SVG/1.1/DTD/svg11.dtd">
<!-- Generated by graphviz version 2.43.0 (0)
 -->
<!-- Title: %3 Pages: 1 -->
<svg width="845pt" height="767pt"
 viewBox="0.00 0.00 845.00 766.61" xmlns="http://www.w3.org/2000/svg" xmlns:xlink="http://www.w3.org/1999/xlink">
<g id="graph0" class="graph" transform="scale(1 1) rotate(0) translate(72 694.61)">
<title>%3</title>
<polygon fill="white" stroke="transparent" points="-72,72 -72,-694.61 773,-694.61 773,72 -72,72"/>
<!-- classe -->
<g id="node1" class="node">
<title>classe</title>
<polygon fill="none" stroke="turquoise" points="234,-172.87 174,-172.87 174,-136.87 234,-136.87 234,-172.87"/>
<text text-anchor="middle" x="204" y="-151.17" font-family="Times,serif" font-size="14.00" fill="turquoise">classe</text>
</g>
<!-- concept -->
<g id="node17" class="node">
<title>concept</title>
<polygon fill="none" stroke="orange" points="448,-99.87 376,-99.87 376,-63.87 448,-63.87 448,-99.87"/>
<text text-anchor="middle" x="412" y="-78.17" font-family="Times,serif" font-size="14.00" fill="orange">concept</text>
</g>
<!-- classe&#45;&gt;concept -->
<g id="edge3" class="edge">
<title>classe&#45;&gt;concept</title>
<path fill="none" stroke="orange" stroke-dasharray="1,5" d="M234.11,-140.38C237.1,-139.16 240.1,-137.96 243,-136.87 284.06,-121.41 331.75,-106.43 365.98,-96.19"/>
<polygon fill="none" stroke="orange" points="367.11,-99.51 375.7,-93.3 365.12,-92.8 367.11,-99.51"/>
</g>
<!-- type_relation -->
<g id="node2" class="node">
<title>type_relation</title>
<polygon fill="none" stroke="turquoise" points="362,-172.87 252,-172.87 252,-136.87 362,-136.87 362,-172.87"/>
<text text-anchor="middle" x="307" y="-151.17" font-family="Times,serif" font-size="14.00" fill="turquoise">type_relation</text>
</g>
<!-- type_relation&#45;&gt;concept -->
<g id="edge1" class="edge">
<title>type_relation&#45;&gt;concept</title>
<path fill="none" stroke="orange" stroke-dasharray="1,5" d="M332.15,-136.86C345.95,-127.54 363.24,-115.84 378.2,-105.73"/>
<polygon fill="none" stroke="orange" points="380.37,-108.48 386.69,-99.98 376.45,-102.69 380.37,-108.48"/>
</g>
<!-- type_propriete -->
<g id="node3" class="node">
<title>type_propriete</title>
<polygon fill="none" stroke="turquoise" points="156,-172.87 34,-172.87 34,-136.87 156,-136.87 156,-172.87"/>
<text text-anchor="middle" x="95" y="-151.17" font-family="Times,serif" font-size="14.00" fill="turquoise">type_propriete</text>
</g>
<!-- type_propriete&#45;&gt;concept -->
<g id="edge2" class="edge">
<title>type_propriete&#45;&gt;concept</title>
<path fill="none" stroke="orange" stroke-dasharray="1,5" d="M156.06,-138.95C159.08,-138.24 162.08,-137.54 165,-136.87 235.03,-120.71 316.51,-103.14 366.15,-92.56"/>
<polygon fill="none" stroke="orange" points="366.89,-95.98 375.94,-90.48 365.44,-89.14 366.89,-95.98"/>
</g>
<!-- nature -->
<g id="node4" class="node">
<title>nature</title>
<polygon fill="none" stroke="violet" points="444,-172.87 380,-172.87 380,-136.87 444,-136.87 444,-172.87"/>
<text text-anchor="middle" x="412" y="-151.17" font-family="Times,serif" font-size="14.00" fill="violet">nature</text>
</g>
<!-- nature&#45;&gt;concept -->
<g id="edge4" class="edge">
<title>nature&#45;&gt;concept</title>
<path fill="none" stroke="orange" stroke-dasharray="1,5" d="M412,-136.68C412,-128.66 412,-118.92 412,-109.94"/>
<polygon fill="none" stroke="orange" points="415.5,-109.9 412,-99.9 408.5,-109.9 415.5,-109.9"/>
</g>
<!-- fonction -->
<g id="node5" class="node">
<title>fonction</title>
<polygon fill="none" stroke="violet" points="701,-172.87 627,-172.87 627,-136.87 701,-136.87 701,-172.87"/>
<text text-anchor="middle" x="664" y="-151.17" font-family="Times,serif" font-size="14.00" fill="violet">fonction</text>
</g>
<!-- fonction&#45;&gt;concept -->
<g id="edge5" class="edge">
<title>fonction&#45;&gt;concept</title>
<path fill="none" stroke="orange" stroke-dasharray="1,5" d="M626.95,-139.82C623.93,-138.79 620.92,-137.79 618,-136.87 563.6,-119.73 499.95,-103.64 457.96,-93.55"/>
<polygon fill="none" stroke="orange" points="458.57,-90.1 448.03,-91.19 456.94,-96.91 458.57,-90.1"/>
</g>
<!-- morph -->
<g id="node6" class="node">
<title>morph</title>
<polygon fill="none" stroke="violet" points="525.5,-172.87 462.5,-172.87 462.5,-136.87 525.5,-136.87 525.5,-172.87"/>
<text text-anchor="middle" x="494" y="-151.17" font-family="Times,serif" font-size="14.00" fill="violet">morph</text>
</g>
<!-- morph&#45;&gt;concept -->
<g id="edge6" class="edge">
<title>morph&#45;&gt;concept</title>
<path fill="none" stroke="orange" stroke-dasharray="1,5" d="M474.15,-136.68C463.67,-127.61 450.66,-116.35 439.26,-106.47"/>
<polygon fill="none" stroke="orange" points="441.52,-103.8 431.67,-99.9 436.94,-109.09 441.52,-103.8"/>
</g>
<!-- segment -->
<g id="node7" class="node">
<title>segment</title>
<polygon fill="none" stroke="black" points="370,-558.74 292,-558.74 292,-522.74 370,-522.74 370,-558.74"/>
<text text-anchor="middle" x="331" y="-537.04" font-family="Times,serif" font-size="14.00">segment</text>
</g>
<!-- token -->
<g id="node8" class="node">
<title>token</title>
<polygon fill="none" stroke="black" points="481,-558.74 425,-558.74 425,-522.74 481,-522.74 481,-558.74"/>
<text text-anchor="middle" x="453" y="-537.04" font-family="Times,serif" font-size="14.00">token</text>
</g>
<!-- segment&#45;&gt;token -->
<g id="edge17" class="edge">
<title>segment&#45;&gt;token</title>
<path fill="none" stroke="black" stroke-dasharray="5,2" d="M380.34,-540.74C395.17,-540.74 409.99,-540.74 424.82,-540.74"/>
<polygon fill="none" stroke="black" points="380.08,-537.24 370.08,-540.74 380.08,-544.24 380.08,-537.24"/>
</g>
<!-- texte -->
<g id="node11" class="node">
<title>texte</title>
<polygon fill="none" stroke="blue" points="284,-421.87 230,-421.87 230,-385.87 284,-385.87 284,-421.87"/>
<text text-anchor="middle" x="257" y="-400.17" font-family="Times,serif" font-size="14.00" fill="blue">texte</text>
</g>
<!-- segment&#45;&gt;texte -->
<g id="edge15" class="edge">
<title>segment&#45;&gt;texte</title>
<path fill="none" stroke="black" d="M327.34,-522.51C323.27,-505.55 315.68,-479.3 304,-458.87 298.05,-448.46 289.91,-438.23 282.08,-429.52"/>
<polygon fill="black" stroke="black" points="284.42,-426.9 275.04,-421.98 279.31,-431.68 284.42,-426.9"/>
<text text-anchor="middle" x="338" y="-469.81" font-family="Times,serif" font-size="10.00">est_dans</text>
</g>
<!-- texte_val -->
<g id="node14" class="node">
<title>texte_val</title>
<ellipse fill="none" stroke="blue" cx="218" cy="-472.31" rx="22.76" ry="13.37"/>
<text text-anchor="middle" x="218" y="-469.81" font-family="Times,serif" font-size="10.00" fill="blue">val</text>
</g>
<!-- segment&#45;&gt;texte_val -->
<g id="edge40" class="edge">
<title>segment&#45;&gt;texte_val</title>
<path fill="none" stroke="transparent" d="M301.9,-522.63C283.47,-511.8 259.91,-497.95 242.45,-487.68"/>
<polygon fill="transparent" stroke="transparent" points="243.85,-484.44 233.45,-482.39 240.3,-490.47 243.85,-484.44"/>
</g>
<!-- mot -->
<g id="node10" class="node">
<title>mot</title>
<polygon fill="none" stroke="black" points="581,-558.74 527,-558.74 527,-522.74 581,-522.74 581,-558.74"/>
<text text-anchor="middle" x="554" y="-537.04" font-family="Times,serif" font-size="14.00">mot</text>
</g>
<!-- token&#45;&gt;mot -->
<g id="edge18" class="edge">
<title>token&#45;&gt;mot</title>
<path fill="none" stroke="black" stroke-dasharray="5,2" d="M491.05,-540.74C503.01,-540.74 514.96,-540.74 526.91,-540.74"/>
<polygon fill="none" stroke="black" points="491.01,-537.24 481.01,-540.74 491.01,-544.24 491.01,-537.24"/>
</g>
<!-- phrase -->
<g id="node9" class="node">
<title>phrase</title>
<polygon fill="none" stroke="black" points="256.5,-558.74 191.5,-558.74 191.5,-522.74 256.5,-522.74 256.5,-558.74"/>
<text text-anchor="middle" x="224" y="-537.04" font-family="Times,serif" font-size="14.00">phrase</text>
</g>
<!-- phrase&#45;&gt;segment -->
<g id="edge16" class="edge">
<title>phrase&#45;&gt;segment</title>
<path fill="none" stroke="black" stroke-dasharray="5,2" d="M256.6,-540.74C264.93,-540.74 273.27,-540.74 281.6,-540.74"/>
<polygon fill="none" stroke="black" points="281.77,-544.24 291.77,-540.74 281.77,-537.24 281.77,-544.24"/>
</g>
<!-- mot&#45;&gt;fonction -->
<g id="edge19" class="edge">
<title>mot&#45;&gt;fonction</title>
<path fill="none" stroke="violet" d="M581.19,-535.49C613.77,-528.67 664,-511.9 664,-473.31 664,-473.31 664,-473.31 664,-236.87 664,-218.93 664,-198.76 664,-183.03"/>
<polygon fill="violet" stroke="violet" points="667.5,-182.94 664,-172.94 660.5,-182.94 667.5,-182.94"/>
<text text-anchor="middle" x="667.5" y="-359.87" font-family="Times,serif" font-size="10.00" fill="violet">a</text>
</g>
<!-- lexeme -->
<g id="node22" class="node">
<title>lexeme</title>
<polygon fill="none" stroke="violet" points="526,-255.87 458,-255.87 458,-219.87 526,-219.87 526,-255.87"/>
<text text-anchor="middle" x="492" y="-234.17" font-family="Times,serif" font-size="14.00" fill="violet">lexeme</text>
</g>
<!-- mot&#45;&gt;lexeme -->
<g id="edge23" class="edge">
<title>mot&#45;&gt;lexeme</title>
<path fill="none" stroke="violet" d="M554,-522.53C554,-509.12 554,-490.03 554,-473.31 554,-473.31 554,-473.31 554,-319.87 554,-297.35 538.7,-277.21 523.3,-262.65"/>
<polygon fill="violet" stroke="violet" points="525.59,-260 515.79,-255.96 520.93,-265.23 525.59,-260"/>
<text text-anchor="middle" x="595" y="-401.37" font-family="Times,serif" font-size="10.00" fill="violet">est_instance_de</text>
</g>
<!-- prop_date -->
<g id="node12" class="node">
<title>prop_date</title>
<polygon fill="none" stroke="blue" points="88,-421.87 0,-421.87 0,-385.87 88,-385.87 88,-421.87"/>
<text text-anchor="middle" x="44" y="-400.17" font-family="Times,serif" font-size="14.00" fill="blue">prop_date</text>
</g>
<!-- propriete -->
<g id="node20" class="node">
<title>propriete</title>
<polygon fill="none" stroke="blue" points="148.5,-338.87 65.5,-338.87 65.5,-302.87 148.5,-302.87 148.5,-338.87"/>
<text text-anchor="middle" x="107" y="-317.17" font-family="Times,serif" font-size="14.00" fill="blue">propriete</text>
</g>
<!-- prop_date&#45;&gt;propriete -->
<g id="edge25" class="edge">
<title>prop_date&#45;&gt;propriete</title>
<path fill="none" stroke="blue" stroke-dasharray="5,2" d="M57.36,-385.69C66.05,-374.52 77.53,-359.77 87.26,-347.25"/>
<polygon fill="none" stroke="blue" points="90.28,-349.07 93.66,-339.02 84.76,-344.77 90.28,-349.07"/>
</g>
<!-- prop_float -->
<g id="node13" class="node">
<title>prop_float</title>
<polygon fill="none" stroke="blue" points="194,-421.87 106,-421.87 106,-385.87 194,-385.87 194,-421.87"/>
<text text-anchor="middle" x="150" y="-400.17" font-family="Times,serif" font-size="14.00" fill="blue">prop_float</text>
</g>
<!-- prop_float&#45;&gt;texte -->
<g id="edge41" class="edge">
<title>prop_float&#45;&gt;texte</title>
<path fill="none" stroke="transparent" d="M194.3,-403.87C202.66,-403.87 211.02,-403.87 219.38,-403.87"/>
<polygon fill="transparent" stroke="transparent" points="219.57,-407.37 229.57,-403.87 219.57,-400.37 219.57,-407.37"/>
</g>
<!-- prop_float&#45;&gt;propriete -->
<g id="edge24" class="edge">
<title>prop_float&#45;&gt;propriete</title>
<path fill="none" stroke="blue" stroke-dasharray="5,2" d="M140.88,-385.69C135.07,-374.74 127.42,-360.33 120.86,-347.98"/>
<polygon fill="none" stroke="blue" points="123.89,-346.21 116.11,-339.02 117.7,-349.5 123.89,-346.21"/>
</g>
<!-- texte_val&#45;&gt;texte -->
<g id="edge38" class="edge">
<title>texte_val&#45;&gt;texte</title>
<path fill="none" stroke="blue" d="M224.97,-459.43C231.11,-448.98 240.11,-433.64 247.01,-421.89"/>
</g>
<!-- prop_date_val -->
<g id="node15" class="node">
<title>prop_date_val</title>
<ellipse fill="none" stroke="blue" cx="44" cy="-472.31" rx="22.76" ry="13.37"/>
<text text-anchor="middle" x="44" y="-469.81" font-family="Times,serif" font-size="10.00" fill="blue">val</text>
</g>
<!-- prop_date_val&#45;&gt;prop_date -->
<g id="edge37" class="edge">
<title>prop_date_val&#45;&gt;prop_date</title>
<path fill="none" stroke="blue" d="M44,-458.81C44,-448.44 44,-433.57 44,-422.07"/>
</g>
<!-- prop_float_val -->
<g id="node16" class="node">
<title>prop_float_val</title>
<ellipse fill="none" stroke="blue" cx="150" cy="-472.31" rx="22.76" ry="13.37"/>
<text text-anchor="middle" x="150" y="-469.81" font-family="Times,serif" font-size="10.00" fill="blue">val</text>
</g>
<!-- prop_float_val&#45;&gt;prop_float -->
<g id="edge36" class="edge">
<title>prop_float_val&#45;&gt;prop_float</title>
<path fill="none" stroke="blue" d="M150,-458.81C150,-448.44 150,-433.57 150,-422.07"/>
</g>
<!-- concept_nom -->
<g id="node23" class="node">
<title>concept_nom</title>
<ellipse fill="none" stroke="orange" cx="320" cy="-13.44" rx="27.65" ry="13.37"/>
<text text-anchor="middle" x="320" y="-10.94" font-family="Times,serif" font-size="10.00" fill="orange">nom</text>
</g>
<!-- concept&#45;&gt;concept_nom -->
<g id="edge26" class="edge">
<title>concept&#45;&gt;concept_nom</title>
<path fill="none" stroke="orange" d="M388.31,-63.76C371.38,-51.54 349.13,-35.47 334.7,-25.05"/>
</g>
<!-- concept_definition -->
<g id="node24" class="node">
<title>concept_definition</title>
<ellipse fill="none" stroke="orange" cx="412" cy="-13.44" rx="45.92" ry="13.37"/>
<text text-anchor="middle" x="412" y="-10.94" font-family="Times,serif" font-size="10.00" fill="orange">definition</text>
</g>
<!-- concept&#45;&gt;concept_definition -->
<g id="edge27" class="edge">
<title>concept&#45;&gt;concept_definition</title>
<path fill="none" stroke="orange" d="M412,-63.76C412,-52.38 412,-37.67 412,-27.29"/>
</g>
<!-- concept_id -->
<g id="node25" class="node">
<title>concept_id</title>
<ellipse fill="none" stroke="orange" cx="494" cy="-13.44" rx="18.27" ry="13.37"/>
<text text-anchor="middle" x="494" y="-10.94" font-family="Times,serif" font-size="10.00" fill="orange">id</text>
</g>
<!-- concept&#45;&gt;concept_id -->
<g id="edge28" class="edge">
<title>concept&#45;&gt;concept_id</title>
<path fill="none" stroke="orange" d="M433.12,-63.76C448.68,-51.15 469.29,-34.45 482.09,-24.08"/>
</g>
<!-- lemme -->
<g id="node18" class="node">
<title>lemme</title>
<polygon fill="none" stroke="violet" points="608.5,-172.87 543.5,-172.87 543.5,-136.87 608.5,-136.87 608.5,-172.87"/>
<text text-anchor="middle" x="576" y="-151.17" font-family="Times,serif" font-size="14.00" fill="violet">lemme</text>
</g>
<!-- lemme&#45;&gt;concept -->
<g id="edge7" class="edge">
<title>lemme&#45;&gt;concept</title>
<path fill="none" stroke="orange" stroke-dasharray="1,5" d="M543.21,-139.67C518.62,-129.03 484.68,-114.33 457.47,-102.56"/>
<polygon fill="none" stroke="orange" points="458.72,-99.28 448.16,-98.52 455.94,-105.71 458.72,-99.28"/>
</g>
<!-- entite -->
<g id="node19" class="node">
<title>entite</title>
<polygon fill="none" stroke="blue" points="233.5,-255.87 174.5,-255.87 174.5,-219.87 233.5,-219.87 233.5,-255.87"/>
<text text-anchor="middle" x="204" y="-234.17" font-family="Times,serif" font-size="14.00" fill="blue">entite</text>
</g>
<!-- entite&#45;&gt;classe -->
<g id="edge12" class="edge">
<title>entite&#45;&gt;classe</title>
<path fill="none" stroke="turquoise" d="M204,-219.69C204,-209.06 204,-195.18 204,-183.07"/>
<polygon fill="turquoise" stroke="turquoise" points="207.5,-183.02 204,-173.02 200.5,-183.02 207.5,-183.02"/>
<text text-anchor="middle" x="245" y="-193.87" font-family="Times,serif" font-size="10.00" fill="turquoise">est_instance_de</text>
</g>
<!-- propriete&#45;&gt;type_propriete -->
<g id="edge14" class="edge">
<title>propriete&#45;&gt;type_propriete</title>
<path fill="none" stroke="turquoise" d="M105.74,-302.63C103.65,-274.13 99.47,-216.99 96.99,-183.03"/>
<polygon fill="turquoise" stroke="turquoise" points="100.47,-182.6 96.24,-172.88 93.48,-183.11 100.47,-182.6"/>
<text text-anchor="middle" x="106.5" y="-235.37" font-family="Times,serif" font-size="10.00" fill="turquoise">a</text>
</g>
<!-- propriete&#45;&gt;texte -->
<g id="edge11" class="edge">
<title>propriete&#45;&gt;texte</title>
<path fill="none" stroke="blue" stroke-dasharray="5,2" d="M147.55,-343.77C173.66,-357.86 206.88,-375.8 229.84,-388.2"/>
<polygon fill="none" stroke="blue" points="149.1,-340.63 138.64,-338.96 145.78,-346.79 149.1,-340.63"/>
</g>
<!-- propriete&#45;&gt;entite -->
<g id="edge10" class="edge">
<title>propriete&#45;&gt;entite</title>
<path fill="none" stroke="blue" d="M121.22,-302.73C129.19,-293.64 139.61,-282.57 150,-273.87 155,-269.68 160.53,-265.58 166.09,-261.75"/>
<polygon fill="blue" stroke="blue" points="168.39,-264.42 174.77,-255.97 164.51,-258.6 168.39,-264.42"/>
<text text-anchor="middle" x="169.5" y="-276.87" font-family="Times,serif" font-size="10.00" fill="blue">qualifie</text>
</g>
<!-- relation -->
<g id="node21" class="node">
<title>relation</title>
<polygon fill="none" stroke="blue" points="302,-338.87 230,-338.87 230,-302.87 302,-302.87 302,-338.87"/>
<text text-anchor="middle" x="266" y="-317.17" font-family="Times,serif" font-size="14.00" fill="blue">relation</text>
</g>
<!-- relation&#45;&gt;type_relation -->
<g id="edge13" class="edge">
<title>relation&#45;&gt;type_relation</title>
<path fill="none" stroke="turquoise" d="M273.59,-302.64C275.86,-297.04 278.22,-290.76 280,-284.87 290.41,-250.41 298.22,-209.59 302.7,-183.23"/>
<polygon fill="turquoise" stroke="turquoise" points="306.18,-183.66 304.36,-173.22 299.27,-182.51 306.18,-183.66"/>
<text text-anchor="middle" x="298.5" y="-235.37" font-family="Times,serif" font-size="10.00" fill="turquoise">a</text>
</g>
<!-- relation&#45;&gt;entite -->
<g id="edge8" class="edge">
<title>relation&#45;&gt;entite</title>
<path fill="none" stroke="blue" d="M237.12,-302.73C230.44,-297.67 223.87,-291.65 219,-284.87 215.01,-279.32 212.04,-272.65 209.85,-266.13"/>
<polygon fill="blue" stroke="blue" points="213.12,-264.85 207,-256.2 206.39,-266.78 213.12,-264.85"/>
<text text-anchor="middle" x="231.5" y="-276.87" font-family="Times,serif" font-size="10.00" fill="blue">sujet</text>
</g>
<!-- relation&#45;&gt;entite -->
<g id="edge9" class="edge">
<title>relation&#45;&gt;entite</title>
<path fill="none" stroke="blue" d="M259.78,-302.77C256,-293.68 250.63,-282.62 244,-273.87 241.09,-270.03 237.69,-266.3 234.14,-262.79"/>
<polygon fill="blue" stroke="blue" points="236.45,-260.16 226.73,-255.95 231.7,-265.3 236.45,-260.16"/>
<text text-anchor="middle" x="263" y="-276.87" font-family="Times,serif" font-size="10.00" fill="blue">objet</text>
</g>
<!-- lexeme&#45;&gt;nature -->
<g id="edge20" class="edge">
<title>lexeme&#45;&gt;nature</title>
<path fill="none" stroke="violet" d="M475.03,-219.69C463.69,-208.2 448.58,-192.91 436.01,-180.18"/>
<polygon fill="violet" stroke="violet" points="438.46,-177.68 428.94,-173.02 433.48,-182.6 438.46,-177.68"/>
<text text-anchor="middle" x="459.5" y="-193.87" font-family="Times,serif" font-size="10.00" fill="violet">a</text>
</g>
<!-- lexeme&#45;&gt;morph -->
<g id="edge21" class="edge">
<title>lexeme&#45;&gt;morph</title>
<path fill="none" stroke="violet" d="M492.42,-219.69C492.69,-209.06 493.03,-195.18 493.33,-183.07"/>
<polygon fill="violet" stroke="violet" points="496.83,-183.11 493.58,-173.02 489.83,-182.93 496.83,-183.11"/>
<text text-anchor="middle" x="496.5" y="-193.87" font-family="Times,serif" font-size="10.00" fill="violet">a</text>
</g>
<!-- lexeme&#45;&gt;lemme -->
<g id="edge22" class="edge">
<title>lexeme&#45;&gt;lemme</title>
<path fill="none" stroke="violet" d="M509.81,-219.69C521.73,-208.2 537.59,-192.91 550.79,-180.18"/>
<polygon fill="violet" stroke="violet" points="553.44,-182.48 558.21,-173.02 548.58,-177.45 553.44,-182.48"/>
<text text-anchor="middle" x="542.5" y="-193.87" font-family="Times,serif" font-size="10.00" fill="violet">a</text>
</g>
<!-- entite_id -->
<g id="node26" class="node">
<title>entite_id</title>
<ellipse fill="none" stroke="blue" cx="185" cy="-320.87" rx="18.27" ry="13.37"/>
<text text-anchor="middle" x="185" y="-318.37" font-family="Times,serif" font-size="10.00" fill="blue">id</text>
</g>
<!-- entite_id&#45;&gt;entite -->
<g id="edge29" class="edge">
<title>entite_id&#45;&gt;entite</title>
<path fill="none" stroke="blue" d="M187.89,-307.57C191.1,-293.85 196.33,-271.56 199.96,-256.11"/>
</g>
<!-- segment_debut -->
<g id="node27" class="node">
<title>segment_debut</title>
<ellipse fill="none" stroke="black" cx="300" cy="-609.18" rx="33.47" ry="13.37"/>
<text text-anchor="middle" x="300" y="-606.68" font-family="Times,serif" font-size="10.00">debut</text>
</g>
<!-- segment_debut&#45;&gt;segment -->
<g id="edge31" class="edge">
<title>segment_debut&#45;&gt;segment</title>
<path fill="none" stroke="black" d="M305.83,-595.68C310.67,-585.31 317.61,-570.44 322.97,-558.94"/>
</g>
<!-- segment_fin -->
<g id="node28" class="node">
<title>segment_fin</title>
<ellipse fill="none" stroke="black" cx="372" cy="-609.18" rx="21.43" ry="13.37"/>
<text text-anchor="middle" x="372" y="-606.68" font-family="Times,serif" font-size="10.00">fin</text>
</g>
<!-- segment_fin&#45;&gt;segment -->
<g id="edge30" class="edge">
<title>segment_fin&#45;&gt;segment</title>
<path fill="none" stroke="black" d="M364.67,-596.3C358.22,-585.85 348.76,-570.51 341.5,-558.76"/>
</g>
<!-- token_num -->
<g id="node29" class="node">
<title>token_num</title>
<ellipse fill="none" stroke="black" cx="453" cy="-609.18" rx="21.43" ry="13.37"/>
<text text-anchor="middle" x="453" y="-606.68" font-family="Times,serif" font-size="10.00">fin</text>
</g>
<!-- token_num&#45;&gt;token -->
<g id="edge32" class="edge">
<title>token_num&#45;&gt;token</title>
<path fill="none" stroke="black" d="M453,-595.68C453,-585.31 453,-570.44 453,-558.94"/>
</g>
<!-- mot_noyau -->
<g id="node30" class="node">
<title>mot_noyau</title>
<ellipse fill="none" stroke="black" cx="554" cy="-609.18" rx="33.88" ry="13.37"/>
<text text-anchor="middle" x="554" y="-606.68" font-family="Times,serif" font-size="10.00">noyau</text>
</g>
<!-- mot_noyau&#45;&gt;mot -->
<g id="edge33" class="edge">
<title>mot_noyau&#45;&gt;mot</title>
<path fill="none" stroke="black" d="M554,-595.68C554,-585.31 554,-570.44 554,-558.94"/>
</g>
<!-- lexeme_id -->
<g id="node31" class="node">
<title>lexeme_id</title>
<ellipse fill="none" stroke="violet" cx="419" cy="-320.87" rx="18.27" ry="13.37"/>
<text text-anchor="middle" x="419" y="-318.37" font-family="Times,serif" font-size="10.00" fill="violet">id</text>
</g>
<!-- lexeme_id&#45;&gt;lexeme -->
<g id="edge34" class="edge">
<title>lexeme_id&#45;&gt;lexeme</title>
<path fill="none" stroke="violet" d="M428.54,-309.28C440.76,-295.73 462.07,-272.08 476.59,-255.97"/>
</g>
<!-- lexeme_norme -->
<g id="node32" class="node">
<title>lexeme_norme</title>
<ellipse fill="none" stroke="violet" cx="491" cy="-320.87" rx="35.21" ry="13.37"/>
<text text-anchor="middle" x="491" y="-318.37" font-family="Times,serif" font-size="10.00" fill="violet">norme</text>
</g>
<!-- lexeme_norme&#45;&gt;lexeme -->
<g id="edge35" class="edge">
<title>lexeme_norme&#45;&gt;lexeme</title>
<path fill="none" stroke="violet" d="M491.16,-307.21C491.33,-293.42 491.6,-271.28 491.79,-255.95"/>
</g>
<!-- texte_id -->
<g id="node33" class="node">
<title>texte_id</title>
<ellipse fill="none" stroke="blue" cx="277" cy="-472.31" rx="18.27" ry="13.37"/>
<text text-anchor="middle" x="277" y="-469.81" font-family="Times,serif" font-size="10.00" fill="blue">id</text>
</g>
<!-- texte_id&#45;&gt;texte -->
<g id="edge39" class="edge">
<title>texte_id&#45;&gt;texte</title>
<path fill="none" stroke="blue" d="M273.33,-459.12C270.2,-448.71 265.65,-433.61 262.15,-421.98"/>
</g>
</g>
</svg>
