<?xml version="1.0" encoding="UTF-8" standalone="no"?>
<!DOCTYPE svg PUBLIC "-//W3C//DTD SVG 1.1//EN"
 "http://www.w3.org/Graphics/SVG/1.1/DTD/svg11.dtd">
<!-- Generated by graphviz version 2.43.0 (0)
 -->
<!-- Title: %3 Pages: 1 -->
<svg width="1316pt" height="899pt"
 viewBox="0.00 0.00 1316.00 899.00" xmlns="http://www.w3.org/2000/svg" xmlns:xlink="http://www.w3.org/1999/xlink">
<g id="graph0" class="graph" transform="scale(1 1) rotate(0) translate(4 895)">
<title>%3</title>
<polygon fill="white" stroke="transparent" points="-4,4 -4,-895 1312,-895 1312,4 -4,4"/>
<g id="clust1" class="cluster">
<title>cluster_eav</title>
<polygon fill="none" stroke="turquoise" stroke-dasharray="1,5" points="8,-168 8,-883 658,-883 658,-168 8,-168"/>
</g>
<g id="clust3" class="cluster">
<title>cluster_prop</title>
<polygon fill="none" stroke="lightgrey" stroke-dasharray="1,5" points="16,-786 16,-875 650,-875 650,-786 16,-786"/>
</g>
<g id="clust4" class="cluster">
<title>cluster_nlp</title>
<polygon fill="none" stroke="violet" stroke-dasharray="1,5" points="666,-8 666,-751 1300,-751 1300,-8 666,-8"/>
</g>
<!-- classe -->
<g id="node1" class="node">
<title>classe</title>
<polygon fill="none" stroke="orange" points="246,-350.5 246,-408.5 404,-408.5 404,-350.5 246,-350.5"/>
<text text-anchor="start" x="297.5" y="-390.6" font-family="arial" font-weight="bold" font-size="18.00" fill="orange">classe</text>
<polyline fill="none" stroke="orange" points="246,-379.5 404,-379.5 "/>
<text text-anchor="start" x="322" y="-360.6" font-family="arial" font-size="18.00" fill="orange"> </text>
</g>
<!-- concept -->
<g id="node7" class="node">
<title>concept</title>
<polygon fill="none" stroke="orange" points="246,-176.5 246,-262.5 404,-262.5 404,-176.5 246,-176.5"/>
<text text-anchor="start" x="290" y="-246.1" font-family="arial" font-weight="bold" font-size="18.00" fill="orange">concept</text>
<polyline fill="none" stroke="orange" points="246,-236.5 404,-236.5 "/>
<text text-anchor="start" x="264" y="-220.1" font-family="arial" font-size="18.00" fill="orange">+ </text>
<text text-anchor="start" x="280" y="-220.1" font-family="arial" text-decoration="underline" font-size="18.00" fill="orange">id</text>
<text text-anchor="start" x="294" y="-220.1" font-family="arial" font-size="18.00" fill="orange"> </text>
<text text-anchor="start" x="300" y="-220.1" font-family="arial" font-style="italic" font-size="18.00" fill="grey">smallint</text>
<text text-anchor="start" x="264" y="-202.1" font-family="arial" font-size="18.00" fill="orange">+ nom </text>
<text text-anchor="start" x="320" y="-202.1" font-family="arial" font-style="italic" font-size="18.00" fill="grey">text</text>
<text text-anchor="start" x="264" y="-184.1" font-family="arial" font-size="18.00" fill="orange">+ définition </text>
<text text-anchor="start" x="356" y="-184.1" font-family="arial" font-style="italic" font-size="18.00" fill="grey">text</text>
</g>
<!-- classe&#45;&gt;concept -->
<g id="edge1" class="edge">
<title>classe&#45;&gt;concept</title>
<path fill="none" stroke="orange" stroke-dasharray="5,2" d="M325,-350.25C325,-328.78 325,-298.64 325,-272.81"/>
<polygon fill="none" stroke="orange" points="328.5,-272.78 325,-262.78 321.5,-272.78 328.5,-272.78"/>
</g>
<!-- type_relation -->
<g id="node2" class="node">
<title>type_relation</title>
<polygon fill="none" stroke="orange" points="16,-350.5 16,-408.5 174,-408.5 174,-350.5 16,-350.5"/>
<text text-anchor="start" x="39" y="-390.6" font-family="arial" font-weight="bold" font-size="18.00" fill="orange">type_relation</text>
<polyline fill="none" stroke="orange" points="16,-379.5 174,-379.5 "/>
<text text-anchor="start" x="92" y="-360.6" font-family="arial" font-size="18.00" fill="orange"> </text>
</g>
<!-- type_relation&#45;&gt;concept -->
<g id="edge3" class="edge">
<title>type_relation&#45;&gt;concept</title>
<path fill="none" stroke="orange" stroke-dasharray="5,2" d="M135.85,-350.43C168.86,-327.76 216.06,-295.33 255.06,-268.55"/>
<polygon fill="none" stroke="orange" points="257.49,-271.12 263.76,-262.57 253.53,-265.35 257.49,-271.12"/>
</g>
<!-- type_propriete -->
<g id="node3" class="node">
<title>type_propriete</title>
<polygon fill="none" stroke="orange" points="476,-350.5 476,-408.5 634,-408.5 634,-350.5 476,-350.5"/>
<text text-anchor="start" x="492.5" y="-390.6" font-family="arial" font-weight="bold" font-size="18.00" fill="orange">type_propriete</text>
<polyline fill="none" stroke="orange" points="476,-379.5 634,-379.5 "/>
<text text-anchor="start" x="552" y="-360.6" font-family="arial" font-size="18.00" fill="orange"> </text>
</g>
<!-- type_propriete&#45;&gt;concept -->
<g id="edge2" class="edge">
<title>type_propriete&#45;&gt;concept</title>
<path fill="none" stroke="orange" stroke-dasharray="5,2" d="M514.15,-350.43C481.14,-327.76 433.94,-295.33 394.94,-268.55"/>
<polygon fill="none" stroke="orange" points="396.47,-265.35 386.24,-262.57 392.51,-271.12 396.47,-265.35"/>
</g>
<!-- entite -->
<g id="node4" class="node">
<title>entite</title>
<polygon fill="none" stroke="black" stroke-width="2" points="239,-489 239,-561 397,-561 397,-489 239,-489"/>
<text text-anchor="start" x="293.5" y="-543.6" font-family="arial" font-weight="bold" font-size="18.00">entite</text>
<polyline fill="none" stroke="black" stroke-width="2" points="239,-533 397,-533 "/>
<text text-anchor="start" x="251" y="-515.6" font-family="arial" font-size="18.00">+ </text>
<text text-anchor="start" x="267" y="-515.6" font-family="arial" text-decoration="underline" font-size="18.00">id</text>
<text text-anchor="start" x="281" y="-515.6" font-family="arial" font-size="18.00"> </text>
<text text-anchor="start" x="287" y="-515.6" font-family="arial" font-style="italic" font-size="18.00" fill="grey">int</text>
<text text-anchor="start" x="251" y="-497.6" font-family="arial" font-size="18.00">_ </text>
<text text-anchor="start" x="267" y="-497.6" font-family="arial" font-size="18.00" fill="orange">classe</text>
<text text-anchor="start" x="318" y="-497.6" font-family="arial" font-size="18.00"> </text>
<text text-anchor="start" x="324" y="-497.6" font-family="arial" font-style="italic" font-size="18.00" fill="grey">smallint</text>
</g>
<!-- entite&#45;&gt;classe -->
<g id="edge5" class="edge">
<title>entite&#45;&gt;classe</title>
<path fill="none" stroke="orange" d="M319.71,-488.9C320.75,-467.65 322.07,-440.54 323.13,-418.74"/>
<polygon fill="orange" stroke="orange" points="326.64,-418.68 323.63,-408.52 319.65,-418.34 326.64,-418.68"/>
<text text-anchor="middle" x="370.5" y="-444.8" font-family="arial" font-size="14.00" fill="orange">est_instance_de</text>
</g>
<!-- relation -->
<g id="node5" class="node">
<title>relation</title>
<polygon fill="none" stroke="black" stroke-width="2" points="112,-642 112,-728 270,-728 270,-642 112,-642"/>
<text text-anchor="start" x="158" y="-711.6" font-family="arial" font-weight="bold" font-size="18.00">relation</text>
<polyline fill="none" stroke="black" stroke-width="2" points="112,-702 270,-702 "/>
<text text-anchor="start" x="132.5" y="-685.6" font-family="arial" font-size="18.00">_ </text>
<text text-anchor="start" x="148.5" y="-685.6" font-family="arial" font-size="18.00" fill="orange">type</text>
<text text-anchor="start" x="182.5" y="-685.6" font-family="arial" font-size="18.00"> </text>
<text text-anchor="start" x="188.5" y="-685.6" font-family="arial" font-style="italic" font-size="18.00" fill="grey">smallint</text>
<text text-anchor="start" x="132.5" y="-667.6" font-family="arial" font-size="18.00">_ sujet </text>
<text text-anchor="start" x="190.5" y="-667.6" font-family="arial" font-style="italic" font-size="18.00" fill="grey">int</text>
<text text-anchor="start" x="132.5" y="-649.6" font-family="arial" font-size="18.00">_ objet </text>
<text text-anchor="start" x="191.5" y="-649.6" font-family="arial" font-style="italic" font-size="18.00" fill="grey">int</text>
</g>
<!-- relation&#45;&gt;type_relation -->
<g id="edge4" class="edge">
<title>relation&#45;&gt;type_relation</title>
<path fill="none" stroke="orange" d="M177.65,-641.8C158.89,-582.49 125.01,-475.37 107,-418.45"/>
<polygon fill="orange" stroke="orange" points="110.29,-417.24 103.94,-408.76 103.62,-419.35 110.29,-417.24"/>
<text text-anchor="middle" x="175.5" y="-521.3" font-family="arial" font-size="14.00" fill="orange">a_type</text>
</g>
<!-- relation&#45;&gt;entite -->
<g id="edge7" class="edge">
<title>relation&#45;&gt;entite</title>
<path fill="none" stroke="black" d="M225.03,-641.66C243.03,-619.27 265.08,-591.84 283.19,-569.31"/>
<polygon fill="black" stroke="black" points="286.13,-571.23 289.67,-561.24 280.68,-566.85 286.13,-571.23"/>
<text text-anchor="middle" x="284.5" y="-597.8" font-family="arial" font-size="14.00">a_objet</text>
</g>
<!-- relation&#45;&gt;entite -->
<g id="edge8" class="edge">
<title>relation&#45;&gt;entite</title>
<path fill="none" stroke="black" d="M182.78,-641.66C181.82,-625.71 183.52,-608.04 192,-594 201.08,-578.97 214.74,-567.06 229.77,-557.69"/>
<polygon fill="black" stroke="black" points="231.87,-560.52 238.75,-552.46 228.34,-554.47 231.87,-560.52"/>
<text text-anchor="middle" x="214" y="-597.8" font-family="arial" font-size="14.00">a_sujet</text>
</g>
<!-- propriete -->
<g id="node6" class="node">
<title>propriete</title>
<polygon fill="none" stroke="black" stroke-width="2" points="355,-649 355,-721 513,-721 513,-649 355,-649"/>
<text text-anchor="start" x="394.5" y="-703.6" font-family="arial" font-weight="bold" font-size="18.00">propriété</text>
<polyline fill="none" stroke="black" stroke-width="2" points="355,-693 513,-693 "/>
<text text-anchor="start" x="375.5" y="-675.6" font-family="arial" font-size="18.00">_ </text>
<text text-anchor="start" x="391.5" y="-675.6" font-family="arial" font-size="18.00" fill="orange">type</text>
<text text-anchor="start" x="425.5" y="-675.6" font-family="arial" font-size="18.00"> </text>
<text text-anchor="start" x="431.5" y="-675.6" font-family="arial" font-style="italic" font-size="18.00" fill="grey">smallint</text>
<text text-anchor="start" x="375.5" y="-657.6" font-family="arial" font-size="18.00">_ entite </text>
<text text-anchor="start" x="439.5" y="-657.6" font-family="arial" font-style="italic" font-size="18.00" fill="grey">int</text>
</g>
<!-- propriete&#45;&gt;type_propriete -->
<g id="edge6" class="edge">
<title>propriete&#45;&gt;type_propriete</title>
<path fill="none" stroke="orange" d="M448,-648.89C470.98,-591.24 516.51,-477.05 540.08,-417.93"/>
<polygon fill="orange" stroke="orange" points="543.35,-419.17 543.8,-408.59 536.85,-416.58 543.35,-419.17"/>
<text text-anchor="middle" x="536.5" y="-521.3" font-family="arial" font-size="14.00" fill="orange">a_type</text>
</g>
<!-- propriete&#45;&gt;entite -->
<g id="edge9" class="edge">
<title>propriete&#45;&gt;entite</title>
<path fill="none" stroke="black" d="M408.26,-648.93C391.04,-625.49 368.28,-594.48 349.92,-569.47"/>
<polygon fill="black" stroke="black" points="352.61,-567.23 343.87,-561.24 346.97,-571.37 352.61,-567.23"/>
<text text-anchor="middle" x="397.5" y="-597.8" font-family="arial" font-size="14.00">qualifie</text>
</g>
<!-- texte -->
<g id="node8" class="node">
<title>texte</title>
<polygon fill="none" stroke="turquoise" stroke-width="2" points="484,-794.5 484,-866.5 642,-866.5 642,-794.5 484,-794.5"/>
<text text-anchor="start" x="542" y="-849.1" font-family="arial" font-weight="bold" font-size="18.00" fill="turquoise">texte</text>
<polyline fill="none" stroke="turquoise" stroke-width="2" points="484,-838.5 642,-838.5 "/>
<text text-anchor="start" x="526" y="-821.1" font-family="arial" font-size="18.00" fill="turquoise">+id </text>
<text text-anchor="start" x="556" y="-821.1" font-family="arial" font-size="18.00" fill="turquoise">id</text>
<text text-anchor="start" x="570" y="-821.1" font-family="arial" font-size="18.00" fill="turquoise"> </text>
<text text-anchor="start" x="576" y="-821.1" font-family="arial" font-style="italic" font-size="18.00" fill="grey">int</text>
<text text-anchor="start" x="526" y="-803.1" font-family="arial" font-size="18.00" fill="turquoise">+ val </text>
<text text-anchor="start" x="570" y="-803.1" font-family="arial" font-style="italic" font-size="18.00" fill="grey">text</text>
</g>
<!-- texte&#45;&gt;propriete -->
<g id="edge10" class="edge">
<title>texte&#45;&gt;propriete</title>
<path fill="none" stroke="turquoise" stroke-dasharray="5,2" d="M531.44,-794.4C513.64,-774.59 491.26,-749.69 472.44,-728.76"/>
<polygon fill="none" stroke="turquoise" points="474.97,-726.34 465.68,-721.24 469.76,-731.02 474.97,-726.34"/>
</g>
<!-- phrase -->
<g id="node11" class="node">
<title>phrase</title>
<polygon fill="none" stroke="blue" stroke-width="2" points="904,-627.5 904,-742.5 1062,-742.5 1062,-627.5 904,-627.5"/>
<text text-anchor="start" x="953.5" y="-727.6" font-family="arial" font-weight="bold" font-size="18.00" fill="blue">phrase</text>
<polyline fill="none" stroke="blue" stroke-width="2" points="904,-719.5 1062,-719.5 "/>
<text text-anchor="start" x="940.5" y="-705.1" font-family="arial" font-size="18.00" fill="blue">+ </text>
<text text-anchor="start" x="956.5" y="-705.1" font-family="arial" text-decoration="underline" font-size="18.00" fill="blue">id</text>
<text text-anchor="start" x="970.5" y="-705.1" font-family="arial" font-size="18.00" fill="blue"> </text>
<text text-anchor="start" x="976.5" y="-705.1" font-family="arial" font-style="italic" font-size="18.00" fill="grey">int</text>
<text text-anchor="start" x="940.5" y="-687.1" font-family="arial" font-size="18.00" fill="blue">_ </text>
<text text-anchor="start" x="956.5" y="-687.1" font-family="arial" font-size="18.00" fill="turquoise">texte</text>
<text text-anchor="start" x="996.5" y="-687.1" font-family="arial" font-size="18.00" fill="blue"> </text>
<text text-anchor="start" x="1002.5" y="-687.1" font-family="arial" font-style="italic" font-size="18.00" fill="grey">int</text>
<text text-anchor="start" x="940.5" y="-669.1" font-family="arial" font-size="18.00" fill="blue">+ n </text>
<text text-anchor="start" x="971.5" y="-669.1" font-family="arial" font-style="italic" font-size="18.00" fill="grey">int</text>
<text text-anchor="start" x="940.5" y="-651.1" font-family="arial" font-size="18.00" fill="blue">+ debut </text>
<text text-anchor="start" x="1006.5" y="-651.1" font-family="arial" font-style="italic" font-size="18.00" fill="grey">int</text>
<text text-anchor="start" x="940.5" y="-633.1" font-family="arial" font-size="18.00" fill="blue">+ fin </text>
<text text-anchor="start" x="980.5" y="-633.1" font-family="arial" font-style="italic" font-size="18.00" fill="grey">int</text>
</g>
<!-- texte&#45;&gt;phrase -->
<g id="edge13" class="edge">
<title>texte&#45;&gt;phrase</title>
<path fill="none" stroke="turquoise" d="M652.34,-812.97C714.21,-799.98 797.74,-779.32 868,-751 879.91,-746.2 892.11,-740.39 903.91,-734.24"/>
<polygon fill="turquoise" stroke="turquoise" points="651.29,-809.61 642.21,-815.07 652.71,-816.47 651.29,-809.61"/>
<text text-anchor="middle" x="863.5" y="-764.8" font-family="arial" font-size="14.00" fill="turquoise">est_dans</text>
</g>
<!-- span -->
<g id="node12" class="node">
<title>span</title>
<polygon fill="none" stroke="blue" stroke-width="2" points="674,-634.5 674,-735.5 832,-735.5 832,-634.5 674,-634.5"/>
<text text-anchor="start" x="731.5" y="-719.6" font-family="arial" font-weight="bold" font-size="18.00" fill="blue">span</text>
<polyline fill="none" stroke="blue" stroke-width="2" points="674,-710.5 832,-710.5 "/>
<text text-anchor="start" x="703" y="-695.1" font-family="arial" font-size="18.00" fill="blue">_ </text>
<text text-anchor="start" x="719" y="-695.1" font-family="arial" font-size="18.00" fill="turquoise">texte</text>
<text text-anchor="start" x="759" y="-695.1" font-family="arial" font-size="18.00" fill="blue"> </text>
<text text-anchor="start" x="765" y="-695.1" font-family="arial" font-style="italic" font-size="18.00" fill="grey">int</text>
<text text-anchor="start" x="703" y="-677.1" font-family="arial" font-size="18.00" fill="blue">+ debut </text>
<text text-anchor="start" x="769" y="-677.1" font-family="arial" font-style="italic" font-size="18.00" fill="grey">int</text>
<text text-anchor="start" x="703" y="-659.1" font-family="arial" font-size="18.00" fill="blue">+ fin </text>
<text text-anchor="start" x="743" y="-659.1" font-family="arial" font-style="italic" font-size="18.00" fill="grey">int</text>
<text text-anchor="start" x="703" y="-641.1" font-family="arial" font-size="18.00" fill="blue">+ attrs </text>
<text text-anchor="start" x="760" y="-641.1" font-family="arial" font-style="italic" font-size="18.00" fill="grey">jsonb</text>
</g>
<!-- texte&#45;&gt;span -->
<g id="edge14" class="edge">
<title>texte&#45;&gt;span</title>
<path fill="none" stroke="turquoise" d="M619.81,-788.33C636.1,-776.39 653.82,-763.27 670,-751 676.56,-746.02 683.38,-740.79 690.17,-735.54"/>
<polygon fill="turquoise" stroke="turquoise" points="617.45,-785.72 611.44,-794.45 621.58,-791.37 617.45,-785.72"/>
<text text-anchor="middle" x="682.5" y="-764.8" font-family="arial" font-size="14.00" fill="turquoise">est_dans</text>
</g>
<!-- prop_date -->
<g id="node9" class="node">
<title>prop_date</title>
<polygon fill="none" stroke="turquoise" stroke-width="2" points="24,-801.5 24,-859.5 182,-859.5 182,-801.5 24,-801.5"/>
<text text-anchor="start" x="59" y="-841.6" font-family="arial" font-weight="bold" font-size="18.00" fill="turquoise">prop_date</text>
<polyline fill="none" stroke="turquoise" stroke-width="2" points="24,-830.5 182,-830.5 "/>
<text text-anchor="start" x="39.5" y="-812.6" font-family="arial" font-size="18.00" fill="turquoise">+ val </text>
<text text-anchor="start" x="83.5" y="-812.6" font-family="arial" font-style="italic" font-size="18.00" fill="grey">timestamp</text>
</g>
<!-- prop_date&#45;&gt;propriete -->
<g id="edge11" class="edge">
<title>prop_date&#45;&gt;propriete</title>
<path fill="none" stroke="turquoise" stroke-dasharray="5,2" d="M176.53,-801.48C229.37,-781.27 293.43,-756.61 306,-751 323.45,-743.22 341.92,-734.27 359.24,-725.56"/>
<polygon fill="none" stroke="turquoise" points="360.84,-728.67 368.18,-721.02 357.68,-722.42 360.84,-728.67"/>
</g>
<!-- prop_float -->
<g id="node10" class="node">
<title>prop_float</title>
<polygon fill="none" stroke="turquoise" stroke-width="2" points="254,-801.5 254,-859.5 412,-859.5 412,-801.5 254,-801.5"/>
<text text-anchor="start" x="288.5" y="-841.6" font-family="arial" font-weight="bold" font-size="18.00" fill="turquoise">prop_float</text>
<polyline fill="none" stroke="turquoise" stroke-width="2" points="254,-830.5 412,-830.5 "/>
<text text-anchor="start" x="294" y="-812.6" font-family="arial" font-size="18.00" fill="turquoise">+ val </text>
<text text-anchor="start" x="338" y="-812.6" font-family="arial" font-style="italic" font-size="18.00" fill="grey">float</text>
</g>
<!-- prop_float&#45;&gt;propriete -->
<g id="edge12" class="edge">
<title>prop_float&#45;&gt;propriete</title>
<path fill="none" stroke="turquoise" stroke-dasharray="5,2" d="M352.71,-801.49C367.13,-781.01 386.96,-752.83 403.43,-729.43"/>
<polygon fill="none" stroke="turquoise" points="406.43,-731.25 409.33,-721.05 400.71,-727.22 406.43,-731.25"/>
</g>
<!-- token -->
<g id="node13" class="node">
<title>token</title>
<polygon fill="none" stroke="blue" stroke-width="2" points="904,-474.5 904,-575.5 1062,-575.5 1062,-474.5 904,-474.5"/>
<text text-anchor="start" x="958.5" y="-559.6" font-family="arial" font-weight="bold" font-size="18.00" fill="blue">token</text>
<polyline fill="none" stroke="blue" stroke-width="2" points="904,-550.5 1062,-550.5 "/>
<text text-anchor="start" x="907.5" y="-535.1" font-family="arial" font-size="18.00" fill="blue">_ phrase </text>
<text text-anchor="start" x="982.5" y="-535.1" font-family="arial" font-style="italic" font-size="18.00" fill="grey">int</text>
<text text-anchor="start" x="907.5" y="-517.1" font-family="arial" font-size="18.00" fill="blue">+ num </text>
<text text-anchor="start" x="963.5" y="-517.1" font-family="arial" font-style="italic" font-size="18.00" fill="grey">int</text>
<text text-anchor="start" x="907.5" y="-499.1" font-family="arial" font-size="18.00" fill="blue">+ debut </text>
<text text-anchor="start" x="973.5" y="-499.1" font-family="arial" font-style="italic" font-size="18.00" fill="grey">int</text>
<text text-anchor="start" x="907.5" y="-481.1" font-family="arial" font-size="18.00" fill="blue">+ longueur </text>
<text text-anchor="start" x="997.5" y="-481.1" font-family="arial" font-style="italic" font-size="18.00" fill="grey">smallint</text>
</g>
<!-- phrase&#45;&gt;token -->
<g id="edge15" class="edge">
<title>phrase&#45;&gt;token</title>
<path fill="none" stroke="blue" d="M983,-617.35C983,-603.38 983,-588.88 983,-575.65"/>
<polygon fill="blue" stroke="blue" points="979.5,-617.4 983,-627.4 986.5,-617.4 979.5,-617.4"/>
<text text-anchor="middle" x="1010.5" y="-597.8" font-family="arial" font-size="14.00" fill="blue">est_dans</text>
</g>
<!-- mot -->
<g id="node14" class="node">
<title>mot</title>
<polygon fill="none" stroke="blue" stroke-width="2" points="904,-336.5 904,-422.5 1062,-422.5 1062,-336.5 904,-336.5"/>
<text text-anchor="start" x="966" y="-406.1" font-family="arial" font-weight="bold" font-size="18.00" fill="blue">mot</text>
<polyline fill="none" stroke="blue" stroke-width="2" points="904,-396.5 1062,-396.5 "/>
<text text-anchor="start" x="910" y="-380.1" font-family="arial" font-size="18.00" fill="blue">_ </text>
<text text-anchor="start" x="926" y="-380.1" font-family="arial" font-size="18.00" fill="skyblue">lexeme</text>
<text text-anchor="start" x="984" y="-380.1" font-family="arial" font-size="18.00" fill="blue"> </text>
<text text-anchor="start" x="990" y="-380.1" font-family="arial" font-style="italic" font-size="18.00" fill="grey">int</text>
<text text-anchor="start" x="910" y="-362.1" font-family="arial" font-size="18.00" fill="blue">_ </text>
<text text-anchor="start" x="926" y="-362.1" font-family="arial" font-size="18.00" fill="violet">fonction</text>
<text text-anchor="start" x="989" y="-362.1" font-family="arial" font-size="18.00" fill="blue"> </text>
<text text-anchor="start" x="995" y="-362.1" font-family="arial" font-style="italic" font-size="18.00" fill="grey">smallint</text>
<text text-anchor="start" x="910" y="-344.1" font-family="arial" font-size="18.00" fill="blue">+ noyau </text>
<text text-anchor="start" x="980" y="-344.1" font-family="arial" font-style="italic" font-size="18.00" fill="grey">int</text>
</g>
<!-- token&#45;&gt;mot -->
<g id="edge16" class="edge">
<title>token&#45;&gt;mot</title>
<path fill="none" stroke="blue" stroke-dasharray="5,2" d="M983,-464.17C983,-450.19 983,-435.59 983,-422.57"/>
<polygon fill="blue" stroke="blue" points="979.5,-464.21 983,-474.21 986.5,-464.21 979.5,-464.21"/>
</g>
<!-- lexeme -->
<g id="node16" class="node">
<title>lexeme</title>
<polygon fill="none" stroke="skyblue" stroke-width="2" points="904,-154.5 904,-284.5 1062,-284.5 1062,-154.5 904,-154.5"/>
<text text-anchor="start" x="952.5" y="-266.1" font-family="arial" font-weight="bold" font-size="18.00" fill="skyblue">lexeme</text>
<polyline fill="none" stroke="skyblue" stroke-width="2" points="904,-254.5 1062,-254.5 "/>
<text text-anchor="start" x="916" y="-236.1" font-family="arial" font-size="18.00" fill="skyblue">+ </text>
<text text-anchor="start" x="932" y="-236.1" font-family="arial" text-decoration="underline" font-size="18.00" fill="skyblue">id</text>
<text text-anchor="start" x="946" y="-236.1" font-family="arial" font-size="18.00" fill="skyblue"> </text>
<text text-anchor="start" x="952" y="-236.1" font-family="arial" font-style="italic" font-size="18.00" fill="grey">int</text>
<text text-anchor="start" x="916" y="-218.1" font-family="arial" font-size="18.00" fill="skyblue">+ </text>
<text text-anchor="start" x="932" y="-218.1" font-family="arial" font-size="18.00" fill="skyblue">norme</text>
<text text-anchor="start" x="983" y="-218.1" font-family="arial" font-size="18.00" fill="skyblue"> </text>
<text text-anchor="start" x="989" y="-218.1" font-family="arial" font-style="italic" font-size="18.00" fill="grey">text</text>
<text text-anchor="start" x="916" y="-200.1" font-family="arial" font-size="18.00" fill="skyblue">_ </text>
<text text-anchor="start" x="932" y="-200.1" font-family="arial" font-size="18.00" fill="violet">lemme</text>
<text text-anchor="start" x="986" y="-200.1" font-family="arial" font-size="18.00" fill="skyblue"> </text>
<text text-anchor="start" x="992" y="-200.1" font-family="arial" font-style="italic" font-size="18.00" fill="grey">int</text>
<text text-anchor="start" x="916" y="-182.1" font-family="arial" font-size="18.00" fill="skyblue">_ </text>
<text text-anchor="start" x="932" y="-182.1" font-family="arial" font-size="18.00" fill="violet">nature</text>
<text text-anchor="start" x="983" y="-182.1" font-family="arial" font-size="18.00" fill="skyblue"> </text>
<text text-anchor="start" x="989" y="-182.1" font-family="arial" font-style="italic" font-size="18.00" fill="grey">smallint</text>
<text text-anchor="start" x="916" y="-164.1" font-family="arial" font-size="18.00" fill="skyblue">_ </text>
<text text-anchor="start" x="932" y="-164.1" font-family="arial" font-size="18.00" fill="violet">morph</text>
<text text-anchor="start" x="983" y="-164.1" font-family="arial" font-size="18.00" fill="skyblue"> </text>
<text text-anchor="start" x="989" y="-164.1" font-family="arial" font-style="italic" font-size="18.00" fill="grey">smallint</text>
</g>
<!-- mot&#45;&gt;lexeme -->
<g id="edge17" class="edge">
<title>mot&#45;&gt;lexeme</title>
<path fill="none" stroke="skyblue" d="M983,-336.16C983,-323.43 983,-309.08 983,-294.92"/>
<polygon fill="skyblue" stroke="skyblue" points="986.5,-294.67 983,-284.67 979.5,-294.67 986.5,-294.67"/>
<text text-anchor="middle" x="1013" y="-306.8" font-family="arial" font-size="14.00" fill="skyblue">a_lexeme</text>
</g>
<!-- fonction -->
<g id="node18" class="node">
<title>fonction</title>
<polygon fill="none" stroke="violet" stroke-width="2" points="674,-183.5 674,-255.5 832,-255.5 832,-183.5 674,-183.5"/>
<text text-anchor="start" x="716.5" y="-238.1" font-family="arial" font-weight="bold" font-size="18.00" fill="violet">fonction</text>
<polyline fill="none" stroke="violet" stroke-width="2" points="674,-227.5 832,-227.5 "/>
<text text-anchor="start" x="704.5" y="-210.1" font-family="arial" font-size="18.00" fill="violet">+ </text>
<text text-anchor="start" x="720.5" y="-210.1" font-family="arial" text-decoration="underline" font-size="18.00" fill="violet">id</text>
<text text-anchor="start" x="734.5" y="-210.1" font-family="arial" font-size="18.00" fill="violet"> </text>
<text text-anchor="start" x="740.5" y="-210.1" font-family="arial" font-style="italic" font-size="18.00" fill="grey">smallint</text>
<text text-anchor="start" x="704.5" y="-192.1" font-family="arial" font-size="18.00" fill="violet">+ </text>
<text text-anchor="start" x="720.5" y="-192.1" font-family="arial" font-size="18.00" fill="violet">nom</text>
<text text-anchor="start" x="755.5" y="-192.1" font-family="arial" font-size="18.00" fill="violet"> </text>
<text text-anchor="start" x="761.5" y="-192.1" font-family="arial" font-style="italic" font-size="18.00" fill="grey">text</text>
</g>
<!-- mot&#45;&gt;fonction -->
<g id="edge18" class="edge">
<title>mot&#45;&gt;fonction</title>
<path fill="none" stroke="violet" d="M921.67,-336.37C887.81,-313.11 845.95,-284.35 812.4,-261.31"/>
<polygon fill="violet" stroke="violet" points="814.28,-258.35 804.06,-255.58 810.32,-264.12 814.28,-258.35"/>
<text text-anchor="middle" x="919.5" y="-306.8" font-family="arial" font-size="14.00" fill="violet">a_fonction</text>
</g>
<!-- lemme -->
<g id="node15" class="node">
<title>lemme</title>
<polygon fill="none" stroke="violet" stroke-width="2" points="674,-16.5 674,-102.5 832,-102.5 832,-16.5 674,-16.5"/>
<text text-anchor="start" x="724.5" y="-86.1" font-family="arial" font-weight="bold" font-size="18.00" fill="violet">lemme</text>
<polyline fill="none" stroke="violet" stroke-width="2" points="674,-76.5 832,-76.5 "/>
<text text-anchor="start" x="692.5" y="-60.1" font-family="arial" font-size="18.00" fill="violet">+ </text>
<text text-anchor="start" x="708.5" y="-60.1" font-family="arial" text-decoration="underline" font-size="18.00" fill="violet">id</text>
<text text-anchor="start" x="722.5" y="-60.1" font-family="arial" font-size="18.00" fill="violet"> </text>
<text text-anchor="start" x="728.5" y="-60.1" font-family="arial" font-style="italic" font-size="18.00" fill="grey">int</text>
<text text-anchor="start" x="692.5" y="-42.1" font-family="arial" font-size="18.00" fill="violet">+ </text>
<text text-anchor="start" x="708.5" y="-42.1" font-family="arial" font-size="18.00" fill="violet">graphie</text>
<text text-anchor="start" x="767.5" y="-42.1" font-family="arial" font-size="18.00" fill="violet"> </text>
<text text-anchor="start" x="773.5" y="-42.1" font-family="arial" font-style="italic" font-size="18.00" fill="grey">texte</text>
<text text-anchor="start" x="692.5" y="-24.1" font-family="arial" font-size="18.00" fill="violet">+ </text>
<text text-anchor="start" x="708.5" y="-24.1" font-family="arial" font-size="18.00" fill="violet">vec</text>
<text text-anchor="start" x="736.5" y="-24.1" font-family="arial" font-size="18.00" fill="violet"> </text>
<text text-anchor="start" x="742.5" y="-24.1" font-family="arial" font-style="italic" font-size="18.00" fill="grey">pgvector</text>
</g>
<!-- lexeme&#45;&gt;lemme -->
<g id="edge19" class="edge">
<title>lexeme&#45;&gt;lemme</title>
<path fill="none" stroke="violet" d="M903.85,-164.13C877.58,-146.08 848.54,-126.13 823.01,-108.59"/>
<polygon fill="violet" stroke="violet" points="824.72,-105.52 814.5,-102.75 820.76,-111.29 824.72,-105.52"/>
<text text-anchor="middle" x="890" y="-124.8" font-family="arial" font-size="14.00" fill="violet">a_lemme</text>
</g>
<!-- nature -->
<g id="node17" class="node">
<title>nature</title>
<polygon fill="none" stroke="violet" stroke-width="2" points="904,-23.5 904,-95.5 1062,-95.5 1062,-23.5 904,-23.5"/>
<text text-anchor="start" x="955.5" y="-78.1" font-family="arial" font-weight="bold" font-size="18.00" fill="violet">nature</text>
<polyline fill="none" stroke="violet" stroke-width="2" points="904,-67.5 1062,-67.5 "/>
<text text-anchor="start" x="934.5" y="-50.1" font-family="arial" font-size="18.00" fill="violet">+ </text>
<text text-anchor="start" x="950.5" y="-50.1" font-family="arial" text-decoration="underline" font-size="18.00" fill="violet">id</text>
<text text-anchor="start" x="964.5" y="-50.1" font-family="arial" font-size="18.00" fill="violet"> </text>
<text text-anchor="start" x="970.5" y="-50.1" font-family="arial" font-style="italic" font-size="18.00" fill="grey">smallint</text>
<text text-anchor="start" x="934.5" y="-32.1" font-family="arial" font-size="18.00" fill="violet">+ </text>
<text text-anchor="start" x="950.5" y="-32.1" font-family="arial" font-size="18.00" fill="violet">nom</text>
<text text-anchor="start" x="985.5" y="-32.1" font-family="arial" font-size="18.00" fill="violet"> </text>
<text text-anchor="start" x="991.5" y="-32.1" font-family="arial" font-style="italic" font-size="18.00" fill="grey">text</text>
</g>
<!-- lexeme&#45;&gt;nature -->
<g id="edge20" class="edge">
<title>lexeme&#45;&gt;nature</title>
<path fill="none" stroke="violet" d="M983,-154.24C983,-137.99 983,-120.89 983,-105.8"/>
<polygon fill="violet" stroke="violet" points="986.5,-105.71 983,-95.71 979.5,-105.71 986.5,-105.71"/>
<text text-anchor="middle" x="1010" y="-124.8" font-family="arial" font-size="14.00" fill="violet">a_nature</text>
</g>
<!-- morph -->
<g id="node19" class="node">
<title>morph</title>
<polygon fill="none" stroke="violet" stroke-width="2" points="1134,-23.5 1134,-95.5 1292,-95.5 1292,-23.5 1134,-23.5"/>
<text text-anchor="start" x="1184.5" y="-78.1" font-family="arial" font-weight="bold" font-size="18.00" fill="violet">morph</text>
<polyline fill="none" stroke="violet" stroke-width="2" points="1134,-67.5 1292,-67.5 "/>
<text text-anchor="start" x="1164.5" y="-50.1" font-family="arial" font-size="18.00" fill="violet">+ </text>
<text text-anchor="start" x="1180.5" y="-50.1" font-family="arial" text-decoration="underline" font-size="18.00" fill="violet">id</text>
<text text-anchor="start" x="1194.5" y="-50.1" font-family="arial" font-size="18.00" fill="violet"> </text>
<text text-anchor="start" x="1200.5" y="-50.1" font-family="arial" font-style="italic" font-size="18.00" fill="grey">smallint</text>
<text text-anchor="start" x="1164.5" y="-32.1" font-family="arial" font-size="18.00" fill="violet">+ </text>
<text text-anchor="start" x="1180.5" y="-32.1" font-family="arial" font-size="18.00" fill="violet">feats</text>
<text text-anchor="start" x="1220.5" y="-32.1" font-family="arial" font-size="18.00" fill="violet"> </text>
<text text-anchor="start" x="1226.5" y="-32.1" font-family="arial" font-style="italic" font-size="18.00" fill="grey">text</text>
</g>
<!-- lexeme&#45;&gt;morph -->
<g id="edge21" class="edge">
<title>lexeme&#45;&gt;morph</title>
<path fill="none" stroke="violet" d="M1062.15,-164.13C1092.06,-143.58 1125.57,-120.56 1153.39,-101.45"/>
<polygon fill="violet" stroke="violet" points="1155.57,-104.2 1161.84,-95.65 1151.61,-98.43 1155.57,-104.2"/>
<text text-anchor="middle" x="1145.5" y="-124.8" font-family="arial" font-size="14.00" fill="violet">a_morph</text>
</g>
</g>
</svg>
