<?xml version="1.0" encoding="UTF-8" standalone="no"?>
<!DOCTYPE svg PUBLIC "-//W3C//DTD SVG 1.1//EN"
 "http://www.w3.org/Graphics/SVG/1.1/DTD/svg11.dtd">
<!-- Generated by graphviz version 2.43.0 (0)
 -->
<!-- Title: %3 Pages: 1 -->
<svg width="1535pt" height="722pt"
 viewBox="0.00 0.00 1535.00 721.74" xmlns="http://www.w3.org/2000/svg" xmlns:xlink="http://www.w3.org/1999/xlink">
<g id="graph0" class="graph" transform="scale(1 1) rotate(0) translate(72 649.74)">
<title>%3</title>
<polygon fill="white" stroke="transparent" points="-72,72 -72,-649.74 1463,-649.74 1463,72 -72,72"/>
<g id="clust1" class="cluster">
<title>cluster_eav</title>
<polygon fill="none" stroke="orange" stroke-dasharray="1,5" points="8,-8 8,-569.74 476,-569.74 476,-8 8,-8"/>
</g>
<g id="clust2" class="cluster">
<title>cluster_onto</title>
<polygon fill="none" stroke="transparent" stroke-dasharray="1,5" points="16,-16 16,-222.31 360,-222.31 360,-16 16,-16"/>
</g>
<g id="clust3" class="cluster">
<title>cluster_propriete</title>
<polygon fill="none" stroke="transparent" stroke-dasharray="1,5" points="112,-350.31 112,-561.74 468,-561.74 468,-350.31 112,-350.31"/>
</g>
<g id="clust4" class="cluster">
<title>cluster_texte</title>
<polygon fill="none" stroke="transparent" stroke-dasharray="1,5" points="344,-423.31 344,-553.74 460,-553.74 460,-423.31 344,-423.31"/>
</g>
<g id="clust5" class="cluster">
<title>cluster_date</title>
<polygon fill="none" stroke="transparent" stroke-dasharray="1,5" points="232,-423.31 232,-553.74 336,-553.74 336,-423.31 232,-423.31"/>
</g>
<g id="clust6" class="cluster">
<title>cluster_float</title>
<polygon fill="none" stroke="transparent" stroke-dasharray="1,5" points="120,-423.31 120,-553.74 224,-553.74 224,-423.31 120,-423.31"/>
</g>
<g id="clust8" class="cluster">
<title>cluster_entity_relation</title>
<polygon fill="none" stroke="transparent" stroke-dasharray="1,5" points="16,-350.31 16,-402.31 104,-402.31 104,-350.31 16,-350.31"/>
</g>
<g id="clust11" class="cluster">
<title>cluster_nlp</title>
<polygon fill="none" stroke="turquoise" stroke-dasharray="1,5" points="484,-77.87 484,-566.31 1383,-566.31 1383,-77.87 484,-77.87"/>
</g>
<g id="clust12" class="cluster">
<title>cluster_seg</title>
<polygon fill="none" stroke="transparent" stroke-dasharray="1,5" points="492,-427.87 492,-558.31 634,-558.31 634,-427.87 492,-427.87"/>
</g>
<g id="clust13" class="cluster">
<title>cluster_token</title>
<polygon fill="none" stroke="transparent" stroke-dasharray="1,5" points="718,-350.31 718,-475.31 862,-475.31 862,-350.31 718,-350.31"/>
</g>
<g id="clust14" class="cluster">
<title>cluster_mot</title>
<polygon fill="none" stroke="transparent" stroke-dasharray="1,5" points="492,-85.87 492,-321.31 1375,-321.31 1375,-85.87 492,-85.87"/>
</g>
<g id="clust15" class="cluster">
<title>cluster_lexeme</title>
<polygon fill="none" stroke="transparent" stroke-dasharray="1,5" points="576,-93.87 576,-313.31 1367,-313.31 1367,-93.87 576,-93.87"/>
</g>
<g id="clust16" class="cluster">
<title>cluster_nature</title>
<polygon fill="none" stroke="transparent" stroke-dasharray="1,5" points="853,-101.87 853,-222.31 979,-222.31 979,-101.87 853,-101.87"/>
</g>
<g id="clust17" class="cluster">
<title>cluster_fonction</title>
<polygon fill="none" stroke="transparent" stroke-dasharray="1,5" points="584,-174.87 584,-305.31 710,-305.31 710,-174.87 584,-174.87"/>
</g>
<g id="clust18" class="cluster">
<title>cluster_morph</title>
<polygon fill="none" stroke="transparent" stroke-dasharray="1,5" points="987,-101.87 987,-222.31 1115,-222.31 1115,-101.87 987,-101.87"/>
</g>
<g id="clust19" class="cluster">
<title>cluster_lemme</title>
<polygon fill="none" stroke="transparent" stroke-dasharray="1,5" points="1123,-101.87 1123,-222.31 1359,-222.31 1359,-101.87 1123,-101.87"/>
</g>
<!-- concept -->
<g id="node1" class="node">
<title>concept</title>
<polygon fill="none" stroke="orange" points="218,-141.31 146,-141.31 146,-105.31 218,-105.31 218,-141.31"/>
<text text-anchor="middle" x="182" y="-119.61" font-family="Times,serif" font-size="14.00" fill="orange">concept</text>
</g>
<!-- concept_nom -->
<g id="node5" class="node">
<title>concept_nom</title>
<ellipse fill="none" stroke="grey" cx="90" cy="-37.44" rx="27.65" ry="13.37"/>
<text text-anchor="middle" x="90" y="-34.94" font-family="Times,serif" font-size="10.00" fill="grey">nom</text>
</g>
<!-- concept&#45;&gt;concept_nom -->
<g id="edge4" class="edge">
<title>concept&#45;&gt;concept_nom</title>
<path fill="none" stroke="grey" d="M162.94,-104.93C144.73,-88.33 117.82,-63.8 102.29,-49.64"/>
</g>
<!-- concept_definition -->
<g id="node6" class="node">
<title>concept_definition</title>
<ellipse fill="none" stroke="grey" cx="182" cy="-37.44" rx="45.92" ry="13.37"/>
<text text-anchor="middle" x="182" y="-34.94" font-family="Times,serif" font-size="10.00" fill="grey">definition</text>
</g>
<!-- concept&#45;&gt;concept_definition -->
<g id="edge5" class="edge">
<title>concept&#45;&gt;concept_definition</title>
<path fill="none" stroke="grey" d="M182,-104.93C182,-88.81 182,-65.21 182,-50.89"/>
</g>
<!-- concept_id -->
<g id="node7" class="node">
<title>concept_id</title>
<ellipse fill="none" stroke="grey" cx="264" cy="-37.44" rx="18.27" ry="13.37"/>
<text text-anchor="middle" x="264" y="-34.94" font-family="Times,serif" font-size="10.00" fill="grey">id</text>
</g>
<!-- concept&#45;&gt;concept_id -->
<g id="edge6" class="edge">
<title>concept&#45;&gt;concept_id</title>
<path fill="none" stroke="grey" d="M198.99,-104.93C215.5,-88.04 240.04,-62.94 253.76,-48.91"/>
</g>
<!-- type_propriete -->
<g id="node2" class="node">
<title>type_propriete</title>
<polygon fill="none" stroke="orange" points="352,-214.31 230,-214.31 230,-178.31 352,-178.31 352,-214.31"/>
<text text-anchor="middle" x="291" y="-192.61" font-family="Times,serif" font-size="14.00" fill="orange">type_propriete</text>
</g>
<!-- type_propriete&#45;&gt;concept -->
<g id="edge2" class="edge">
<title>type_propriete&#45;&gt;concept</title>
<path fill="none" stroke="orange" stroke-dasharray="5,2" d="M264.89,-178.3C250.44,-168.88 232.29,-157.06 216.66,-146.88"/>
<polygon fill="none" stroke="orange" points="218.56,-143.94 208.27,-141.42 214.74,-149.81 218.56,-143.94"/>
</g>
<!-- type_relation -->
<g id="node3" class="node">
<title>type_relation</title>
<polygon fill="none" stroke="orange" points="134,-214.31 24,-214.31 24,-178.31 134,-178.31 134,-214.31"/>
<text text-anchor="middle" x="79" y="-192.61" font-family="Times,serif" font-size="14.00" fill="orange">type_relation</text>
</g>
<!-- type_relation&#45;&gt;concept -->
<g id="edge1" class="edge">
<title>type_relation&#45;&gt;concept</title>
<path fill="none" stroke="orange" stroke-dasharray="5,2" d="M103.67,-178.3C117.2,-168.97 134.16,-157.28 148.84,-147.16"/>
<polygon fill="none" stroke="orange" points="150.93,-149.98 157.17,-141.42 146.95,-144.21 150.93,-149.98"/>
</g>
<!-- classe -->
<g id="node4" class="node">
<title>classe</title>
<polygon fill="none" stroke="orange" points="212,-214.31 152,-214.31 152,-178.31 212,-178.31 212,-214.31"/>
<text text-anchor="middle" x="182" y="-192.61" font-family="Times,serif" font-size="14.00" fill="orange">classe</text>
</g>
<!-- classe&#45;&gt;concept -->
<g id="edge3" class="edge">
<title>classe&#45;&gt;concept</title>
<path fill="none" stroke="orange" stroke-dasharray="5,2" d="M182,-178.12C182,-170.09 182,-160.35 182,-151.37"/>
<polygon fill="none" stroke="orange" points="185.5,-151.33 182,-141.33 178.5,-151.33 185.5,-151.33"/>
</g>
<!-- propriete -->
<g id="node8" class="node">
<title>propriete</title>
<polygon fill="none" stroke="black" points="325.5,-394.31 242.5,-394.31 242.5,-358.31 325.5,-358.31 325.5,-394.31"/>
<text text-anchor="middle" x="284" y="-372.61" font-family="Times,serif" font-size="14.00">propriete</text>
</g>
<!-- propriete&#45;&gt;type_propriete -->
<g id="edge19" class="edge">
<title>propriete&#45;&gt;type_propriete</title>
<path fill="none" stroke="orange" d="M284.67,-358.24C285.89,-327.27 288.47,-261.6 289.93,-224.43"/>
<polygon fill="orange" stroke="orange" points="293.44,-224.45 290.33,-214.32 286.44,-224.18 293.44,-224.45"/>
<text text-anchor="middle" x="292.5" y="-276.81" font-family="Times,serif" font-size="10.00" fill="orange">a</text>
</g>
<!-- entite -->
<g id="node17" class="node">
<title>entite</title>
<polygon fill="none" stroke="black" points="177.5,-297.31 118.5,-297.31 118.5,-261.31 177.5,-261.31 177.5,-297.31"/>
<text text-anchor="middle" x="148" y="-275.61" font-family="Times,serif" font-size="14.00">entite</text>
</g>
<!-- propriete&#45;&gt;entite -->
<g id="edge20" class="edge">
<title>propriete&#45;&gt;entite</title>
<path fill="none" stroke="black" d="M258.25,-358.29C242.48,-347.78 221.96,-333.93 204,-321.31 195.88,-315.6 187.19,-309.31 179.13,-303.42"/>
<polygon fill="black" stroke="black" points="181.15,-300.56 171.02,-297.46 177,-306.2 181.15,-300.56"/>
<text text-anchor="middle" x="250.5" y="-332.31" font-family="Times,serif" font-size="10.00">qualifie</text>
</g>
<!-- texte -->
<g id="node9" class="node">
<title>texte</title>
<polygon fill="none" stroke="black" points="429,-467.31 375,-467.31 375,-431.31 429,-431.31 429,-467.31"/>
<text text-anchor="middle" x="402" y="-445.61" font-family="Times,serif" font-size="14.00">texte</text>
</g>
<!-- texte&#45;&gt;propriete -->
<g id="edge12" class="edge">
<title>texte&#45;&gt;propriete</title>
<path fill="none" stroke="black" stroke-dasharray="5,2" d="M374.93,-432.02C359.05,-422.46 338.76,-410.26 321.38,-399.8"/>
<polygon fill="none" stroke="black" points="322.96,-396.67 312.59,-394.51 319.36,-402.66 322.96,-396.67"/>
</g>
<!-- texte_val -->
<g id="node10" class="node">
<title>texte_val</title>
<ellipse fill="none" stroke="grey" cx="429" cy="-532.31" rx="22.76" ry="13.37"/>
<text text-anchor="middle" x="429" y="-529.81" font-family="Times,serif" font-size="10.00" fill="grey">val</text>
</g>
<!-- texte_val&#45;&gt;texte -->
<g id="edge7" class="edge">
<title>texte_val&#45;&gt;texte</title>
<path fill="none" stroke="grey" d="M424.9,-519C420.33,-505.28 412.9,-482.99 407.75,-467.54"/>
</g>
<!-- texte_id -->
<g id="node11" class="node">
<title>texte_id</title>
<ellipse fill="none" stroke="grey" cx="370" cy="-532.31" rx="18.27" ry="13.37"/>
<text text-anchor="middle" x="370" y="-529.81" font-family="Times,serif" font-size="10.00" fill="grey">id</text>
</g>
<!-- texte_id&#45;&gt;texte -->
<g id="edge8" class="edge">
<title>texte_id&#45;&gt;texte</title>
<path fill="none" stroke="grey" d="M374.86,-519C380.28,-505.28 389.09,-482.99 395.19,-467.54"/>
</g>
<!-- prop_date -->
<g id="node12" class="node">
<title>prop_date</title>
<polygon fill="none" stroke="black" points="328,-467.31 240,-467.31 240,-431.31 328,-431.31 328,-467.31"/>
<text text-anchor="middle" x="284" y="-445.61" font-family="Times,serif" font-size="14.00">prop_date</text>
</g>
<!-- prop_date&#45;&gt;propriete -->
<g id="edge11" class="edge">
<title>prop_date&#45;&gt;propriete</title>
<path fill="none" stroke="black" stroke-dasharray="5,2" d="M284,-431.12C284,-423.09 284,-413.35 284,-404.37"/>
<polygon fill="none" stroke="black" points="287.5,-404.33 284,-394.33 280.5,-404.33 287.5,-404.33"/>
</g>
<!-- prop_date_val -->
<g id="node13" class="node">
<title>prop_date_val</title>
<ellipse fill="none" stroke="grey" cx="284" cy="-532.31" rx="22.76" ry="13.37"/>
<text text-anchor="middle" x="284" y="-529.81" font-family="Times,serif" font-size="10.00" fill="grey">val</text>
</g>
<!-- prop_date_val&#45;&gt;prop_date -->
<g id="edge9" class="edge">
<title>prop_date_val&#45;&gt;prop_date</title>
<path fill="none" stroke="grey" d="M284,-518.65C284,-504.86 284,-482.71 284,-467.38"/>
</g>
<!-- prop_float -->
<g id="node14" class="node">
<title>prop_float</title>
<polygon fill="none" stroke="black" points="216,-467.31 128,-467.31 128,-431.31 216,-431.31 216,-467.31"/>
<text text-anchor="middle" x="172" y="-445.61" font-family="Times,serif" font-size="14.00">prop_float</text>
</g>
<!-- prop_float&#45;&gt;propriete -->
<g id="edge13" class="edge">
<title>prop_float&#45;&gt;propriete</title>
<path fill="none" stroke="black" stroke-dasharray="5,2" d="M198.83,-431.3C213.68,-421.88 232.33,-410.06 248.39,-399.88"/>
<polygon fill="none" stroke="black" points="250.43,-402.73 257,-394.42 246.68,-396.82 250.43,-402.73"/>
</g>
<!-- prop_float_val -->
<g id="node15" class="node">
<title>prop_float_val</title>
<ellipse fill="none" stroke="grey" cx="172" cy="-532.31" rx="22.76" ry="13.37"/>
<text text-anchor="middle" x="172" y="-529.81" font-family="Times,serif" font-size="10.00" fill="grey">val</text>
</g>
<!-- prop_float_val&#45;&gt;prop_float -->
<g id="edge10" class="edge">
<title>prop_float_val&#45;&gt;prop_float</title>
<path fill="none" stroke="grey" d="M172,-518.65C172,-504.86 172,-482.71 172,-467.38"/>
</g>
<!-- relation -->
<g id="node16" class="node">
<title>relation</title>
<polygon fill="none" stroke="black" points="96,-394.31 24,-394.31 24,-358.31 96,-358.31 96,-394.31"/>
<text text-anchor="middle" x="60" y="-372.61" font-family="Times,serif" font-size="14.00">relation</text>
</g>
<!-- relation&#45;&gt;type_relation -->
<g id="edge18" class="edge">
<title>relation&#45;&gt;type_relation</title>
<path fill="none" stroke="orange" d="M59.52,-357.96C59.1,-330.88 59.55,-277.02 68,-232.31 68.5,-229.64 69.14,-226.89 69.86,-224.16"/>
<polygon fill="orange" stroke="orange" points="73.23,-225.13 72.7,-214.55 66.51,-223.15 73.23,-225.13"/>
<text text-anchor="middle" x="67.5" y="-276.81" font-family="Times,serif" font-size="10.00" fill="orange">a</text>
</g>
<!-- relation&#45;&gt;entite -->
<g id="edge15" class="edge">
<title>relation&#45;&gt;entite:nw</title>
<path fill="none" stroke="black" d="M70.98,-358C80.46,-343.68 95.12,-322.94 111.09,-305.53"/>
<polygon fill="black" stroke="black" points="113.62,-307.95 118,-298.31 108.56,-303.11 113.62,-307.95"/>
<text text-anchor="middle" x="103.5" y="-332.31" font-family="Times,serif" font-size="10.00">sujet</text>
</g>
<!-- relation&#45;&gt;entite -->
<g id="edge16" class="edge">
<title>relation&#45;&gt;entite</title>
<path fill="none" stroke="black" d="M96.18,-358.37C104.38,-353.37 112.56,-347.32 119,-340.31 127.78,-330.75 134.43,-318.05 139.13,-306.8"/>
<polygon fill="black" stroke="black" points="142.43,-307.98 142.77,-297.39 135.9,-305.46 142.43,-307.98"/>
<text text-anchor="middle" x="140" y="-332.31" font-family="Times,serif" font-size="10.00">objet</text>
</g>
<!-- entite&#45;&gt;classe -->
<g id="edge17" class="edge">
<title>entite&#45;&gt;classe</title>
<path fill="none" stroke="orange" d="M155.21,-261.13C159.76,-250.28 165.74,-236.05 170.89,-223.78"/>
<polygon fill="orange" stroke="orange" points="174.16,-225.03 174.8,-214.46 167.7,-222.32 174.16,-225.03"/>
<text text-anchor="middle" x="209" y="-235.31" font-family="Times,serif" font-size="10.00" fill="orange">est_instance_de</text>
</g>
<!-- entite_id -->
<g id="node18" class="node">
<title>entite_id</title>
<ellipse fill="none" stroke="grey" cx="231" cy="-279.31" rx="18.27" ry="13.37"/>
<text text-anchor="middle" x="231" y="-276.81" font-family="Times,serif" font-size="10.00" fill="grey">id</text>
</g>
<!-- entite&#45;&gt;entite_id -->
<g id="edge14" class="edge">
<title>entite&#45;&gt;entite_id</title>
<path fill="none" stroke="grey" d="M177.5,-279.31C189.21,-279.31 200.91,-279.31 212.61,-279.31"/>
</g>
<!-- phrase -->
<g id="node19" class="node">
<title>phrase</title>
<polygon fill="none" stroke="turquoise" points="709.5,-467.31 644.5,-467.31 644.5,-431.31 709.5,-431.31 709.5,-467.31"/>
<text text-anchor="middle" x="677" y="-445.61" font-family="Times,serif" font-size="14.00" fill="turquoise">phrase</text>
</g>
<!-- segment -->
<g id="node20" class="node">
<title>segment</title>
<polygon fill="none" stroke="turquoise" points="626,-550.31 548,-550.31 548,-514.31 626,-514.31 626,-550.31"/>
<text text-anchor="middle" x="587" y="-528.61" font-family="Times,serif" font-size="14.00" fill="turquoise">segment</text>
</g>
<!-- segment&#45;&gt;texte -->
<g id="edge22" class="edge">
<title>segment&#45;&gt;texte</title>
<path fill="none" stroke="turquoise" d="M547.77,-514.13C515.47,-499.99 470.03,-480.09 438.51,-466.29"/>
<polygon fill="turquoise" stroke="turquoise" points="439.76,-463.02 429.2,-462.21 436.95,-469.43 439.76,-463.02"/>
<text text-anchor="middle" x="517.5" y="-488.31" font-family="Times,serif" font-size="10.00" fill="turquoise">dans</text>
</g>
<!-- segment&#45;&gt;phrase -->
<g id="edge21" class="edge">
<title>segment&#45;&gt;phrase</title>
<path fill="none" stroke="turquoise" stroke-dasharray="5,2" d="M613.64,-507.33C627.87,-494.52 645.06,-479.05 657.94,-467.46"/>
<polygon fill="none" stroke="turquoise" points="611.18,-504.84 606.09,-514.13 615.86,-510.04 611.18,-504.84"/>
</g>
<!-- segment_debut -->
<g id="node21" class="node">
<title>segment_debut</title>
<ellipse fill="none" stroke="grey" cx="593" cy="-449.31" rx="33.47" ry="13.37"/>
<text text-anchor="middle" x="593" y="-446.81" font-family="Times,serif" font-size="10.00" fill="grey">debut</text>
</g>
<!-- segment&#45;&gt;segment_debut -->
<g id="edge24" class="edge">
<title>segment&#45;&gt;segment_debut</title>
<path fill="none" stroke="grey" d="M588.27,-514.13C589.41,-498.8 591.04,-476.72 592.06,-462.96"/>
</g>
<!-- segment_fin -->
<g id="node22" class="node">
<title>segment_fin</title>
<ellipse fill="none" stroke="grey" cx="521" cy="-449.31" rx="21.43" ry="13.37"/>
<text text-anchor="middle" x="521" y="-446.81" font-family="Times,serif" font-size="10.00" fill="grey">fin</text>
</g>
<!-- segment&#45;&gt;segment_fin -->
<g id="edge23" class="edge">
<title>segment&#45;&gt;segment_fin</title>
<path fill="none" stroke="grey" d="M573,-514.13C560.14,-498.34 541.43,-475.37 530.31,-461.73"/>
</g>
<!-- token -->
<g id="node23" class="node">
<title>token</title>
<polygon fill="none" stroke="turquoise" points="784,-467.31 728,-467.31 728,-431.31 784,-431.31 784,-467.31"/>
<text text-anchor="middle" x="756" y="-445.61" font-family="Times,serif" font-size="14.00" fill="turquoise">token</text>
</g>
<!-- segment&#45;&gt;token -->
<g id="edge27" class="edge">
<title>segment&#45;&gt;token</title>
<path fill="none" stroke="turquoise" stroke-dasharray="5,2" d="M635.7,-519.81C655.37,-514.16 677.89,-506.37 697,-496.31 710.45,-489.22 712.01,-484.65 724,-475.31 727.22,-472.79 730.63,-470.13 733.97,-467.53"/>
<polygon fill="none" stroke="turquoise" points="634.71,-516.45 626,-522.49 636.57,-523.2 634.71,-516.45"/>
</g>
<!-- token_num -->
<g id="node24" class="node">
<title>token_num</title>
<ellipse fill="none" stroke="grey" cx="826" cy="-376.31" rx="28.07" ry="13.37"/>
<text text-anchor="middle" x="826" y="-373.81" font-family="Times,serif" font-size="10.00" fill="grey">num</text>
</g>
<!-- token&#45;&gt;token_num -->
<g id="edge25" class="edge">
<title>token&#45;&gt;token_num</title>
<path fill="none" stroke="grey" d="M772.95,-431.12C785.89,-417.99 803.38,-400.25 814.68,-388.79"/>
</g>
<!-- mot -->
<g id="node25" class="node">
<title>mot</title>
<polygon fill="none" stroke="turquoise" points="780,-394.31 726,-394.31 726,-358.31 780,-358.31 780,-394.31"/>
<text text-anchor="middle" x="753" y="-372.61" font-family="Times,serif" font-size="14.00" fill="turquoise">mot</text>
</g>
<!-- token&#45;&gt;mot -->
<g id="edge26" class="edge">
<title>token&#45;&gt;mot</title>
<path fill="none" stroke="turquoise" stroke-dasharray="5,2" d="M754.85,-421.06C754.47,-412.07 754.06,-402.33 753.72,-394.33"/>
<polygon fill="none" stroke="turquoise" points="751.35,-421.27 755.27,-431.12 758.35,-420.98 751.35,-421.27"/>
</g>
<!-- fonction -->
<g id="node26" class="node">
<title>fonction</title>
<polygon fill="none" stroke="violet" points="702,-297.31 628,-297.31 628,-261.31 702,-261.31 702,-297.31"/>
<text text-anchor="middle" x="665" y="-275.61" font-family="Times,serif" font-size="14.00" fill="violet">fonction</text>
</g>
<!-- mot&#45;&gt;fonction -->
<g id="edge28" class="edge">
<title>mot&#45;&gt;fonction</title>
<path fill="none" stroke="violet" d="M736.86,-357.88C723.21,-343.15 703.5,-321.86 688.17,-305.31"/>
<polygon fill="violet" stroke="violet" points="690.4,-302.58 681.04,-297.62 685.27,-307.33 690.4,-302.58"/>
<text text-anchor="middle" x="722.5" y="-332.31" font-family="Times,serif" font-size="10.00" fill="violet">a</text>
</g>
<!-- mot_noyau -->
<g id="node27" class="node">
<title>mot_noyau</title>
<ellipse fill="none" stroke="grey" cx="534" cy="-279.31" rx="33.88" ry="13.37"/>
<text text-anchor="middle" x="534" y="-276.81" font-family="Times,serif" font-size="10.00" fill="grey">noyau</text>
</g>
<!-- mot&#45;&gt;mot_noyau -->
<g id="edge29" class="edge">
<title>mot&#45;&gt;mot_noyau</title>
<path fill="none" stroke="grey" d="M725.78,-370.54C690.44,-363.53 627.64,-348.28 580,-321.31 566.41,-313.61 553.36,-301.36 544.65,-292.25"/>
</g>
<!-- lexeme -->
<g id="node28" class="node">
<title>lexeme</title>
<polygon fill="none" stroke="violet" points="886,-297.31 818,-297.31 818,-261.31 886,-261.31 886,-297.31"/>
<text text-anchor="middle" x="852" y="-275.61" font-family="Times,serif" font-size="14.00" fill="violet">lexeme</text>
</g>
<!-- mot&#45;&gt;lexeme -->
<g id="edge30" class="edge">
<title>mot&#45;&gt;lexeme</title>
<path fill="none" stroke="violet" d="M771.16,-357.88C786.65,-343.02 809.1,-321.48 826.41,-304.86"/>
<polygon fill="violet" stroke="violet" points="829.16,-307.07 833.96,-297.62 824.32,-302.02 829.16,-307.07"/>
<text text-anchor="middle" x="840" y="-332.31" font-family="Times,serif" font-size="10.00" fill="violet">est_instance_de</text>
</g>
<!-- fonction_id -->
<g id="node32" class="node">
<title>fonction_id</title>
<ellipse fill="none" stroke="grey" cx="610" cy="-196.31" rx="18.27" ry="13.37"/>
<text text-anchor="middle" x="610" y="-193.81" font-family="Times,serif" font-size="10.00" fill="grey">id</text>
</g>
<!-- fonction&#45;&gt;fonction_id -->
<g id="edge33" class="edge">
<title>fonction&#45;&gt;fonction_id</title>
<path fill="none" stroke="grey" d="M653.34,-261.13C642.61,-245.34 627.02,-222.37 617.76,-208.73"/>
</g>
<!-- fonction_nom -->
<g id="node33" class="node">
<title>fonction_nom</title>
<ellipse fill="none" stroke="grey" cx="674" cy="-196.31" rx="27.65" ry="13.37"/>
<text text-anchor="middle" x="674" y="-193.81" font-family="Times,serif" font-size="10.00" fill="grey">nom</text>
</g>
<!-- fonction&#45;&gt;fonction_nom -->
<g id="edge34" class="edge">
<title>fonction&#45;&gt;fonction_nom</title>
<path fill="none" stroke="grey" d="M666.91,-261.13C668.61,-245.8 671.07,-223.72 672.59,-209.96"/>
</g>
<!-- nature -->
<g id="node29" class="node">
<title>nature</title>
<polygon fill="none" stroke="violet" points="927,-214.31 863,-214.31 863,-178.31 927,-178.31 927,-214.31"/>
<text text-anchor="middle" x="895" y="-192.61" font-family="Times,serif" font-size="14.00" fill="violet">nature</text>
</g>
<!-- lexeme&#45;&gt;nature -->
<g id="edge40" class="edge">
<title>lexeme&#45;&gt;nature</title>
<path fill="none" stroke="violet" d="M861.12,-261.13C866.93,-250.17 874.58,-235.77 881.14,-223.41"/>
<polygon fill="violet" stroke="violet" points="884.3,-224.93 885.89,-214.46 878.11,-221.65 884.3,-224.93"/>
<text text-anchor="middle" x="879.5" y="-235.31" font-family="Times,serif" font-size="10.00" fill="violet">a</text>
</g>
<!-- morph -->
<g id="node34" class="node">
<title>morph</title>
<polygon fill="none" stroke="violet" points="1058.5,-214.31 995.5,-214.31 995.5,-178.31 1058.5,-178.31 1058.5,-214.31"/>
<text text-anchor="middle" x="1027" y="-192.61" font-family="Times,serif" font-size="14.00" fill="violet">morph</text>
</g>
<!-- lexeme&#45;&gt;morph -->
<g id="edge41" class="edge">
<title>lexeme&#45;&gt;morph</title>
<path fill="none" stroke="violet" d="M886.13,-264.95C912.85,-254.2 950.76,-238.29 983,-222.31 984.98,-221.32 987,-220.29 989.03,-219.23"/>
<polygon fill="violet" stroke="violet" points="990.76,-222.27 997.9,-214.45 987.44,-216.11 990.76,-222.27"/>
<text text-anchor="middle" x="964.5" y="-235.31" font-family="Times,serif" font-size="10.00" fill="violet">a</text>
</g>
<!-- lemme -->
<g id="node37" class="node">
<title>lemme</title>
<polygon fill="none" stroke="violet" points="1249.5,-214.31 1184.5,-214.31 1184.5,-178.31 1249.5,-178.31 1249.5,-214.31"/>
<text text-anchor="middle" x="1217" y="-192.61" font-family="Times,serif" font-size="14.00" fill="violet">lemme</text>
</g>
<!-- lexeme&#45;&gt;lemme -->
<g id="edge42" class="edge">
<title>lexeme&#45;&gt;lemme</title>
<path fill="none" stroke="violet" d="M886.24,-271.61C937.15,-261.56 1035.73,-241.65 1119,-222.31 1137.3,-218.05 1157.42,-212.99 1174.65,-208.53"/>
<polygon fill="violet" stroke="violet" points="1175.62,-211.9 1184.42,-205.99 1173.86,-205.12 1175.62,-211.9"/>
<text text-anchor="middle" x="1071.5" y="-235.31" font-family="Times,serif" font-size="10.00" fill="violet">a</text>
</g>
<!-- lexeme_id -->
<g id="node41" class="node">
<title>lexeme_id</title>
<ellipse fill="none" stroke="grey" cx="738" cy="-196.31" rx="18.27" ry="13.37"/>
<text text-anchor="middle" x="738" y="-193.81" font-family="Times,serif" font-size="10.00" fill="grey">id</text>
</g>
<!-- lexeme&#45;&gt;lexeme_id -->
<g id="edge43" class="edge">
<title>lexeme&#45;&gt;lexeme_id</title>
<path fill="none" stroke="grey" d="M823.38,-261.19C806.29,-250.6 784.4,-236.38 766,-222.31 760,-217.71 753.68,-212.15 748.58,-207.44"/>
</g>
<!-- lexeme_norme -->
<g id="node42" class="node">
<title>lexeme_norme</title>
<ellipse fill="none" stroke="grey" cx="810" cy="-196.31" rx="35.21" ry="13.37"/>
<text text-anchor="middle" x="810" y="-193.81" font-family="Times,serif" font-size="10.00" fill="grey">norme</text>
</g>
<!-- lexeme&#45;&gt;lexeme_norme -->
<g id="edge44" class="edge">
<title>lexeme&#45;&gt;lexeme_norme</title>
<path fill="none" stroke="grey" d="M843.09,-261.13C835.1,-245.71 823.56,-223.45 816.43,-209.71"/>
</g>
<!-- nature_id -->
<g id="node30" class="node">
<title>nature_id</title>
<ellipse fill="none" stroke="grey" cx="879" cy="-123.31" rx="18.27" ry="13.37"/>
<text text-anchor="middle" x="879" y="-120.81" font-family="Times,serif" font-size="10.00" fill="grey">id</text>
</g>
<!-- nature&#45;&gt;nature_id -->
<g id="edge32" class="edge">
<title>nature&#45;&gt;nature_id</title>
<path fill="none" stroke="grey" d="M891.13,-178.12C888.24,-165.31 884.37,-148.13 881.78,-136.66"/>
</g>
<!-- nature_nom -->
<g id="node31" class="node">
<title>nature_nom</title>
<ellipse fill="none" stroke="grey" cx="943" cy="-123.31" rx="27.65" ry="13.37"/>
<text text-anchor="middle" x="943" y="-120.81" font-family="Times,serif" font-size="10.00" fill="grey">nom</text>
</g>
<!-- nature&#45;&gt;nature_nom -->
<g id="edge31" class="edge">
<title>nature&#45;&gt;nature_nom</title>
<path fill="none" stroke="grey" d="M906.62,-178.12C915.39,-165.15 927.19,-147.69 934.94,-136.22"/>
</g>
<!-- morph_id -->
<g id="node35" class="node">
<title>morph_id</title>
<ellipse fill="none" stroke="grey" cx="1013" cy="-123.31" rx="18.27" ry="13.37"/>
<text text-anchor="middle" x="1013" y="-120.81" font-family="Times,serif" font-size="10.00" fill="grey">id</text>
</g>
<!-- morph&#45;&gt;morph_id -->
<g id="edge35" class="edge">
<title>morph&#45;&gt;morph_id</title>
<path fill="none" stroke="grey" d="M1023.61,-178.12C1021.09,-165.31 1017.7,-148.13 1015.44,-136.66"/>
</g>
<!-- morph_feats -->
<g id="node36" class="node">
<title>morph_feats</title>
<ellipse fill="none" stroke="grey" cx="1078" cy="-123.31" rx="28.98" ry="13.37"/>
<text text-anchor="middle" x="1078" y="-120.81" font-family="Times,serif" font-size="10.00" fill="grey">feats</text>
</g>
<!-- morph&#45;&gt;morph_feats -->
<g id="edge36" class="edge">
<title>morph&#45;&gt;morph_feats</title>
<path fill="none" stroke="grey" d="M1039.35,-178.12C1048.66,-165.15 1061.2,-147.69 1069.44,-136.22"/>
</g>
<!-- lemme_id -->
<g id="node38" class="node">
<title>lemme_id</title>
<ellipse fill="none" stroke="grey" cx="1333" cy="-123.31" rx="18.27" ry="13.37"/>
<text text-anchor="middle" x="1333" y="-120.81" font-family="Times,serif" font-size="10.00" fill="grey">id</text>
</g>
<!-- lemme&#45;&gt;lemme_id -->
<g id="edge37" class="edge">
<title>lemme&#45;&gt;lemme_id</title>
<path fill="none" stroke="grey" d="M1245.53,-178.16C1263.03,-167.6 1285.86,-153.75 1306,-141.31 1310.43,-138.57 1315.25,-135.55 1319.57,-132.82"/>
</g>
<!-- lemme_graphie -->
<g id="node39" class="node">
<title>lemme_graphie</title>
<ellipse fill="none" stroke="grey" cx="1171" cy="-123.31" rx="39.7" ry="13.37"/>
<text text-anchor="middle" x="1171" y="-120.81" font-family="Times,serif" font-size="10.00" fill="grey">graphie</text>
</g>
<!-- lemme&#45;&gt;lemme_graphie -->
<g id="edge38" class="edge">
<title>lemme&#45;&gt;lemme_graphie</title>
<path fill="none" stroke="grey" d="M1205.86,-178.12C1197.57,-165.31 1186.44,-148.13 1179.01,-136.66"/>
</g>
<!-- lemme_vec -->
<g id="node40" class="node">
<title>lemme_vec</title>
<ellipse fill="none" stroke="grey" cx="1263" cy="-123.31" rx="33.88" ry="13.37"/>
<text text-anchor="middle" x="1263" y="-120.81" font-family="Times,serif" font-size="10.00" fill="grey">vector</text>
</g>
<!-- lemme&#45;&gt;lemme_vec -->
<g id="edge39" class="edge">
<title>lemme&#45;&gt;lemme_vec</title>
<path fill="none" stroke="grey" d="M1228.14,-178.12C1236.43,-165.31 1247.56,-148.13 1254.99,-136.66"/>
</g>
</g>
</svg>
